<?xml version="1.0" standalone="no"?>
<!DOCTYPE svg PUBLIC "-//W3C//DTD SVG 1.1//EN" "http://www.w3.org/Graphics/SVG/1.1/DTD/svg11.dtd" >
<svg>
<metadata>
Created by FontForge 20090914 at Fri Dec  5 04:36:17 2014
 By www-data
Handsome is a trademark of Shinn Type Foundry. Copyright \251 1999 by Nick Shinn. Published 1999 by Shinn Type Foundry.
</metadata>
<defs>
<font id="Handsome-Bold" horiz-adv-x="480" >
  <font-face 
    font-family="Handsome"
    font-weight="700"
    font-stretch="normal"
    units-per-em="1000"
    panose-1="2 0 8 3 2 0 0 2 0 3"
    ascent="800"
    descent="-200"
    x-height="318.002"
    cap-height="619.999"
    bbox="-231.999 -355 934.667 854.999"
    underline-thickness="60"
    underline-position="-103"
    unicode-range="U+0020-U+FB02"
  />
<missing-glyph horiz-adv-x="1000" 
 />
    <glyph glyph-name=".notdef" horiz-adv-x="1000" 
 />
    <glyph glyph-name="space" unicode=" " horiz-adv-x="240" 
 />
    <glyph glyph-name="exclam" unicode="!" horiz-adv-x="299" 
d="M280 602c0 9.33301 -3.16699 16.6689 -9.5 22.002s-13.166 8 -20.499 8c-11.333 0 -20 -5 -26 -15c-4 -6.66699 -10 -21.5 -18 -44.5l-27.5 -81.5l-31.5 -99.5l-29 -98.5c-8.66699 -30.667 -15.834 -57.334 -21.501 -80.001s-8.5 -36.667 -8.5 -42
c0 -10 3.33301 -17.5 10 -22.5s13.334 -7.5 20.001 -7.5s13 2 19 6s9.66699 10.667 11 20c1.33301 11.333 5 28.666 11 51.999s13.167 49.5 21.5 78.5l27 90.5l28 88.5c9 27.667 17.167 51.5 24.5 71.5s12.666 33 15.999 39c2.66699 4.66699 4 9.66699 4 15zM125 33.0029
c0 8.66699 -2.99902 16.835 -8.99902 24.502s-14 11.5 -24 11.5c-6.66699 0 -12.334 -1.66699 -17.001 -5s-8.66699 -7.5 -12 -12.5s-5.83301 -10.333 -7.5 -16s-2.5 -10.5 -2.5 -14.5c0 -10.667 2.83301 -18.834 8.5 -24.501s12.5 -8.5 20.5 -8.5
c10 0 19.667 4.16699 29 12.5s14 19.166 14 32.499z" />
    <glyph glyph-name="quotedbl" unicode="&#x22;" 
d="M450 621c0 8.66699 -3.33496 15.832 -10.002 21.499s-13.667 8.5 -21 8.5c-9.33301 0 -17 -4 -23 -12l-18.5 -26.5l-31 -46.5l-36.5 -58l-35 -58.5c-10.667 -18.333 -19.667 -34.833 -27 -49.5s-11.666 -25 -12.999 -31c-0.666992 -1.33301 -1 -2.66602 -1 -3.99902v-4
c0 -9.33301 3.33301 -16.5 10 -21.5s13.667 -7.5 21 -7.5c6 0 12 2 18 6s9.66699 10.333 11 19c0.666992 4.66699 4.33398 13.167 11.001 25.5l24.5 43.5l32 53l34 53l29.5 44.5l18 26.5c4.66699 6 7 12 7 18zM302.998 608.998c0 9.33301 -3.33496 16.666 -10.002 21.999
s-13.667 8 -21 8c-11.333 0 -19.666 -4.66699 -24.999 -14c-11.333 -17.333 -22.166 -35.666 -32.499 -54.999l-30.5 -59l-30 -59c-10 -19.333 -20 -37.333 -30 -54c-2.66699 -6.66699 -4 -11.667 -4 -15c0 -9.33301 3.33301 -16.666 10 -21.999s13.667 -8 21 -8
c10.667 0 19 5 25 15c10 16 19.833 33.667 29.5 53l29.5 58.5l30.5 58.5c10.333 19.333 20.833 37.666 31.5 54.999c4 4.66699 6 10 6 16z" />
    <glyph glyph-name="numbersign" unicode="#" horiz-adv-x="462" 
d="M521 432c0 7.33301 -2.33496 13.8193 -7.00195 19.4863s-11.667 8.83398 -21 9.50098c-15.333 1.33301 -31 2.33301 -47 3l-48 2c7.33301 13.333 15 26.333 23 39s16.667 24.667 26 36c5.33301 6.66699 8 13.334 8 20.001c0 8.66699 -3 15.834 -9 21.501s-13 8.5 -21 8.5
c-3.33301 0 -7 -0.666992 -11 -2s-7.66699 -4 -11 -8c-15.333 -17.333 -28.666 -35.666 -39.999 -54.999l-34 -59l-97 1c6 11.333 13.167 24 21.5 38s15.833 26 22.5 36c2 3.33301 3.16699 6.33301 3.5 9s0.5 5 0.5 7c0 9.33301 -3.33301 16.666 -10 21.999s-13.667 8 -21 8
c-11.333 0 -19.666 -4.66699 -24.999 -14c-4.66699 -7.33301 -10 -16.166 -16 -26.499l-18 -31l-17 -29l-12 -20.5h-23c-9.33301 0 -19.5 -0.166992 -30.5 -0.5s-22.167 -0.5 -33.5 -0.5h-30c-10 0 -17.5 -3.16699 -22.5 -9.5s-7.5 -13.166 -7.5 -20.499
s2.5 -14.166 7.5 -20.499s12.5 -9.5 22.5 -9.5h42c16.667 0 31 0.333008 43 1l-43 -84c-5.33301 0 -12.333 -0.166992 -21 -0.5s-17.834 -0.666016 -27.501 -0.999023s-19.5 -0.5 -29.5 -0.5h-25c-10 0 -17.5 -3.16699 -22.5 -9.5s-7.5 -13.166 -7.5 -20.499
s2.5 -14.166 7.5 -20.499s12.5 -9.5 22.5 -9.5c9.33301 0 21 0.166992 35 0.5s26.667 0.5 38 0.5l-21.5 -45.5c-8.33301 -17.667 -15.166 -32.834 -20.499 -45.501c-1.33301 -5.33301 -2 -9.33301 -2 -12c0 -8 2.83301 -15 8.5 -21s12.834 -9 21.501 -9
c5.33301 0 10.5 1.33301 15.5 4s9.16699 7.33398 12.5 14.001l13.5 29.5l15.5 33l15 31l11 22.5c5.33301 0.666992 12.333 1 21 1h21c7.33301 0 15.666 -0.166992 24.999 -0.5s18 -0.5 26 -0.5l-22 -40.5c-8.66699 -15.667 -16.334 -28.834 -23.001 -39.501
c-2.66699 -5.33301 -4 -10.666 -4 -15.999c0 -9.33301 3.33301 -16.666 10 -21.999s13.667 -8 21 -8c4.66699 0 9.16699 1 13.5 3s8.16602 5.66699 11.499 11l16 28l17.5 31l16 28.5c5 9 8.83301 16.167 11.5 21.5c8 -0.666992 18.833 -1.5 32.5 -2.5l41 -3
c13.667 -1 26.167 -1.83301 37.5 -2.5s18.333 -1 21 -1c10 0 17.833 3.16699 23.5 9.5s8.5 13.5 8.5 21.5c0 6.66699 -2.16699 12.834 -6.5 18.501s-10.833 9.16699 -19.5 10.5c-6.66699 0.666992 -14.667 1.33398 -24 2.00098l-28.5 2l-28.5 2
c-9.33301 0.666992 -17.666 1.33398 -24.999 2.00098l46 86c7.33301 0 17.5 -0.333008 30.5 -1s26.167 -1.16699 39.5 -1.5s25.333 -0.666016 36 -0.999023s17.334 -0.5 20.001 -0.5c10.667 0 18.5 3.33301 23.5 10s7.5 13.667 7.5 21zM294.998 405.986l-45 -84
c-4.66699 0 -10.667 0.166992 -18 0.5l-22.5 1c-7.66699 0.333008 -15.5 0.5 -23.5 0.5h-19h-12l43 84z" />
    <glyph glyph-name="dollar" unicode="$" 
d="M446 413c0 3.33301 -0.503906 6.00781 -1.50391 8.00781l-2.5 5c-9.33301 17.333 -22 31.166 -38 41.499s-33 18.166 -51 23.499l7 20l7.5 21l6 17.5c1.66699 5 2.5 7.83301 2.5 8.5c0 9.33301 -3.16699 16.333 -9.5 21s-12.833 7 -19.5 7
c-14.667 0 -24.667 -7.66699 -30 -23c-4 -10.667 -7.83301 -21.5 -11.5 -32.5l-11.5 -33.5c-30 -0.666992 -58.167 -4.83398 -84.5 -12.501s-49.5 -17.667 -69.5 -30s-35.667 -27 -47 -44s-17 -35.5 -17 -55.5c0 -24.667 9.5 -48.167 28.5 -70.5s47.5 -42.166 85.5 -59.499
l-83 -220c-18.667 4.66699 -33.167 10.667 -43.5 18s-18.333 15.166 -24 23.499s-9.66699 16.5 -12 24.5s-4.66602 15.333 -6.99902 22s-5.33301 12.167 -9 16.5s-9.5 6.5 -17.5 6.5c-9.33301 0 -17.166 -3 -23.499 -9s-9.5 -13.667 -9.5 -23c0 -8 1.83301 -18.333 5.5 -31
s10.334 -25.834 20.001 -39.501s22.5 -26.5 38.5 -38.5s36.667 -21.333 62 -28l-6.5 -15.5l-9 -22c-3 -7.66699 -5.5 -14.834 -7.5 -21.501s-3 -11 -3 -13c0 -6.66699 2 -13.167 6 -19.5s11 -9.5 21 -9.5c6 0 11.833 1.83301 17.5 5.5s10.167 9.16699 13.5 16.5
c4.66699 11.333 9.16699 23.166 13.5 35.499s8.83301 24.5 13.5 36.5h5c32 0 62 4.5 90 13.5s52.5 21.333 73.5 37s37.667 33.667 50 54s18.5 42.166 18.5 65.499c0 28 -9.66699 54.667 -29 80s-49 47.666 -89 66.999l67 177c12 -3.33301 22.833 -8.16602 32.5 -14.499
s17.5 -14.833 23.5 -25.5c4.66699 -9.33301 12.334 -14 23.001 -14c7.33301 0 15 3.16699 23 9.5s12 14.166 12 23.499zM269.996 437.008l-58.999 -156c-28.667 14 -48.5 27.833 -59.5 41.5s-16.5 26.167 -16.5 37.5c0 16 11.167 32 33.5 48s56.166 25.667 101.499 29z
M322.997 108.008c0 -12.667 -3.66797 -25.167 -11.001 -37.5s-17.666 -23.5 -30.999 -33.5s-29.5 -18.5 -48.5 -25.5s-40.167 -10.833 -63.5 -11.5l75 201c30 -14.667 50.667 -30.167 62 -46.5s17 -31.833 17 -46.5z" />
    <glyph glyph-name="percent" unicode="%" horiz-adv-x="785" 
d="M694 573c0 8 -2.83398 14.5 -8.50098 19.5s-12.167 7.5 -19.5 7.5c-9.33301 0 -19 -2.83301 -29 -8.5s-20 -12.334 -30 -20.001s-19.167 -15.667 -27.5 -24s-15.166 -15.5 -20.499 -21.5c-6 -2 -14.333 -4.16699 -25 -6.5s-22 -4.5 -34 -6.5s-24.5 -3.5 -37.5 -4.5
s-24.833 -1.5 -35.5 -1.5c-28 0 -48.167 3 -60.5 9s-21.333 12.5 -27 19.5s-10 13.5 -13 19.5s-9.16699 9 -18.5 9c-6.66699 0 -12.667 -2.16699 -18 -6.5s-9.33301 -9.5 -12 -15.5c-6 7.33301 -13.667 11 -23 11c-16 0 -32.333 -3.83301 -49 -11.5s-31.834 -19 -45.501 -34
s-24.667 -33.167 -33 -54.5s-12.5 -45.333 -12.5 -72c0 -16.667 2.16699 -33.334 6.5 -50.001s10.833 -31.5 19.5 -44.5s19.667 -23.667 33 -32s29.333 -12.5 48 -12.5c24 0 45.5 5.83301 64.5 17.5s35.167 26.5 48.5 44.5s23.5 37.5 30.5 58.5s10.5 40.5 10.5 58.5
c0 5.33301 -0.166992 10.666 -0.5 15.999s-0.833008 10.333 -1.5 15c11.333 -2 22.5 -3.16699 33.5 -3.5s22.167 -0.5 33.5 -0.5c6.66699 0 15.834 0.166992 27.501 0.5s21.167 1.16602 28.5 2.49902l-102 -120c-34 -39.333 -67.667 -80.333 -101 -123
c-5.33301 -7.33301 -13.5 -17.666 -24.5 -30.999l-37 -44.5l-41.5 -51c-14 -17.667 -26.833 -34.667 -38.5 -51s-21.167 -31.166 -28.5 -44.499s-11 -23.666 -11 -30.999c0 -9.33301 3.16699 -16.666 9.5 -21.999s13.166 -8 20.499 -8c12 0 21 5.33301 27 16
c9.33301 19.333 20.833 38.666 34.5 57.999s28.5 39 44.5 59l171.5 209l174.5 208c6.66699 2.66699 15.667 7.16699 27 13.5s22.333 13.833 33 22.5s19.834 18.334 27.501 29.001s11.5 21.667 11.5 33zM635.999 146c0 24 -5.33496 46.501 -16.002 67.501
s-27.667 37.167 -51 48.5c-5.33301 3.33301 -12.166 6.16602 -20.499 8.49902s-16.833 3.5 -25.5 3.5c-7.33301 0 -14.5 -1.33301 -21.5 -4s-12.5 -6.66699 -16.5 -12c-21.333 -9.33301 -39.833 -20.833 -55.5 -34.5s-28.5 -28.667 -38.5 -45s-17.5 -33.333 -22.5 -51
s-7.5 -35.167 -7.5 -52.5c0 -14.667 1.83301 -29.167 5.5 -43.5s9.33398 -27.333 17.001 -39s17.167 -21 28.5 -28s24.666 -10.5 39.999 -10.5c29.333 0 55.333 6 78 18s41.834 27.167 57.501 45.5s27.667 38.833 36 61.5s12.5 45 12.5 67zM315.997 421.001
c0 -14 -2.66602 -28.165 -7.99902 -42.498s-12.333 -27.166 -21 -38.499s-18.667 -20.5 -30 -27.5s-23 -10.5 -35 -10.5c-13.333 0 -24.5 7 -33.5 21s-13.5 33 -13.5 57c0 14 1.66699 27.5 5 40.5s8.5 24.667 15.5 35s15.667 18.833 26 25.5s22.5 10.667 36.5 12
c6 0.666992 11.167 2.66699 15.5 6s7.5 7.66602 9.5 12.999c5.33301 -10.667 12.166 -23.334 20.499 -38.001s12.5 -32.334 12.5 -53.001zM575.998 145.003c0 -15.333 -2.83398 -30.665 -8.50098 -45.998s-14 -29.333 -25 -42s-24.167 -23 -39.5 -31s-32.333 -12 -51 -12
c-7.33301 0 -14.333 4.83301 -21 14.5s-10 25.167 -10 46.5c0 13.333 2.16699 27.333 6.5 42s11 28.167 20 40.5s20.833 23.166 35.5 32.499s32.334 15.666 53.001 18.999c13.333 -4 23.333 -11.667 30 -23s10 -25 10 -41z" />
    <glyph glyph-name="ampersand" unicode="&#x26;" horiz-adv-x="632" 
d="M614 257c0 7.33301 -2.49902 14.1729 -7.49902 20.5059s-12.5 9.5 -22.5 9.5h-51c-38 0 -73.5 -1 -106.5 -3s-65.5 -4.66699 -97.5 -8c12 41.333 24.833 83 38.5 125s28.167 83 43.5 123c1.33301 4 2 7.66699 2 11c0 10 -3.33301 17.333 -10 22s-13.334 7 -20.001 7
c-5.33301 0 -10.666 -1.33301 -15.999 -4s-9.33301 -7.66699 -12 -15c-17.333 -45.333 -33.333 -91 -48 -137l-42 -138l-62 -6c-20.667 -2 -42 -3.66699 -64 -5c-18 5.33301 -36 10.333 -54 15s-36.333 7 -55 7c-13.333 0 -25.166 -5.16699 -35.499 -15.5
s-15.5 -20.833 -15.5 -31.5c0 -11.333 4.83301 -20.5 14.5 -27.5s22.167 -10.5 37.5 -10.5c17.333 0 34.833 0.333008 52.5 1s35.5 1.66699 53.5 3c16 -6.66699 27.833 -18 35.5 -34s11.5 -41.667 11.5 -77c0 -37.333 -4.83301 -70.833 -14.5 -100.5
s-21.834 -61.834 -36.501 -96.501c-1.33301 -2.66699 -2 -7 -2 -13c0 -6.66699 2.33301 -13.334 7 -20.001s12 -10 22 -10c4.66699 0 9.5 1.16699 14.5 3.5s9.16699 6.16602 12.5 11.499c19.333 31.333 34.166 64.166 44.499 98.499l31.5 102.5l24 73
c8.66699 25.333 16.667 50.666 24 75.999c38 3.33301 75.5 6.33301 112.5 9s73.5 4 109.5 4h51c10 0 17.5 3.16699 22.5 9.5s7.5 13.166 7.5 20.499zM247.001 208.007l-6 -19.501l-6 -18.5c-4 12.667 -9.66699 24.334 -17 35.001z" />
    <glyph glyph-name="quotesingle" unicode="'" horiz-adv-x="240" 
d="M219 637c0 9.33301 -3.16895 16.665 -9.50195 21.998s-13.166 8 -20.499 8c-12.667 0 -21.667 -5.66699 -27 -17l-81.5 -161c-27 -52.667 -53.167 -106.667 -78.5 -162c-2 -5.33301 -3 -9.66602 -3 -12.999c0 -9.33301 3.33301 -16.666 10 -21.999s13.667 -8 21 -8
c5.33301 0 10.333 1.5 15 4.5s8.33398 7.16699 11.001 12.5c25.333 55.333 51.5 109.333 78.5 162l81.5 161c2 4 3 8.33301 3 13z" />
    <glyph glyph-name="parenleft" unicode="(" horiz-adv-x="370" 
d="M405 634c0 8 -3.00195 15.168 -9.00195 21.501s-13.333 9.5 -22 9.5c-6 0 -12.333 -2.66699 -19 -8c-33.333 -28 -64.666 -62.167 -93.999 -102.5s-55.333 -84.166 -78 -131.499s-40.5 -96.666 -53.5 -147.999s-19.5 -102 -19.5 -152
c0 -54.667 8.83301 -106.834 26.5 -156.501s47.5 -93.5 89.5 -131.5c5.33301 -5.33301 12 -8 20 -8c8.66699 0 15.834 3 21.501 9s8.5 13 8.5 21c0 8.66699 -3.33301 16 -10 22c-34 32 -58.5 68.667 -73.5 110s-22.5 86 -22.5 134c0 45.333 6.16699 91.666 18.5 138.999
s28.833 92.666 49.5 135.999s44.5 83.5 71.5 120.5s55.167 67.833 84.5 92.5c7.33301 6 11 13.667 11 23z" />
    <glyph glyph-name="parenright" unicode=")" horiz-adv-x="370" 
d="M238 339c0 24.667 -2.49902 51.9961 -7.49902 81.9961s-13.167 59.333 -24.5 88s-26 55.334 -44 80.001s-39.667 44 -65 58c-4.66699 2.66699 -9.66699 4 -15 4c-9.33301 0 -16.666 -3.16699 -21.999 -9.5s-8 -13.166 -8 -20.499c0 -11.333 5 -20 15 -26
c18 -10 34 -24.667 48 -44s25.667 -40.833 35 -64.5s16.333 -48.334 21 -74.001s7 -50.167 7 -73.5c0 -40 -4.66699 -79.667 -14 -119s-23 -76.666 -41 -111.999s-40.167 -68.166 -66.5 -98.499s-56.166 -56.833 -89.499 -79.5c-8.66699 -6.66699 -13 -15 -13 -25
c0 -7.33301 2.66699 -14.166 8 -20.499s12.666 -9.5 21.999 -9.5c6 0 11.667 1.66699 17 5c37.333 25.333 70.666 55.166 99.999 89.499s54.166 71.333 74.499 111s35.833 81.334 46.5 125.001s16 88.167 16 133.5z" />
    <glyph glyph-name="asterisk" unicode="*" horiz-adv-x="397" 
d="M575 515c0 7.33301 -2.66895 14.1621 -8.00195 20.4951s-12.666 9.5 -21.999 9.5c-2 0 -9.66699 -0.833008 -23 -2.5s-30.5 -4 -51.5 -7l-72 -10l-84.5 -11.5l37 63.5c12 21 23.333 42.167 34 63.5c1.33301 2 2.33301 4 3 6s1 4.66699 1 8c0 8.66699 -3 15.834 -9 21.501
s-13 8.5 -21 8.5c-5.33301 0 -10.166 -1.16699 -14.499 -3.5s-8.16602 -6.5 -11.499 -12.5c-11.333 -22.667 -23.833 -45.667 -37.5 -69l-41.5 -71l-41 58.5l-39 59.5c-3.33301 5.33301 -7.5 9 -12.5 11s-9.5 3 -13.5 3c-8 0 -15 -2.83301 -21 -8.5s-9 -12.834 -9 -21.501
c0 -2 0.166992 -4.33301 0.5 -7s1.5 -5.66699 3.5 -9l39 -59l41 -58l-91.5 -13.5c-29 -4.33301 -55.5 -8.5 -79.5 -12.5c-7.33301 -1.33301 -13.333 -4.66602 -18 -9.99902s-7 -11.666 -7 -18.999c0 -6.66699 2.5 -13.5 7.5 -20.5s12.5 -10.5 22.5 -10.5
c2.66699 0 12 1.16699 28 3.5s34 5.16602 54 8.49902c14 2.66699 28.167 5.16699 42.5 7.5l40.5 6.5c-14 -26.667 -27 -53.167 -39 -79.5s-21.667 -52.166 -29 -77.499c-1.33301 -2.66699 -2 -5.66699 -2 -9c0 -9.33301 3.16699 -16.5 9.5 -21.5s13.166 -7.5 20.499 -7.5
c6 0 11.667 1.83301 17 5.5s9 9.16699 11 16.5c8 25.333 18 50.833 30 76.5s25 51.167 39 76.5l46 -68c14.667 -22.667 28.667 -46 42 -70c6 -10.667 14.667 -16 26 -16c8 0 15 2.83301 21 8.5s9 12.834 9 21.501c0 4.66699 -3.83301 13.834 -11.5 27.501
s-16.667 28.834 -27 45.501l-31.5 48.5l-25 36.5l127.5 17.5l114.5 15.5c9.33301 1.33301 16 5 20 11s6 12.333 6 19z" />
    <glyph glyph-name="plus" unicode="+" 
d="M455 223c0 7.33301 -2.50293 14.167 -7.50293 20.5s-12.5 9.5 -22.5 9.5h-192l31 72l34 82c1.33301 5.33301 2 9.33301 2 12c0 9.33301 -3.16699 16.666 -9.5 21.999s-13.166 8 -20.499 8c-13.333 0 -22.666 -6.33301 -27.999 -19
c-13.333 -34.667 -26.166 -66.167 -38.499 -94.5l-36.5 -82.5h-174c-10 0 -17.5 -3.16699 -22.5 -9.5s-7.5 -13.166 -7.5 -20.499s2.5 -14.166 7.5 -20.499s12.5 -9.5 22.5 -9.5h148l-33.5 -77.5l-36.5 -87.5c-1.33301 -5.33301 -2 -9.33301 -2 -12
c0 -9.33301 3.33301 -16.5 10 -21.5s13.667 -7.5 21 -7.5c12.667 0 21.667 6 27 18l42 100.5l38 87.5h218c10 0 17.5 3.16699 22.5 9.5s7.5 13.166 7.5 20.499z" />
    <glyph glyph-name="comma" unicode="," horiz-adv-x="240" 
d="M128 13c0 8 -1.50488 17.3271 -4.50488 27.9941s-7.5 20.834 -13.5 30.501s-13.333 17.834 -22 24.501s-18.667 10 -30 10c-10 0 -19.833 -3.33301 -29.5 -10s-14.5 -17 -14.5 -31c0 -12.667 3.83301 -22.334 11.5 -29.001s15.834 -10 24.501 -10
c4.66699 0 9.66699 1 15 3c2 -5.33301 3 -10.666 3 -15.999c0 -10 -2.16699 -20.667 -6.5 -32s-10.166 -22.166 -17.499 -32.499s-15.666 -20 -24.999 -29s-18.666 -15.833 -27.999 -20.5c-6 -3.33301 -10.167 -7.16602 -12.5 -11.499s-3.5 -9.16602 -3.5 -14.499
c0 -8 2.83301 -15 8.5 -21s12.834 -9 21.501 -9c3.33301 0 6 0.333008 8 1s4 1.66699 6 3c12.667 6.66699 25.5 15.834 38.5 27.501s24.833 25 35.5 40s19.167 30.833 25.5 47.5s9.5 33.667 9.5 51z" />
    <glyph glyph-name="hyphen" unicode="-" horiz-adv-x="385" 
d="M320 162c0 7.33301 -2.49805 14.1631 -7.49805 20.4961s-12.167 9.5 -21.5 9.5c-3.33301 0 -6.33301 -0.666992 -9 -2c-14 -4 -30.333 -7.83301 -49 -11.5s-38 -7.16699 -58 -10.5s-39.667 -6.16602 -59 -8.49902s-36.333 -4.16602 -51 -5.49902
c-9.33301 -1.33301 -16.333 -4.83301 -21 -10.5s-7 -12.167 -7 -19.5s2.66699 -14.166 8 -20.499s12.666 -9.5 21.999 -9.5c16 0 34.167 1.16699 54.5 3.5s41.166 5.5 62.499 9.5s41.833 8.33301 61.5 13s37.167 9.33398 52.5 14.001c7.33301 2 12.833 5.66699 16.5 11
s5.5 11 5.5 17z" />
    <glyph glyph-name="period" unicode="." horiz-adv-x="240" 
d="M107 34c0 7.33301 -2.66699 14.165 -8 20.498s-12.666 9.5 -21.999 9.5c-10.667 0 -21.5 -4 -32.5 -12s-16.5 -18 -16.5 -30c0 -7.33301 2.66699 -14.166 8 -20.499s12.666 -9.5 21.999 -9.5c12 0 23.167 3.33301 33.5 10s15.5 17.334 15.5 32.001z" />
    <glyph glyph-name="slash" unicode="/" horiz-adv-x="398" 
d="M410 618c0 8.66699 -3.16602 15.8281 -9.49902 21.4951s-13.5 8.5 -21.5 8.5c-8.66699 0 -16 -3.33301 -22 -10c-18 -21.333 -39.333 -50.5 -64 -87.5s-50.5 -78.167 -77.5 -123.5l-81.5 -142l-77 -143c-24 -46 -45 -88.167 -63 -126.5s-31.333 -69.166 -40 -92.499
c-2 -5.33301 -5.33301 -13.333 -10 -24l-14 -32.5c-4.66699 -11 -8.66699 -21.5 -12 -31.5s-5 -17.333 -5 -22c0 -9.33301 3.33301 -16.666 10 -21.999s13.667 -8 21 -8c5.33301 0 10.833 1.83301 16.5 5.5s9.5 9.16699 11.5 16.5c2.66699 10 5.66699 18.833 9 26.5
s6.5 15.334 9.5 23.001s6.16699 15.334 9.5 23.001s6.66602 16.167 9.99902 25.5c8 22 21 51.667 39 89l61.5 123.5l75 140l80 138.5l75 120c23.667 36 44.167 64 61.5 84c5.33301 6.66699 8 13.334 8 20.001z" />
    <glyph glyph-name="zero" unicode="0" horiz-adv-x="418" 
d="M386 309c0 18.667 -2.33691 37.3301 -7.00391 55.9971s-11.667 35.334 -21 50.001s-21.166 26.5 -35.499 35.5s-31.5 13.167 -51.5 12.5c-1.33301 6 -4.66602 11.333 -9.99902 16s-11.666 7 -18.999 7c-4.66699 0 -9.33398 -1 -14.001 -3
c-26.667 -14 -53.5 -34 -80.5 -60s-51.5 -54.833 -73.5 -86.5s-39.833 -64.5 -53.5 -98.5s-20.5 -66 -20.5 -96c0 -24 2.66699 -46.667 8 -68s13.333 -40 24 -56s23.834 -28.667 39.501 -38s33.834 -14 54.501 -14c26.667 0 51.5 5.5 74.5 16.5s44.167 25.833 63.5 44.5
s36.5 39.834 51.5 63.501s27.833 48.334 38.5 74.001s18.667 51 24 76s8 47.833 8 68.5zM325.996 308.996c0 -28 -5.50293 -58.332 -16.5029 -90.999s-25.667 -63.334 -44 -92.001s-39.5 -52.5 -63.5 -71.5s-49.333 -28.5 -76 -28.5c-16 0 -31 8.83301 -45 26.5
s-21 47.5 -21 89.5c0 14 2.66699 30.5 8 49.5s12.833 38.333 22.5 58s20.834 39.167 33.501 58.5s26.334 36.5 41.001 51.5s29.834 27.167 45.501 36.5s31.167 14 46.5 14c20 0 36.5 -8.5 49.5 -25.5s19.5 -42.167 19.5 -75.5z" />
    <glyph glyph-name="one" unicode="1" horiz-adv-x="332" 
d="M299 477c0 7.33301 -2.50098 14.002 -7.50098 20.002s-11.833 9 -20.5 9c-7.33301 0 -14.333 -2.66699 -21 -8c-38 -28.667 -76.833 -60.834 -116.5 -96.501s-78.834 -67.834 -117.501 -96.501c-8 -6 -12 -14 -12 -24c0 -7.33301 2.83301 -14.166 8.5 -20.499
s12.834 -9.5 21.501 -9.5c6.66699 0 12.667 2 18 6c23.333 17.333 46.833 36 70.5 56l71.5 61l-19 -49l-29 -74l-32.5 -85.5l-30 -83.5c-9 -26 -16.5 -48.667 -22.5 -68s-9 -32 -9 -38c0 -10 3.33301 -17.5 10 -22.5s13.334 -7.5 20.001 -7.5c6 0 11.667 1.66699 17 5
s9.33301 8.66602 12 15.999c12 40.667 23.833 77.334 35.5 110.001l35 95.5l36 94.5l40.5 108c6.66699 17.333 13.5 32.166 20.5 44.499s13.167 27.5 18.5 45.5c1.33301 5.33301 2 9.33301 2 12z" />
    <glyph glyph-name="two" unicode="2" horiz-adv-x="400" 
d="M338 24c0 6 -1.66797 11.667 -5.00098 17s-8.66602 9.33301 -15.999 12c-17.333 5.33301 -40 9 -68 11s-57 3 -87 3c-33.333 0 -63 -1 -89 -3l78 63l62.5 47.5c21.667 16.333 41.167 34.166 58.5 53.499s31.666 40.666 42.999 63.999s17 49.333 17 78s-8 53.167 -24 73.5
s-41.667 30.5 -77 30.5c-18.667 0 -39 -3.16699 -61 -9.5s-43.333 -15.166 -64 -26.499s-39.334 -24.833 -56.001 -40.5s-29.334 -32.5 -38.001 -50.5c-2 -5.33301 -3 -9.66602 -3 -12.999c0 -9.33301 3.33301 -16.666 10 -21.999s13.667 -8 21 -8
c5.33301 0 10.333 1.5 15 4.5s8.33398 7.16699 11.001 12.5c5.33301 12 14.333 23.5 27 34.5s26.834 20.833 42.501 29.5s32 15.667 49 21s32.5 8 46.5 8c15.333 0 26 -3.5 32 -10.5s9 -18.167 9 -33.5c0 -16 -2.66699 -30.833 -8 -44.5s-12.666 -26.667 -21.999 -39
s-20 -24.166 -32 -35.499s-24.333 -22 -37 -32l-118 -93c-39.333 -30.667 -77 -63.334 -113 -98.001c-6.66699 -6.66699 -10 -14.667 -10 -24c0 -8 2.66699 -14.833 8 -20.5s12.333 -8.5 21 -8.5c6 0 11.667 1.66699 17 5c6.66699 4 17 7.66699 31 11s30 6.16602 48 8.49902
s37.5 4.16602 58.5 5.49902s41.833 2 62.5 2c26 0 49.833 -1 71.5 -3s38.167 -5 49.5 -9c2 -0.666992 5.33301 -1 10 -1c9.33301 0 16.5 3.33301 21.5 10s7.5 13.334 7.5 20.001z" />
    <glyph glyph-name="three" unicode="3" horiz-adv-x="366" 
d="M304 361c0 36 -10.5059 64.165 -31.5059 84.498s-48.5 30.5 -82.5 30.5c-30 0 -57.667 -6.66699 -83 -20s-46.333 -30.666 -63 -51.999c-4.66699 -5.33301 -7 -11.666 -7 -18.999c0 -8.66699 3.16699 -15.834 9.5 -21.501s13.166 -8.5 20.499 -8.5
c9.33301 0 17 3.66699 23 11c12 15.333 26.667 27.5 44 36.5s36 13.5 56 13.5c36 0 54 -18.333 54 -55c0 -22.667 -5 -42.167 -15 -58.5s-23 -30 -39 -41s-34.5 -19.833 -55.5 -26.5s-42.5 -11.667 -64.5 -15c-12.667 0 -23.667 -2.5 -33 -7.5s-14 -13.167 -14 -24.5
c0 -8.66699 3 -16 9 -22s13.333 -9 22 -9c6 0 12 1 18 3c14.667 -1.33301 28.834 -4.83301 42.501 -10.5s25.667 -13 36 -22s18.5 -19.167 24.5 -30.5s9 -23.333 9 -36c0 -24.667 -4.66699 -47.167 -14 -67.5s-22 -37.666 -38 -51.999s-34.5 -25.5 -55.5 -33.5
s-42.833 -12 -65.5 -12c-17.333 0 -34.666 2.5 -51.999 7.5s-34.333 12.833 -51 23.5c-5.33301 3.33301 -10.666 5 -15.999 5c-9.33301 0 -16.666 -3.16699 -21.999 -9.5s-8 -13.166 -8 -20.499c0 -11.333 4.66699 -19.666 14 -24.999
c20.667 -13.333 42.334 -23.333 65.001 -30s45.667 -10 69 -10c29.333 0 58 5 86 15s53 24.5 75 43.5s39.667 42.5 53 70.5s20 59.667 20 95c0 26.667 -6.5 50.5 -19.5 71.5s-29.167 38.167 -48.5 51.5c17.333 7.33301 33.833 16.666 49.5 27.999s29.334 24.5 41.001 39.5
s20.834 31.667 27.501 50s10 38.166 10 59.499z" />
    <glyph glyph-name="four" unicode="4" horiz-adv-x="466" 
d="M427 512c0 9.33301 -3.16797 16.6699 -9.50098 22.0029s-13.166 8 -20.499 8c-6.66699 0 -12.667 -1.83301 -18 -5.5s-9 -9.16699 -11 -16.5l-197.5 -227l-206.5 -220c-8 -8 -12 -17.333 -12 -28c0 -8.66699 3 -15.5 9 -20.5s12.667 -7.5 20 -7.5
c6 0 11.667 1.66699 17 5l115.5 9c35 2.66699 69.833 4.66699 104.5 6l-33 -94c-9.33301 -26.667 -16.333 -45.334 -21 -56.001c-2 -4 -3 -8.33301 -3 -13c0 -9.33301 3.33301 -16.5 10 -21.5s13.667 -7.5 21 -7.5c5.33301 0 10.333 1.5 15 4.5s8.33398 7.5 11.001 13.5
c5.33301 12 13.666 33.833 24.999 65.5l39 110.5c17.333 0.666992 35.333 1 54 1h61c10 0 17.5 3.16699 22.5 9.5s7.5 13.166 7.5 20.499s-2.5 14.166 -7.5 20.499s-12.5 9.5 -22.5 9.5h-49c-15.333 0 -30.666 -0.333008 -45.999 -1l33 99.5l32 98l27.5 89.5
c8.33301 28 15.166 52 20.499 72l7.5 27c3 10.667 4.5 19.667 4.5 27zM330.999 384.004l-44.5 -138.999l-47.5 -147c-30 -1.33301 -59.167 -2.83301 -87.5 -4.5s-58.5 -3.83398 -90.5 -6.50098l136 147.5z" />
    <glyph glyph-name="five" unicode="5" horiz-adv-x="390" 
d="M422 436c0 7.33301 -2.66699 14.167 -8 20.5s-12.666 9.5 -21.999 9.5c-4.66699 0 -9.33398 -1 -14.001 -3c-13.333 -7.33301 -29.666 -12.166 -48.999 -14.499s-39.666 -3.5 -60.999 -3.5c-11.333 0 -22 0.166992 -32 0.5s-19.667 0.5 -29 0.5
c-15.333 0 -28.5 -1 -39.5 -3s-20.667 -5.16699 -29 -9.5s-15.833 -10.333 -22.5 -18s-13.667 -17.5 -21 -29.5l-15 -24.5l-21 -33.5c-3.33301 -5.33301 -7.66602 -13.166 -12.999 -23.499s-8 -20.5 -8 -30.5c0 -10.667 3.5 -19.334 10.5 -26.001s17.167 -10 30.5 -10
c22 0 43 -2.33301 63 -7s37.5 -11.334 52.5 -20.001s27 -19.167 36 -31.5s13.5 -26.166 13.5 -41.499c0 -25.333 -9.33301 -50 -28 -74s-41.667 -46.5 -69 -67.5s-56.333 -39.833 -87 -56.5s-57.667 -30.334 -81 -41.001c-6 -2.66699 -10.5 -6.33398 -13.5 -11.001
s-4.5 -9.66699 -4.5 -15c0 -7.33301 2.5 -14.333 7.5 -21s12.167 -10 21.5 -10c4.66699 0 9 1 13 3c16.667 7.33301 35.667 16.333 57 27s43.166 23 65.499 37s44.166 29.333 65.499 46s40.333 34.667 57 54s30.167 39.833 40.5 61.5s15.5 44.167 15.5 67.5
c0 26.667 -6.16699 49.667 -18.5 69s-28.166 35.333 -47.499 48s-40.5 22.334 -63.5 29.001s-45.167 11 -66.5 13l18.5 28.5l18.5 28.5c4.66699 7.33301 8.66699 13.166 12 17.499s7 7.5 11 9.5s9 3.33301 15 4s14 1 24 1c9.33301 0 19.166 -0.166992 29.499 -0.5
s21.166 -0.5 32.499 -0.5c22.667 0 46 1.33301 70 4s46.333 9.33398 67 20.001c10.667 6 16 15 16 27z" />
    <glyph glyph-name="six" unicode="6" horiz-adv-x="442" 
d="M432 604c0 7.33301 -2.66699 14.166 -8 20.499s-12.666 9.5 -21.999 9.5c-6 0 -10.667 -1.33301 -14 -4c-42.667 -23.333 -85.5 -49.333 -128.5 -78s-82 -61.334 -117 -98.001s-63.5 -78 -85.5 -124s-33 -98 -33 -156c0 -31.333 3.5 -58.833 10.5 -82.5
s16.667 -43.167 29 -58.5s26.666 -26.833 42.999 -34.5s34.166 -11.5 53.499 -11.5c24.667 0 49.167 6 73.5 18s46.333 28.833 66 50.5s35.667 47.667 48 78s18.5 63.833 18.5 100.5c0 18 -2.33301 35.167 -7 51.5s-11.667 31 -21 44s-21.5 23.333 -36.5 31
s-32.833 11.5 -53.5 11.5c-22 0 -44.167 -4.33301 -66.5 -13s-42.5 -20 -60.5 -34c14.667 28 32.834 54 54.501 78s45.5 46.333 71.5 67s53.5 39.834 82.5 57.501l86.5 50.5c10.667 4.66699 16 13.334 16 26.001zM306 233c0 -27.333 -4.66992 -52.5 -14.0029 -75.5
s-21 -42.833 -35 -59.5s-29.5 -29.5 -46.5 -38.5s-33.167 -13.5 -48.5 -13.5c-9.33301 0 -18.666 2.16699 -27.999 6.5s-17.666 11.5 -24.999 21.5s-13.333 23.167 -18 39.5s-7 36.5 -7 60.5c0 21.333 2 42 6 62c4 -2 8.33301 -3 13 -3c10.667 0 19 4.66699 25 14
c6 8.66699 13.333 17 22 25s18.334 15 29.001 21s21.5 10.667 32.5 14s21.833 5 32.5 5c21.333 0 37 -7.16699 47 -21.5s15 -33.5 15 -57.5z" />
    <glyph glyph-name="seven" unicode="7" horiz-adv-x="443" 
d="M444 378c0 7.33301 -2.33496 14.167 -7.00195 20.5s-12.334 9.5 -23.001 9.5c-42 0 -82.667 2.33301 -122 7s-80 7 -122 7c-17.333 0 -34.166 -0.666992 -50.499 -2s-31 -4.33301 -44 -9s-23.5 -11.334 -31.5 -20.001s-12 -20 -12 -34
c0 -10.667 4.33301 -20.834 13 -30.501s19 -14.5 31 -14.5c8 0 14 2.66699 18 8s6 11.333 6 18c0 7.33301 -2.33301 14.333 -7 21c1.33301 1.33301 5.83301 2.16602 13.5 2.49902s15.834 0.5 24.501 0.5h25h14c28.667 0 56.5 -1.33301 83.5 -4s54.5 -5 82.5 -7
c-40 -38 -76.167 -74.167 -108.5 -108.5s-62.666 -69.666 -90.999 -105.999s-55.333 -74.666 -81 -114.999s-51.5 -85.166 -77.5 -134.499c-1.33301 -2 -2.33301 -4 -3 -6s-1 -4.66699 -1 -8c0 -8.66699 3 -15.834 9 -21.501s13 -8.5 21 -8.5c11.333 0 20 5.33301 26 16
c18 34 35.167 64.5 51.5 91.5s33 53 50 78s35.333 49.833 55 74.5l66.5 81c21.333 24.667 43.333 47.834 66 69.501l69 64.5c7.33301 6.66699 14.833 12.5 22.5 17.5s15.167 10.833 22.5 17.5s11 15 11 25z" />
    <glyph glyph-name="eight" unicode="8" horiz-adv-x="460" 
d="M440 456c0 23.333 -4.49902 43.667 -13.499 61s-21 31.833 -36 43.5s-31.833 20.334 -50.5 26.001s-37.334 8.5 -56.001 8.5c-19.333 0 -38.166 -3 -56.499 -9s-35 -15 -50 -27s-27 -27.167 -36 -45.5s-13.5 -39.833 -13.5 -64.5c0 -11.333 1.83301 -22.5 5.5 -33.5
s8.5 -21.667 14.5 -32s12.5 -20.333 19.5 -30l20.5 -27.5c-22.667 -8 -45.167 -17.333 -67.5 -28s-42.5 -23.5 -60.5 -38.5s-32.5 -32.833 -43.5 -53.5s-16.5 -45.334 -16.5 -74.001c0 -29.333 4.33301 -54.666 13 -75.999s20 -38.833 34 -52.5s30.333 -23.834 49 -30.501
s38 -10 58 -10c22 0 44.333 4 67 12s43.167 19.5 61.5 34.5s33.166 33.167 44.499 54.5s17 45.333 17 72c0 32 -5.83301 61.5 -17.5 88.5s-25.167 51.833 -40.5 74.5c19.333 7.33301 38.166 15.5 56.499 24.5s34.833 19.5 49.5 31.5s26.334 26.333 35.001 43s13 36 13 58z
M380.001 456.001c0 -26 -12.001 -46.8291 -36.001 -62.4961s-56 -30.834 -96 -45.501l-17.5 21.5c-7 8.33301 -13.667 17.166 -20 26.499s-11.666 18.666 -15.999 27.999s-6.5 17.666 -6.5 24.999c0 14 2.66699 26.5 8 37.5s12.5 20.167 21.5 27.5s19.5 12.833 31.5 16.5
s24.333 5.5 37 5.5c25.333 0 47.333 -7 66 -21s28 -33.667 28 -59zM284 136.005c0 -16 -3.83203 -31.001 -11.499 -45.001s-17.5 -26 -29.5 -36s-25.833 -17.833 -41.5 -23.5s-31.5 -8.5 -47.5 -8.5c-12 0 -23.667 2 -35 6s-21.333 10.167 -30 18.5s-15.667 19.5 -21 33.5
s-8 31 -8 51s4.33301 37.167 13 51.5s20.5 27 35.5 38s32.667 21 53 30s42.166 17.5 65.499 25.5c16 -21.333 29.5 -43.166 40.5 -65.499s16.5 -47.5 16.5 -75.5z" />
    <glyph glyph-name="nine" unicode="9" horiz-adv-x="460" 
d="M388 325c0 51.333 -11.667 88.8359 -35 112.503s-52.333 35.5 -87 35.5c-25.333 0 -52 -6 -80 -18s-53.5 -28.333 -76.5 -49s-42 -44.334 -57 -71.001s-22.5 -55 -22.5 -85c0 -32.667 10.333 -59.167 31 -79.5s47.667 -30.5 81 -30.5c30 0 58 6.16699 84 18.5
s48.667 26.166 68 41.499c-20 -37.333 -46.5 -72.833 -79.5 -106.5s-68.5 -64.834 -106.5 -93.501s-76.667 -54.5 -116 -77.5s-75 -42.5 -107 -58.5c-10.667 -6 -16 -15 -16 -27c0 -7.33301 2.66699 -14.166 8 -20.499s12.666 -9.5 21.999 -9.5c4 0 8.66699 1 14 3
c28 14 59.333 31 94 51s69.5 42.5 104.5 67.5s69.167 52.167 102.5 81.5s62.833 60.666 88.5 93.999s46.334 68.5 62.001 105.5s23.5 75.5 23.5 115.5zM328 325.003c0 -5.33301 -0.167969 -10.8359 -0.500977 -16.5029s-0.833008 -11.167 -1.5 -16.5
c-4 1.33301 -6.66699 2 -8 2c-8 0 -16.667 -4.83301 -26 -14.5s-20.666 -20.5 -33.999 -32.5s-29.333 -22.833 -48 -32.5s-41.334 -14.5 -68.001 -14.5c-17.333 0 -30.333 4.5 -39 13.5s-13 21.167 -13 36.5c0 19.333 5.66699 38.833 17 58.5s25.5 37.334 42.5 53.001
s35.833 28.334 56.5 38.001s40 14.5 58 14.5c8.66699 0 16.834 -1.33301 24.501 -4s14.5 -7.5 20.5 -14.5s10.667 -16.167 14 -27.5s5 -25.666 5 -42.999z" />
    <glyph glyph-name="colon" unicode=":" horiz-adv-x="240" 
d="M120 210c14.667 6 24.1699 14.002 28.5029 24.002s5.16602 19.333 2.49902 28s-7.83398 15.5 -15.501 20.5s-16.167 5.5 -25.5 1.5c-10 -4 -18.5 -11.833 -25.5 -23.5s-8.16699 -23.167 -3.5 -34.5c3.33301 -6.66699 8.66602 -11.834 15.999 -15.501
s15 -3.83398 23 -0.500977zM107.003 34.002c0 7.33301 -2.66699 14.165 -8 20.498s-12.666 9.5 -21.999 9.5c-10.667 0 -21.5 -4 -32.5 -12s-16.5 -18 -16.5 -30c0 -7.33301 2.66699 -14.166 8 -20.499s12.666 -9.5 21.999 -9.5c12 0 23.167 3.33301 33.5 10
s15.5 17.334 15.5 32.001z" />
    <glyph glyph-name="semicolon" unicode=";" horiz-adv-x="240" 
d="M136 211c14.667 6 24.1689 14.167 28.502 24.5s5.16602 19.833 2.49902 28.5s-7.83398 15.5 -15.501 20.5s-16.167 5.5 -25.5 1.5c-10 -4.66699 -18.667 -12.667 -26 -24s-8.66602 -22.666 -3.99902 -33.999c3.33301 -7.33301 8.66602 -12.833 15.999 -16.5
s15.333 -3.83398 24 -0.500977zM138.002 -19c0 15.333 -2.5 30.334 -7.5 45.001s-11.333 27.834 -19 39.501s-16.5 21 -26.5 28s-20 10.5 -30 10.5c-15.333 0 -26.666 -4.66699 -33.999 -14s-11 -19 -11 -29c0 -7.33301 2.5 -15 7.5 -23s13.167 -12 24.5 -12
c8 0 14.667 2.66699 20 8c4.66699 -5.33301 8.5 -12.5 11.5 -21.5s4.5 -19.5 4.5 -31.5c0 -33.333 -8.83301 -61.333 -26.5 -84s-43.5 -42.334 -77.5 -59.001c-11.333 -6 -17 -15 -17 -27c0 -7.33301 2.66699 -14.166 8 -20.499s12.666 -9.5 21.999 -9.5c4.66699 0 9 1 13 3
c44 21.333 78 48.166 102 80.499s36 71.166 36 116.499z" />
    <glyph glyph-name="less" unicode="&#x3c;" 
d="M454 412c0 7.33301 -2.66895 14.1641 -8.00195 20.4971s-12.666 9.5 -21.999 9.5c-5.33301 0 -10.333 -1.33301 -15 -4l-46 -25.5l-61.5 -33l-70 -36l-70.5 -34.5l-63 -28.5c-19.333 -8.33301 -35 -14.166 -47 -17.499
c-5.33301 -1.33301 -10.666 -4.16602 -15.999 -8.49902s-8 -10.166 -8 -17.499c0 -4.66699 1.66699 -9.33398 5 -14.001s7.33301 -8.83398 12 -12.501s9.83398 -6.83398 15.501 -9.50098s10.5 -4.33398 14.5 -5.00098c15.333 -3.33301 34.166 -9.66602 56.499 -18.999
l71.5 -31l73 -33l59 -27c4 -2 8.33301 -3 13 -3c9.33301 0 16.5 3.33301 21.5 10s7.5 13.667 7.5 21c0 5.33301 -1.5 10.333 -4.5 15s-7.5 8.33398 -13.5 11.001l-107 48.5c-35.333 16.333 -71 31.833 -107 46.5c50 22.667 100 46.834 150 72.501s98.333 51.834 145 78.501
c10 6 15 14.667 15 26z" />
    <glyph glyph-name="equal" unicode="=" 
d="M436 343c0 6 -1.99609 12.168 -5.99609 18.501s-10.667 10.166 -20 11.499c-6 0.666992 -13.5 1.16699 -22.5 1.5s-19.167 0.5 -30.5 0.5c-22 0 -47.167 -0.666992 -75.5 -2s-56.5 -3 -84.5 -5s-54 -4.5 -78 -7.5s-42.333 -6.5 -55 -10.5
c-7.33301 -2 -12.833 -5.66699 -16.5 -11s-5.5 -11 -5.5 -17c0 -7.33301 2.5 -14.166 7.5 -20.499s12.167 -9.5 21.5 -9.5c2 0 11.667 1.16699 29 3.5s38.666 5 63.999 8s53.333 5.83301 84 8.5s60.667 4 90 4c11.333 0 22.666 -0.5 33.999 -1.5s22.666 -1.5 33.999 -1.5
c9.33301 0 16.666 3.16699 21.999 9.5s8 13.166 8 20.499zM397.004 149.001c0 6.66699 -2.33398 13.166 -7.00098 19.499s-11.667 9.83301 -21 10.5c-10.667 1.33301 -21.667 2 -33 2h-34c-39.333 0 -79.166 -1.16699 -119.499 -3.5s-79.166 -3.5 -116.499 -3.5h-35
c-10 0 -17.5 -3.16699 -22.5 -9.5s-7.5 -13.166 -7.5 -20.499s2.5 -14.166 7.5 -20.499s12.5 -9.5 22.5 -9.5h33c37.333 0 76.333 1.16699 117 3.5s80.667 3.5 120 3.5c11.333 0 22.333 -0.333008 33 -1s21.667 -1 33 -1c9.33301 0 16.666 3.16699 21.999 9.5
s8 13.166 8 20.499z" />
    <glyph glyph-name="greater" unicode="&#x3e;" 
d="M394 260c0 7.33301 -2.49707 13.334 -7.49707 18.001s-9.83301 8 -14.5 10l-31 12.5l-47.5 19l-56 21.5l-56 20c-17.667 6 -33.5 11 -47.5 15s-24 6 -30 6c-9.33301 0 -16.5 -3.16699 -21.5 -9.5s-7.5 -13.166 -7.5 -20.499c0 -5.33301 1.66699 -11 5 -17
s9 -10.333 17 -13c16.667 -4 34.167 -8.83301 52.5 -14.5s36.5 -11.667 54.5 -18s35.167 -12.833 51.5 -19.5l45.5 -19c-24 -18 -46.833 -34.333 -68.5 -49s-43.834 -28.834 -66.501 -42.501s-46.5 -27.167 -71.5 -40.5l-82.5 -42c-10.667 -4.66699 -16 -13 -16 -25
c0 -7.33301 2.66699 -14.333 8 -21s12.666 -10 21.999 -10c3.33301 0 6 0.333008 8 1s4 1.66699 6 3c35.333 16.667 67.166 32.667 95.499 48s55.5 31.166 81.5 47.499s52 33.833 78 52.5l85 63c3.33301 2.66699 6.5 6 9.5 10s4.5 8.66699 4.5 14z" />
    <glyph glyph-name="question" unicode="?" horiz-adv-x="411" 
d="M440 504c0 23.333 -4.16504 43.668 -12.498 61.001s-19.166 31.666 -32.499 42.999s-28.833 19.833 -46.5 25.5s-35.5 8.5 -53.5 8.5c-20 0 -40.333 -3.5 -61 -10.5s-39.334 -17.167 -56.001 -30.5s-30.167 -30 -40.5 -50s-15.5 -43.333 -15.5 -70
c0 -8.66699 1.16699 -18 3.5 -28s5.5 -19.333 9.5 -28s9 -15.834 15 -21.501s12.667 -8.5 20 -8.5c8 0 15.167 2.66699 21.5 8s9.5 12.666 9.5 21.999c0 4.66699 -1 8.83398 -3 12.501l-6.5 12c-2.33301 4.33301 -4.5 9 -6.5 14s-3 11.167 -3 18.5
c0 15.333 3.33301 29.166 10 41.499s15.334 22.833 26.001 31.5s22.834 15.334 36.501 20.001s27.5 7 41.5 7c23.333 0 43.166 -6.33301 59.499 -19s24.5 -32.334 24.5 -59.001c0 -23.333 -6 -42.666 -18 -57.999s-26.833 -28.833 -44.5 -40.5s-36.834 -22.5 -57.501 -32.5
s-39.834 -21.167 -57.501 -33.5s-32.5 -26.666 -44.5 -42.999s-18 -36.833 -18 -61.5c0 -17.333 3.16699 -32.666 9.5 -45.999s13.833 -25.666 22.5 -36.999c6 -8 13.667 -12 23 -12c8 0 15.167 2.66699 21.5 8s9.5 12.666 9.5 21.999c0 5.33301 -1.33301 10.166 -4 14.499
l-9 14c-3.33301 5 -6.33301 10.333 -9 16s-4 12.5 -4 20.5c0 10 2.66699 19.167 8 27.5s13 16.5 23 24.5c12.667 9.33301 26 17.5 40 24.5l41 21.5c14.667 8 29.667 17 45 27s29.166 21.667 41.499 35s22.333 28.833 30 46.5s11.5 38.5 11.5 62.5zM171.002 46.002
c0 14.667 -4.66797 26.166 -14.001 34.499s-19 12.5 -29 12.5c-7.33301 0 -14.166 -2.66699 -20.499 -8s-9.5 -13 -9.5 -23c0 -13.333 4.5 -24.666 13.5 -33.999s19.167 -14 30.5 -14c8.66699 0 15.667 3 21 9s8 13.667 8 23z" />
    <glyph glyph-name="at" unicode="@" horiz-adv-x="768" 
d="M688 248c0 38.667 -7.99512 73.3418 -23.9951 104.009s-37.167 56.5 -63.5 77.5s-56.333 37 -90 48s-67.834 16.5 -102.501 16.5c-53.333 0 -103.833 -9.83301 -151.5 -29.5s-89.5 -46.834 -125.5 -81.501s-64.5 -75.334 -85.5 -122.001s-31.5 -97 -31.5 -151
c0 -34 5.66699 -68.167 17 -102.5s27.833 -65 49.5 -92s47.667 -49 78 -66s64.5 -25.5 102.5 -25.5c30.667 0 60.834 3.16699 90.501 9.5s58.167 19.166 85.5 38.499c9.33301 5.33301 14 13.333 14 24c0 7.33301 -2.83301 14.166 -8.5 20.499s-12.5 9.5 -20.5 9.5
c-6.66699 0 -12.334 -2 -17.001 -6c-20.667 -14 -42.834 -23.5 -66.501 -28.5s-49.5 -7.5 -77.5 -7.5c-26.667 0 -51.334 6.33301 -74.001 19s-42.334 29.5 -59.001 50.5s-29.834 45 -39.501 72s-14.5 55.167 -14.5 84.5c0 44.667 8.83301 86.834 26.5 126.501
s41.667 74 72 103s65.666 52 105.999 69s83.5 25.5 129.5 25.5c30 0 58.333 -4.5 85 -13.5s50 -21.667 70 -38s35.833 -35.833 47.5 -58.5s17.5 -48 17.5 -76c0 -19.333 -2.66699 -38.833 -8 -58.5s-12.833 -38.167 -22.5 -55.5s-21 -33.5 -34 -48.5
s-27.167 -27.5 -42.5 -37.5c-14 -9.33301 -25 -14 -33 -14s-13.5 3.33301 -16.5 10s-4.5 15 -4.5 25c0 10.667 1.33301 23 4 37s5.83398 27.5 9.50098 40.5s7.33398 24.667 11.001 35s6.5 17.5 8.5 21.5c29.333 38 52 73.667 68 107c2 4.66699 3 9.66699 3 15
c0 8.66699 -3 15.667 -9 21s-12.667 8 -20 8c-8.66699 0 -16.667 -3.33301 -24 -10c-6 -6 -12 -12.833 -18 -20.5s-11.667 -15.834 -17 -24.501c-8.66699 7.33301 -18.167 12.333 -28.5 15s-20.5 4 -30.5 4c-27.333 0 -55.5 -6.16699 -84.5 -18.5s-55.667 -28.833 -80 -49.5
s-44.333 -44.834 -60 -72.501s-23.5 -56.834 -23.5 -87.501c0 -7.33301 0.666992 -16 2 -26s4.33301 -19.833 9 -29.5s11.167 -17.834 19.5 -24.501s19.5 -10 33.5 -10c16 0 31.5 3 46.5 9s29.667 13.833 44 23.5s27.833 20.167 40.5 31.5s24.334 22.666 35.001 33.999
c-0.666992 -5.33301 -1.83398 -12.333 -3.50098 -21s-2.5 -15.334 -2.5 -20.001c0 -9.33301 1.33301 -19.666 4 -30.999s7 -21.833 13 -31.5s13.5 -17.834 22.5 -24.501s19.833 -10 32.5 -10c9.33301 0 18.166 1.66699 26.499 5s15.833 6.66602 22.5 9.99902
c24 14 46.167 30.5 66.5 49.5s38 40.333 53 64s26.667 48.834 35 75.501s12.5 54.667 12.5 84zM451.005 242.008c-6.66699 -11.333 -17.666 -25.835 -32.999 -43.502s-32 -35.334 -50 -53.001s-35.333 -33.667 -52 -48s-29.667 -23.5 -39 -27.5c-8 -4 -14.333 -6 -19 -6
c-10.667 0 -16 9.33301 -16 28c0 20.667 5.5 40.834 16.5 60.501s25.333 37.334 43 53.001s37.167 28.334 58.5 38.001s42.666 14.5 63.999 14.5c12 0 19.5 -1.33301 22.5 -4s4.5 -6.66699 4.5 -12z" />
    <glyph glyph-name="A" unicode="A" horiz-adv-x="672" 
d="M692 154c0 8.66699 -3.33203 15.833 -9.99902 21.5s-13.667 8.5 -21 8.5c-8.66699 0 -16 -3.33301 -22 -10l-15.5 -16l-15.5 -16l-16 -16.5l-27 -29l-31.5 -33.5l-28.5 -29c-4.66699 -5.33301 -8.66699 -8 -12 -8c-4.66699 0 -7 4.33301 -7 13
c1.33301 30 5.66602 59.833 12.999 89.5l22 89.5c4.66699 -0.666992 9.66699 -1 15 -1h13c10 0 17.5 3.16699 22.5 9.5s7.5 13.166 7.5 20.499s-2.5 14.166 -7.5 20.499s-12.5 9.5 -22.5 9.5h-14l17 62.5c6 23 11.667 46.167 17 69.5c6.66699 27.333 12.5 52.833 17.5 76.5
s7.5 41.5 7.5 53.5c0 17.333 -2.5 31 -7.5 41s-12.833 15 -23.5 15c-18 0 -40.833 -8 -68.5 -24s-62.5 -39.333 -104.5 -70c-34 -25.333 -72.5 -56.166 -115.5 -92.499s-85.5 -76.5 -127.5 -120.5c-37.333 -2 -68.833 -5.16699 -94.5 -9.5s-46.5 -10.166 -62.5 -17.499
s-27.5 -16 -34.5 -26s-10.5 -21.333 -10.5 -34c0 -9.33301 1.83301 -19 5.5 -29s12.167 -15 25.5 -15c8 0 15 2.83301 21 8.5s9 12.834 9 21.501c0 2 -0.166992 4.16699 -0.5 6.5s-0.5 4.83301 -0.5 7.5c0 3.33301 5.16699 6.83301 15.5 10.5s31.833 6.16699 64.5 7.5
c-18 -21.333 -35.5 -44.166 -52.5 -68.499s-32.167 -49.666 -45.5 -75.999s-24.166 -53.333 -32.499 -81s-12.5 -55.5 -12.5 -83.5c0 -10 3.16699 -17.5 9.5 -22.5s13.166 -7.5 20.499 -7.5s14.166 2.5 20.499 7.5s9.5 12.5 9.5 22.5c0 27.333 5.16699 55.333 15.5 84
s23.666 56.834 39.999 84.501s34.833 54.5 55.5 80.5s41.334 49.667 62.001 71c9.33301 1.33301 18.666 2 27.999 2h29c38 0 76 -1.33301 114 -4l114 -8l-23 -98c-7.33301 -32.667 -11 -66 -11 -100c0 -6 1 -12.833 3 -20.5s5.33301 -14.834 10 -21.501
s10.834 -12.334 18.501 -17.001s16.834 -7 27.501 -7c6 0 13.5 2.5 22.5 7.5s18 11.167 27 18.5s17.5 14.666 25.5 21.999s14.333 13.666 19 18.999l51.5 55.5c17 19 34.5 37.167 52.5 54.5c2 2.66699 4 5.66699 6 9s3 7.33301 3 12zM533.001 524.999
c-1.33301 -12 -4.16699 -27.499 -8.5 -46.499l-14.5 -61.5l-18.5 -73.5c-6.33301 -24.333 -12.166 -45.5 -17.499 -63.5c-38.667 2 -78.5 4.5 -119.5 7.5s-80.167 4.5 -117.5 4.5l66 59.5l80.5 68l81 62.5c26.333 19.333 49.166 33.666 68.499 42.999z" />
    <glyph glyph-name="B" unicode="B" horiz-adv-x="578" 
d="M510 501c0 18 -2.99902 35.498 -8.99902 52.498s-15 31.833 -27 44.5s-27.167 22.834 -45.5 30.501s-39.833 11.5 -64.5 11.5c-16.667 0 -32.5 -1.83301 -47.5 -5.5s-29.5 -8.83398 -43.5 -15.501c-1.33301 7.33301 -4.83301 12.833 -10.5 16.5s-11.834 5.5 -18.501 5.5
c-6 0 -12.167 -2 -18.5 -6s-10.166 -10.667 -11.499 -20c-1.33301 -7.33301 -2.33301 -14.5 -3 -21.5s-1.66699 -14.167 -3 -21.5c-32 -30 -59.5 -67.167 -82.5 -111.5s-42 -90 -57 -137s-26.167 -93 -33.5 -138s-11 -83.167 -11 -114.5
c0 -21.333 2.83301 -39.833 8.5 -55.5s16.167 -23.5 31.5 -23.5c7.33301 0 14.333 2.16699 21 6.5s13 10 19 17s11.5 14.667 16.5 23s9.16699 16.5 12.5 24.5l14 34.5l14 34.5c26 66 47 133.333 63 202s29.667 138 41 208c15.333 12 31 21.333 47 28s33.333 10 52 10
c30.667 0 52.667 -7.66699 66 -23s20 -33.666 20 -54.999c0 -17.333 -4.33301 -34.833 -13 -52.5s-21 -32.834 -37 -45.501c-15.333 -11.333 -33 -20.666 -53 -27.999s-40.667 -13.333 -62 -18c-4.66699 0 -10.167 -1 -16.5 -3s-12.166 -4.5 -17.499 -7.5s-10 -7 -14 -12
s-6 -10.5 -6 -16.5c0 -8 2.83301 -14.5 8.5 -19.5s12.5 -7.5 20.5 -7.5c5.33301 0 10.666 0.666992 15.999 2l16 4c23.333 -0.666992 43.5 -4.5 60.5 -11.5s30.833 -16 41.5 -27s18.5 -23.667 23.5 -38s7.5 -29.166 7.5 -44.499c0 -18 -3.16699 -35.667 -9.5 -53
s-15.333 -32.833 -27 -46.5s-26 -24.667 -43 -33s-35.833 -12.5 -56.5 -12.5c-15.333 0 -30.833 3.5 -46.5 10.5s-31.167 14.5 -46.5 22.5c-3.33301 2.66699 -8 4 -14 4c-8.66699 0 -15.834 -3 -21.501 -9s-8.5 -13 -8.5 -21c0 -11.333 5.33301 -20 16 -26
c17.333 -9.33301 36 -18.5 56 -27.5s41.667 -13.5 65 -13.5c30.667 0 58.167 6.16699 82.5 18.5s45 28.166 62 47.499s29.833 41.333 38.5 66s13 49.334 13 74.001c0 30.667 -7 60 -21 88s-36 50.333 -66 67c13.333 6 25.666 13.333 36.999 22
c24.667 18 43.334 40.167 56.001 66.5s19 52.833 19 79.5zM187.001 447.998c-5.33301 -26.667 -11.5 -55 -18.5 -85s-14.833 -60.333 -23.5 -91s-18 -60.5 -28 -89.5s-20.667 -55.833 -32 -80.5c2 27.333 5.83301 56.333 11.5 87s13 61.167 22 91.5s19.333 59.833 31 88.5
s24.167 55 37.5 79z" />
    <glyph glyph-name="C" unicode="C" horiz-adv-x="497" 
d="M519 158c0 8 -2.83301 15 -8.5 21s-12.5 9 -20.5 9c-8.66699 0 -16 -3.33301 -22 -10l-32.5 -34c-11.667 -12 -22.5 -22.667 -32.5 -32c-15.333 -15.333 -33.333 -30.333 -54 -45s-42.334 -27.667 -65.001 -39s-45.334 -20.333 -68.001 -27s-44 -10 -64 -10
c-14 0 -27.333 2 -40 6s-23.5 10.833 -32.5 20.5s-16.167 22.5 -21.5 38.5s-8 36 -8 60c0 42.667 5.83301 83.334 17.5 122.001s27 74.5 46 107.5s40.5 62.833 64.5 89.5s48.5 49.5 73.5 68.5s49.5 33.5 73.5 43.5s45 15 63 15c16.667 0 29.834 -4.5 39.501 -13.5
s14.5 -24.5 14.5 -46.5c0 -17.333 -3 -33.833 -9 -49.5s-13.5 -30.834 -22.5 -45.501s-19 -28.667 -30 -42l-31.5 -39c-4.66699 -5.33301 -7 -11.666 -7 -18.999c0 -8.66699 3.16699 -15.834 9.5 -21.501s13.166 -8.5 20.499 -8.5c9.33301 0 17 3.66699 23 11l38 48
c12.667 16 24.167 32.667 34.5 50s18.666 35.5 24.999 54.5s9.5 39.5 9.5 61.5c0 40 -10.333 69.833 -31 89.5s-47 29.5 -79 29.5c-25.333 0 -52.666 -5.66699 -81.999 -17s-59 -27.5 -89 -48.5s-58.833 -46.5 -86.5 -76.5s-52.167 -63.667 -73.5 -101s-38.5 -78 -51.5 -122
s-19.5 -90.667 -19.5 -140c0 -33.333 4.33301 -61.5 13 -84.5s20.5 -41.833 35.5 -56.5s32.333 -25.334 52 -32.001s40.834 -10 63.501 -10c20.667 0 42 2.5 64 7.5s43.5 11.833 64.5 20.5s41.167 18.667 60.5 30s37 23.333 53 36c17.333 14 36.833 31 58.5 51
s40.834 40 57.501 60c4.66699 6.66699 7 13.334 7 20.001z" />
    <glyph glyph-name="D" unicode="D" horiz-adv-x="749" 
d="M676 330c0 36.667 -5.66406 71.998 -16.9971 105.998s-28.333 64 -51 90s-51 46.833 -85 62.5s-73.667 23.5 -119 23.5c-16.667 0 -33.5 -0.833008 -50.5 -2.5s-34.167 -4.5 -51.5 -8.5c-3.33301 4 -7.33301 7 -12 9s-9 3 -13 3c-6.66699 0 -12.834 -2 -18.501 -6
s-9.16699 -10 -10.5 -18l-3 -11c-7.33301 -3.33301 -14.166 -7.5 -20.499 -12.5s-12.5 -10.167 -18.5 -15.5c-20.667 -20 -39.334 -44.333 -56.001 -73s-31.5 -59.5 -44.5 -92.5s-24 -66.833 -33 -101.5s-16.5 -68.167 -22.5 -100.5s-10.5 -62.166 -13.5 -89.499
s-4.5 -50.333 -4.5 -69c0 -4 0.833008 -8.5 2.5 -13.5s4 -10 7 -15s6.66699 -9.16699 11 -12.5s9.5 -5 15.5 -5c9.33301 0 20.166 8 32.499 24s23.5 35 33.5 57c70 152.667 124.333 311.334 163 476.001c16 6.66699 33 11.167 51 13.5s36.667 3.5 56 3.5
c36 0 67.167 -6 93.5 -18s48.333 -28 66 -48s30.834 -43.333 39.501 -70s13 -55 13 -85c0 -39.333 -7.5 -78.333 -22.5 -117s-35.667 -73.334 -62 -104.001s-57.333 -55.334 -93 -74.001s-73.834 -28 -114.501 -28c-11.333 0 -24 1.33301 -38 4s-28 6 -42 10
s-26.833 8.5 -38.5 13.5s-20.834 10.167 -27.501 15.5c-5.33301 4.66699 -11.666 7 -18.999 7c-8.66699 0 -15.834 -3.16699 -21.501 -9.5s-8.5 -13.166 -8.5 -20.499c0 -8.66699 4 -16.667 12 -24s18.333 -14 31 -20s26.667 -11.333 42 -16s30.166 -8.5 44.499 -11.5
s27.5 -5.16699 39.5 -6.5s20.667 -2 26 -2c50 0 96.333 11.167 139 33.5s79.834 51.5 111.501 87.5s56.5 76.833 74.5 122.5s27 91.834 27 138.501zM218.003 467.998c-15.333 -55.333 -33.002 -112 -53.002 -170s-41.333 -113.667 -64 -167
c4 27.333 9.33301 56.166 16 86.499s14.834 60.333 24.501 90s20.834 58.334 33.501 86.001s27 52.5 43 74.5z" />
    <glyph glyph-name="E" unicode="E" horiz-adv-x="479" 
d="M504 160c0 10 -3.83398 17.002 -11.501 21.002s-14.167 6 -19.5 6c-10.667 0 -19.334 -3.66699 -26.001 -11c-18.667 -20.667 -39.167 -42.167 -61.5 -64.5s-46.166 -43.166 -71.499 -62.499c-36.667 -28 -69.667 -47.667 -99 -59s-53.666 -17 -72.999 -17
c-26 0 -45.667 8 -59 24s-20 36 -20 60c0 27.333 6.66699 51.833 20 73.5s30.5 41.167 51.5 58.5s44.167 32.666 69.5 45.999s50.333 25.333 75 36c7.33301 2 14 4 20 6s12 3.66699 18 5c15.333 5.33301 23 15.333 23 30c0 7.33301 -2.83301 14 -8.5 20s-13.167 9 -22.5 9
c-7.33301 0 -14.833 -1.16699 -22.5 -3.5s-14.167 -4.83301 -19.5 -7.5c-10.667 -3.33301 -21.167 -5.83301 -31.5 -7.5s-20.833 -2.5 -31.5 -2.5c-34.667 0 -58.5 6.66699 -71.5 20s-19.5 28.666 -19.5 45.999c0 26.667 7.33301 51 22 73s32.834 40.833 54.501 56.5
s44.834 27.834 69.501 36.501s47 13 67 13c19.333 0 31.5 -2.83301 36.5 -8.5s7.5 -11.167 7.5 -16.5c0 -8.66699 -1.83301 -16.167 -5.5 -22.5s-7.83398 -12.333 -12.501 -18s-8.83398 -11 -12.501 -16s-5.5 -10.5 -5.5 -16.5c0 -8 3 -15 9 -21s13 -9 21 -9s15 3 21 9
c14 14 25 29.333 33 46s12 33 12 49c0 24 -9 43.833 -27 59.5s-44 23.5 -78 23.5c-26.667 0 -55.834 -5.5 -87.501 -16.5s-61 -26.833 -88 -47.5s-49.667 -46 -68 -76s-27.5 -64 -27.5 -102c0 -27.333 7.66699 -51.333 23 -72s39 -35.334 71 -44.001
c-19.333 -11.333 -37.833 -23.5 -55.5 -36.5s-33.167 -28 -46.5 -45s-24.166 -36.167 -32.499 -57.5s-12.5 -45.333 -12.5 -72c0 -18.667 2.83301 -36.667 8.5 -54s14.167 -32.5 25.5 -45.5s25.5 -23.5 42.5 -31.5s36.833 -12 59.5 -12c28 0 60 7 96 21s75 37 117 69
c28 21.333 54 44.166 78 68.499l68 71.5c5.33301 5.33301 8 11.333 8 18z" />
    <glyph glyph-name="F" unicode="F" horiz-adv-x="482" 
d="M481 294c0 7.33301 -2.16113 13.6689 -6.49414 19.002s-11.166 8 -20.499 8c-4.66699 0 -8.83398 -0.833008 -12.501 -2.5s-6.16699 -2.5 -7.5 -2.5h-60h-16c-6 0 -12 -0.333008 -18 -1c14 44 28.667 87.333 44 130s31.666 83 48.999 121c2 4 3 8.33301 3 13
c0 11.333 -4.33301 19.166 -13 23.499s-15.667 6.5 -21 6.5c-20.667 0 -41 0.166992 -61 0.5s-40.333 0.5 -61 0.5c-34 0 -69.667 -3.5 -107 -10.5s-71.833 -19.167 -103.5 -36.5s-57.834 -40.5 -78.501 -69.5s-31 -65.167 -31 -108.5c0 -6 0.5 -15 1.5 -27
s3.16699 -24 6.5 -36s7.66602 -22.5 12.999 -31.5s12.666 -13.5 21.999 -13.5c7.33301 0 14.333 2.66699 21 8s10 12.666 10 21.999c0 3.33301 -1 7.66602 -3 12.999c-4.66699 10 -7.66699 19.833 -9 29.5s-2 21.5 -2 35.5c0 28.667 7.16699 53.334 21.5 74.001
s33.5 37.667 57.5 51s51.667 23.333 83 30s64 10 98 10h59h22c-16 -37.333 -30.833 -76.166 -44.5 -116.499l-40.5 -120.5c-28 -2.66699 -55.167 -6.5 -81.5 -11.5s-50.166 -12.833 -71.499 -23.5c-11.333 -6 -17 -15 -17 -27c0 -7.33301 2.66699 -14.166 8 -20.499
s12.666 -9.5 21.999 -9.5c4.66699 0 9 1 13 3c14 7.33301 30 13 48 17s37.333 7 58 9l-19.5 -58c-7.66699 -22.667 -16.167 -46.5 -25.5 -71.5s-19.833 -50.167 -31.5 -75.5s-24 -48.833 -37 -70.5s-27 -40.5 -42 -56.5s-30.5 -26.667 -46.5 -32
c-6.66699 -2 -11.667 -5.66699 -15 -11s-5 -11 -5 -17c0 -6.66699 2.5 -13.334 7.5 -20.001s12.167 -10 21.5 -10c5.33301 0 9 0.666992 11 2c21.333 7.33301 41.5 20.166 60.5 38.499s36.5 39.833 52.5 64.5s30.667 51.5 44 80.5s25.5 58 36.5 87s21 56.833 30 83.5
l23.5 71c9.33301 0 18.666 0.166992 27.999 0.5s17.666 0.5 24.999 0.5h61c14 0 25.333 3.83301 34 11.5s13 16.5 13 26.5z" />
    <glyph glyph-name="G" unicode="G" horiz-adv-x="601" 
d="M628 167c0 7.33301 -2.49902 13.6641 -7.49902 18.9971s-11.5 8 -19.5 8c-11.333 0 -20.666 -4.66699 -27.999 -14c-2 -2.66699 -4.66699 -5.83398 -8 -9.50098s-7 -7.5 -11 -11.5c-43.333 -44.667 -89 -87.334 -137 -128.001l15 37.5l13 33.5l15 36.5
c4.66699 11.667 10.334 23.167 17.001 34.5c4.66699 5.33301 8.5 10.833 11.5 16.5s6.5 11.167 10.5 16.5c5.33301 5.33301 8 12.333 8 21c0 6.66699 -2.33301 13.334 -7 20.001s-12 10 -22 10c-6.66699 0 -12.834 -2 -18.501 -6s-9.83398 -9.66699 -12.501 -17
c-3.33301 -9.33301 -9 -19 -17 -29l-24 -29c-18 -19.333 -39.667 -39.333 -65 -60s-52 -39.667 -80 -57s-56.333 -31.5 -85 -42.5s-55.334 -16.5 -80.001 -16.5c-15.333 0 -28.166 9.33301 -38.499 28s-15.5 43.334 -15.5 74.001s4.83301 61.834 14.5 93.501
s23.167 62.334 40.5 92.001s37.666 57.5 60.999 83.5s49 48.667 77 68s57.333 34.666 88 45.999s62 17 94 17c15.333 0 26 -1.83301 32 -5.5s9 -9.16699 9 -16.5c0 -9.33301 -2 -18.333 -6 -27s-6 -17.667 -6 -27s3.33301 -16.5 10 -21.5s13.334 -7.5 20.001 -7.5
c6 0 11.667 3.5 17 10.5s9.83301 15.167 13.5 24.5s6.5 18.666 8.5 27.999s3 16 3 20c0 16.667 -3 30.334 -9 41.001s-13.833 19 -23.5 25s-20.5 10.167 -32.5 12.5s-24 3.5 -36 3.5c-38 0 -75 -6.33301 -111 -19s-70.167 -30 -102.5 -52s-62 -47.833 -89 -77.5
s-50.333 -61.5 -70 -95.5s-35 -69.5 -46 -106.5s-16.5 -73.5 -16.5 -109.5c0 -14 1.66699 -30.167 5 -48.5s9.16602 -36 17.499 -53s19.833 -31.333 34.5 -43s33.667 -17.5 57 -17.5c26 0 51.167 3.83301 75.5 11.5s48 17.5 71 29.5s45 25.667 66 41s41.167 31 60.5 47
l-24 -58c-8 -19.333 -16.667 -38.666 -26 -57.999c-7.33301 -6 -14.5 -11.5 -21.5 -16.5l-19.5 -13.5c-19.333 -13.333 -41.333 -27 -66 -41s-48 -29.667 -70 -47s-40.5 -36.833 -55.5 -58.5s-22.5 -46.5 -22.5 -74.5c0 -19.333 5.5 -33.666 16.5 -42.999
s24.167 -14 39.5 -14c30 0 57.667 9.83301 83 29.5s48.5 43.667 69.5 72s39.333 58.333 55 90l40.5 83.5l48 36.5l54 43l52.5 44.5c17 14.667 31.5 28.667 43.5 42l29 30c10 10 19.333 20.667 28 32c2.66699 3.33301 4.16699 6.83301 4.5 10.5s0.5 6.5 0.5 8.5z
M268.001 -150.002c-8 -15.333 -17.332 -31.5 -27.999 -48.5s-22 -32.667 -34 -47s-24.5 -26.333 -37.5 -36s-26.167 -14.5 -39.5 -14.5c-3.33301 0 -5 2 -5 6c0 14.667 6.66699 29.834 20 45.501s31 31.5 53 47.5c11.333 9.33301 23.166 17.666 35.499 24.999z" />
    <glyph glyph-name="H" unicode="H" horiz-adv-x="699" 
d="M722 158c0 8.66699 -3 16 -9 22s-13 9 -21 9c-9.33301 0 -16.833 -3.33301 -22.5 -10s-11.167 -12.667 -16.5 -18l-42.5 -44c-18.333 -19.333 -37.833 -38.666 -58.5 -57.999s-41.167 -36.166 -61.5 -50.499s-37.5 -21.5 -51.5 -21.5
c-6.66699 0 -10.834 1.16699 -12.501 3.5s-2.5 6.16602 -2.5 11.499c0 4.66699 1 10.667 3 18c8 29.333 17.5 62.166 28.5 98.499l34.5 112.5h34c10 0 17.5 3.16699 22.5 9.5s7.5 13.166 7.5 20.499s-2.5 14.166 -7.5 20.499s-12.5 9.5 -22.5 9.5h-14l28 85l25.5 75l20 58
l12.5 35c1.33301 2.66699 2 6.66699 2 12c0 9.33301 -3.16699 16.5 -9.5 21.5s-13.166 7.5 -20.499 7.5c-6 0 -11.5 -1.5 -16.5 -4.5s-8.83301 -7.83301 -11.5 -14.5c-3.33301 -8 -8.16602 -21 -14.499 -39l-22 -64l-27.5 -81.5l-30 -91.5
c-42 -1.33301 -83.5 -3.16602 -124.5 -5.49902s-82.833 -6.16602 -125.5 -11.499l36 89l36 89l11 31c3.33301 9.33301 5 17.333 5 24c0 20.667 -7.33301 34.834 -22 42.501s-30.667 11.5 -48 11.5c-26.667 0 -55.834 -4.33301 -87.501 -13s-61.167 -21.5 -88.5 -38.5
s-50.166 -38.167 -68.499 -63.5s-27.5 -55 -27.5 -89c0 -17.333 2.33301 -35.333 7 -54s10.667 -34.667 18 -48c5.33301 -11.333 14.333 -17 27 -17c7.33301 0 14.166 2.66699 20.499 8s9.5 12.666 9.5 21.999c0 4.66699 -1 9 -3 13c-5.33301 10.667 -9.83301 23 -13.5 37
s-5.5 27 -5.5 39c0 20.667 6.5 39.667 19.5 57s29.167 32.333 48.5 45s40.666 23 63.999 31s45.333 12.667 66 14c2 0.666992 5 1 9 1c6.66699 0 10 -2 10 -6c0 -1.33301 -0.333008 -3.16602 -1 -5.49902s-1.33398 -5.16602 -2.00098 -8.49902
c-4.66699 -16 -11.167 -33 -19.5 -51s-15.166 -33.667 -20.499 -47c-2 -4.66699 -7 -17.834 -15 -39.501l-28.5 -77.5l-35.5 -97l-34.5 -98c-10.333 -30.667 -19 -57.5 -26 -80.5s-10.5 -37.833 -10.5 -44.5c0 -8.66699 2.66699 -15.334 8 -20.001s11.666 -7 18.999 -7
c6.66699 0 12.5 1.83301 17.5 5.5s9.16699 8.16699 12.5 13.5s6 11 8 17s3 11.333 3 16c11.333 30.667 22.833 66 34.5 106s26.167 83.667 43.5 131c42.667 5.33301 85.167 9.5 127.5 12.5s84.833 5.16699 127.5 6.5l-32.5 -104.5
c-10.333 -33.667 -19.166 -64.5 -26.499 -92.5c-3.33301 -13.333 -5 -26 -5 -38c0 -17.333 5.16699 -32.833 15.5 -46.5s28.5 -20.5 54.5 -20.5c22 0 45 7 69 21s47.833 31 71.5 51s45.834 40.833 66.501 62.5l54 56.5l18 18c6.66699 6.66699 10 13.667 10 21z" />
    <glyph glyph-name="I" unicode="I" horiz-adv-x="381" 
d="M348 564c0 22.667 -6.50098 37.666 -19.501 44.999s-27.833 11 -44.5 11c-47.333 0 -88.833 -9.83301 -124.5 -29.5s-65.5 -45.167 -89.5 -76.5s-42 -67.166 -54 -107.499s-18 -80.833 -18 -121.5c0 -30 3.16699 -59.833 9.5 -89.5s16.166 -57.5 29.499 -83.5
c2.66699 -5.33301 6.33398 -9.5 11.001 -12.5s9.66699 -4.5 15 -4.5c7.33301 0 14.333 2.66699 21 8s10 12.666 10 21.999c0 4 -1 8.66699 -3 14c-11.333 21.333 -19.666 44.5 -24.999 69.5s-8 50.5 -8 76.5c0 34.667 4.5 68.5 13.5 101.5s23 62.333 42 88
s42.833 46.334 71.5 62.001s63 23.5 103 23.5c-0.666992 -20 -5.33398 -47.667 -14.001 -83s-19 -72.166 -31 -110.499s-24.333 -75 -37 -110s-23 -62.167 -31 -81.5l-32 -72.5c-11.333 -25 -24.333 -48.667 -39 -71s-31.667 -42.5 -51 -60.5s-42 -31.333 -68 -40
c-7.33301 -2 -12.666 -5.66699 -15.999 -11s-5 -11 -5 -17c0 -6.66699 2.5 -13.334 7.5 -20.001s12.167 -10 21.5 -10c4.66699 0 8.33398 0.666992 11.001 2c31.333 10 58.5 25 81.5 45s43.167 42.5 60.5 67.5s32.666 51.667 45.999 80l38 83.5
c5.33301 12 11.833 28.333 19.5 49l24.5 69.5l26.5 80.5c9 28 17 55.333 24 82s12.667 51.5 17 74.5s6.5 42.167 6.5 57.5z" />
    <glyph glyph-name="J" unicode="J" horiz-adv-x="398" 
d="M426 162c0 8.66699 -2.99902 16.0029 -8.99902 22.0029s-13 9 -21 9c-9.33301 0 -16.666 -3.66699 -21.999 -11c-17.333 -19.333 -35.833 -37 -55.5 -53s-40.167 -31.667 -61.5 -47l33.5 89c11.667 32 22.167 64.333 31.5 97s17 65 23 97s9 62 9 90
c0 18.667 -1.83301 36.667 -5.5 54s-9.83398 32.333 -18.501 45s-20.167 22.834 -34.5 30.501s-32.166 11.5 -53.499 11.5c-48 0 -88.667 -10 -122 -30s-60.5 -45.833 -81.5 -77.5s-36.167 -67.167 -45.5 -106.5s-14 -78.666 -14 -117.999c0 -30 2.33301 -58.833 7 -86.5
s11.667 -52.834 21 -75.501c5.33301 -13.333 14.666 -20 27.999 -20c7.33301 0 14.333 2.5 21 7.5s10 12.167 10 21.5v4c0 2 -0.666992 4.33301 -2 7c-7.33301 19.333 -13.333 41.5 -18 66.5s-7 51.5 -7 79.5c0 34.667 3.66699 68 11 100s18.833 60.5 34.5 85.5s36 45 61 60
s55.5 22.5 91.5 22.5c38.667 0 58 -28.333 58 -85c0 -30 -4.33301 -63.833 -13 -101.5s-19.5 -75.834 -32.5 -114.501s-26.833 -76.5 -41.5 -113.5l-41 -99.5c-22 -12.667 -48.833 -26.667 -80.5 -42s-62.167 -32.833 -91.5 -52.5s-54.5 -41.834 -75.5 -66.501
s-31.5 -52.334 -31.5 -83.001c0 -21.333 6.33301 -40.5 19 -57.5s31 -25.5 55 -25.5c19.333 0 38.333 5.33301 57 16s36.5 24.5 53.5 41.5s33 36.167 48 57.5s28.667 42.666 41 63.999s23.333 41.666 33 60.999s17.167 35.333 22.5 48c36 22 71.167 46 105.5 72
s66.166 55 95.499 87c5.33301 6.66699 8 13.334 8 20.001zM122.001 -71.9971c-9.33301 -18 -20.333 -37.1689 -33 -57.502s-26 -39 -40 -56s-28.333 -31 -43 -42s-28.667 -16.5 -42 -16.5c-11.333 0 -17 6.66699 -17 20c0 16.667 7.5 33.334 22.5 50.001
s35.167 33.334 60.5 50.001c15.333 10 31 19.333 47 28z" />
    <glyph glyph-name="K" unicode="K" horiz-adv-x="594" 
d="M628 175c0 8.66699 -2.83594 14.8291 -8.50293 18.4961s-12.167 5.5 -19.5 5.5c-4.66699 0 -9.5 -0.833008 -14.5 -2.5s-9.83301 -5.16699 -14.5 -10.5l-20 -21.5l-24 -25l-22.5 -24c-7 -7.66699 -12.5 -13.5 -16.5 -17.5c-7.33301 -7.33301 -17.333 -18 -30 -32
s-26.167 -27.667 -40.5 -41s-28.833 -25 -43.5 -35s-27.334 -15 -38.001 -15c-8 0 -15.833 5 -23.5 15s-15.167 22.667 -22.5 38s-14.333 32.5 -21 51.5s-12.667 37.167 -18 54.5s-9.83301 33.166 -13.5 47.499s-6.5 24.833 -8.5 31.5c-3.33301 12 -6.83301 23.333 -10.5 34
s-7.16699 20 -10.5 28c28.667 12 60.834 29 96.501 51s70.834 46.5 105.501 73.5s66.667 54.833 96 83.5s51.666 55.334 66.999 80.001c1.33301 3.33301 3.33301 7.5 6 12.5s4 10.5 4 16.5c0 8 -2.66699 14.5 -8 19.5s-12.666 7.5 -21.999 7.5
c-11.333 0 -20 -5.33301 -26 -16c-10.667 -19.333 -28.5 -41.833 -53.5 -67.5s-53.333 -51.167 -85 -76.5s-64.5 -49.166 -98.5 -71.499s-65 -39.833 -93 -52.5c14.667 32 27 62.833 37 92.5s15 57.834 15 84.501c0 16 -1.5 32 -4.5 48s-5.83301 32 -8.5 48
c-2 8.66699 -6.16699 14.834 -12.5 18.501s-12.166 5.5 -17.499 5.5c-11.333 0 -19.166 -3.33301 -23.499 -10s-6.5 -13.334 -6.5 -20.001c0 -2 0.166992 -4 0.5 -6s0.5 -4 0.5 -6c3.33301 -13.333 6.16602 -26.333 8.49902 -39s3.5 -25.667 3.5 -39
c0 -28 -8.16699 -61.333 -24.5 -100s-36.833 -82 -61.5 -130l-82.5 -158c-27 -52 -51.167 -106 -72.5 -162c-7.33301 -19.333 -9.16602 -34.166 -5.49902 -44.499s9.33398 -16.833 17.001 -19.5s15.834 -2.16699 24.501 1.5s14 9.83398 16 18.501
c8.66699 29.333 19 57.833 31 85.5s24.667 55 38 82s27.333 53.833 42 80.5l42 80c3.33301 -8 6.66602 -16.833 9.99902 -26.5s6.66602 -20.167 9.99902 -31.5l16.5 -58c5.66699 -20 12.167 -39.667 19.5 -59c6 -18.667 13 -37.167 21 -55.5s17.167 -35 27.5 -50
s22 -27.167 35 -36.5s27.5 -14 43.5 -14c15.333 0 31 3.83301 47 11.5s31.333 17.167 46 28.5s28.167 23 40.5 35s22.5 22.667 30.5 32l25.5 27.5l30 32.5l31 33.5l28.5 31.5c2.66699 2.66699 5.5 6.5 8.5 11.5s4.5 10.5 4.5 16.5z" />
    <glyph glyph-name="L" unicode="L" horiz-adv-x="662" 
d="M690 160c0 8.66699 -3.33008 15.8281 -9.99707 21.4951s-13.667 8.5 -21 8.5c-3.33301 0 -7.5 -0.833008 -12.5 -2.5s-9.16699 -4.5 -12.5 -8.5c-7.33301 -8 -12.833 -14.167 -16.5 -18.5s-7.16699 -8.16602 -10.5 -11.499s-6.5 -6.16602 -9.5 -8.49902
s-7.5 -6.16602 -13.5 -11.499c-32 -28 -61 -46.833 -87 -56.5s-51.333 -14.5 -76 -14.5c-16 0 -32.167 1.5 -48.5 4.5s-33.5 6.83301 -51.5 11.5c-15.333 3.33301 -31 7 -47 11s-33 7.66699 -51 11c27.333 46.667 51.666 96.5 72.999 149.5s40 101.833 56 146.5l53.5 38
c22.333 16 44.333 34 66 54s40.334 41 56.001 63s23.5 43.667 23.5 65c0 16.667 -4.83301 31.5 -14.5 44.5s-24.5 19.5 -44.5 19.5c-18 0 -34.667 -4.33301 -50 -13s-29.333 -20 -42 -34s-24.167 -30 -34.5 -48s-19.666 -36.333 -27.999 -55s-15.833 -37 -22.5 -55l-18 -48
c-20 -13.333 -40 -26 -60 -38l-57.5 -33.5l-51.5 -28l-41 -21.5c-12.667 -5.33301 -19 -14.666 -19 -27.999c0 -6.66699 2.5 -12.667 7.5 -18s11.5 -8 19.5 -8c5.33301 0 10.333 1.33301 15 4l68 35.5c27.333 14.333 56.333 31.166 87 50.499
c-14.667 -40.667 -30.167 -80.667 -46.5 -120s-35.833 -77 -58.5 -113c-9.33301 0.666992 -18.833 1.16699 -28.5 1.5s-19.834 0.5 -30.501 0.5c-12 0 -27.333 -1.16699 -46 -3.5s-36.5 -7.33301 -53.5 -15s-31.667 -18.167 -44 -31.5s-18.5 -31 -18.5 -53
c0 -19.333 6.66699 -36.666 20 -51.999s30.666 -23 51.999 -23c36 0 68.667 10.833 98 32.5s55.666 48.834 78.999 81.501c22 -3.33301 42.833 -7.33301 62.5 -12l57.5 -14c19.333 -4.66699 38.833 -8.83398 58.5 -12.501s39.167 -5.5 58.5 -5.5
c30.667 0 61.667 5.83301 93 17.5s65.333 32.5 102 62.5c11.333 10 22.166 20.333 32.499 31l30.5 33c4.66699 4.66699 7 10.334 7 17.001zM491.003 607.994c0 -9.33301 -3.33594 -19.165 -10.0029 -29.498s-15.167 -21 -25.5 -32s-21.666 -21.833 -33.999 -32.5
s-24.5 -20.334 -36.5 -29.001c4.66699 12.667 10.334 26.667 17.001 42s14.334 29.666 23.001 42.999s18.167 24.333 28.5 33s21.5 13 33.5 13c2.66699 0 4 -2.66699 4 -8zM121 48.9951c-16 -19.333 -32.668 -34.3359 -50.001 -45.0029s-34.666 -16 -51.999 -16
c-7.33301 0 -12.666 1.83301 -15.999 5.5s-5 8.16699 -5 13.5c0 10.667 3.66699 18.834 11 24.501s16.166 9.83398 26.499 12.501s20.833 4.33398 31.5 5.00098s19.667 1 27 1h14c4.66699 0 9 -0.333008 13 -1z" />
    <glyph glyph-name="M" unicode="M" horiz-adv-x="907" 
d="M934 167c0 7.33301 -2.32422 13.835 -6.99121 19.502s-11 8.5 -19 8.5c-4.66699 0 -8.83398 -0.333008 -12.501 -1s-7.16699 -3 -10.5 -7l-34.5 -37.5c-11.667 -13 -22.167 -24.167 -31.5 -33.5c-4 -3.33301 -11 -10 -21 -20l-32 -30.5
c-11.333 -10.333 -22 -19.5 -32 -27.5s-17 -12 -21 -12c-1.33301 0 -2.5 1.5 -3.5 4.5s-1.5 10.5 -1.5 22.5c0 22.667 4 47.5 12 74.5s17.667 54.5 29 82.5s23.166 55.167 35.499 81.5s22.833 50.166 31.5 71.499c6 13.333 11.167 26.333 15.5 39s6.5 23.334 6.5 32.001
c0 6.66699 -0.5 15 -1.5 25s-3.83301 19.5 -8.5 28.5s-11.834 16.833 -21.501 23.5s-22.834 10 -39.501 10c-16 0 -32.5 -4.5 -49.5 -13.5s-33.5 -20.167 -49.5 -33.5s-31 -27.333 -45 -42s-26 -28 -36 -40l-8 -9c8.66699 21.333 15.667 41.666 21 60.999s8 35.666 8 48.999
c0 6.66699 -0.833008 15 -2.5 25s-5 19.833 -10 29.5s-12.167 18 -21.5 25s-21.666 10.5 -36.999 10.5s-32 -5 -50 -15s-36.5 -23 -55.5 -39s-37.5 -33.833 -55.5 -53.5l-51.5 -58c-16.333 -19 -30.833 -37 -43.5 -54l-30 -40.5c-14 -19.333 -27.333 -38.666 -40 -57.999
l-38 -58c3.33301 5.33301 6.33301 11 9 17s5.66699 11.667 9 17l50 93c16 30 29 56.667 39 80c4 10.667 8.16699 20.334 12.5 29.001s8.33301 17.334 12 26.001s6.5 17.834 8.5 27.501s3 20.5 3 32.5s-2.33301 22 -7 30s-10.667 14.333 -18 19s-15.333 8 -24 10
s-16.667 3 -24 3c-26.667 0 -52.5 -4.16699 -77.5 -12.5s-48.5 -19.333 -70.5 -33s-42.167 -29.334 -60.5 -47.001s-33.833 -36.167 -46.5 -55.5c-3.33301 -6.66699 -5 -12.334 -5 -17.001c0 -9.33301 3.16699 -16.666 9.5 -21.999s13.166 -8 20.499 -8
c10.667 0 19 4.33301 25 13c10.667 16.667 23.667 32.5 39 47.5s32 28 50 39s36.833 19.667 56.5 26s39.5 9.5 59.5 9.5h11c1.33301 0 2 -0.666992 2 -2c0 -8 -0.833008 -15.333 -2.5 -22s-3.83398 -13.667 -6.50098 -21c-12.667 -30.667 -29 -64.667 -49 -102l-61 -116
c-2.66699 -4.66699 -7 -12.834 -13 -24.501l-20 -40l-23.5 -48c-8.33301 -17 -15.833 -33.333 -22.5 -49s-12.167 -29.834 -16.5 -42.501s-6.5 -22.334 -6.5 -29.001c0 -7.33301 2.66699 -15.5 8 -24.5s13.666 -13.5 24.999 -13.5c8 0 14.667 2.66699 20 8
c21.333 19.333 41.333 41 60 65s36.667 48.667 54 74l42.5 64.5c17 25.667 36.167 52.5 57.5 80.5l57 74c21.333 27.333 42.833 52.833 64.5 76.5s42.5 43.5 62.5 59.5s37 24 51 24c1.33301 0 3.5 -1.5 6.5 -4.5s4.5 -11.5 4.5 -25.5c0 -12 -3.33301 -27.833 -10 -47.5
s-15.167 -41.5 -25.5 -65.5s-22 -49 -35 -75l-38 -75l-35 -66.5l-26.5 -48.5c-3.33301 -5.33301 -5 -10.333 -5 -15c0 -9.33301 3.16699 -16.666 9.5 -21.999s13.166 -8 20.499 -8c11.333 0 20 5 26 15l54.5 80.5l61 84.5l63 80c21 25.333 41.333 47.666 61 66.999
s38 34.833 55 46.5s31.5 17.5 43.5 17.5c5.33301 0 8.5 -1.66699 9.5 -5s1.5 -10.666 1.5 -21.999c0 -9.33301 -6.33301 -28.666 -19 -57.999c-10.667 -24 -22.5 -49.333 -35.5 -76s-25 -53.834 -36 -81.501s-20.333 -55.5 -28 -83.5s-11.5 -55.333 -11.5 -82
c0 -11.333 1.33301 -22.5 4 -33.5s6.5 -20.833 11.5 -29.5s11.167 -15.5 18.5 -20.5s15.666 -7.5 24.999 -7.5c10.667 0 23.334 4.66699 38.001 14s29.5 20.166 44.5 32.499s29.167 25 42.5 38l31 30.5l18 18l13.5 14l14 15l20.5 22
c3.33301 3.33301 5.16602 6.83301 5.49902 10.5s0.166016 7.16699 -0.500977 10.5z" />
    <glyph glyph-name="N" unicode="N" horiz-adv-x="667" 
d="M695 165c0 7.33301 -2.66895 14.1631 -8.00195 20.4961s-12.333 9.5 -21 9.5c-8 0 -15 -3 -21 -9l-31 -31.5c-13.333 -13.667 -27.5 -27.167 -42.5 -40.5s-29.5 -24.833 -43.5 -34.5s-25.667 -14.5 -35 -14.5c-14 0 -22.833 5.16699 -26.5 15.5s-4.66699 22.333 -3 36
s4.66699 27.167 9 40.5s7.83301 23 10.5 29c8.66699 21.333 20 44 34 68s27.333 48.5 40 73.5s23.667 50 33 75s14 49.167 14 72.5c0 26.667 -7.16699 46.834 -21.5 60.501s-32.5 20.5 -54.5 20.5s-45.5 -7 -70.5 -21s-50.333 -32 -76 -54s-51 -46.667 -76 -74
s-48.167 -54.5 -69.5 -81.5l-57.5 -75.5c-17 -23.333 -30.167 -42.333 -39.5 -57l-13 -20c5.33301 10.667 13 25 23 43l32 59l35 66.5c12 23 22.833 44.833 32.5 65.5s17.667 39.334 24 56.001s9.5 29.334 9.5 38.001c0 18.667 -6.16699 34.5 -18.5 47.5
s-28.833 19.5 -49.5 19.5c-30 0 -61.5 -7.5 -94.5 -22.5s-71.5 -41.5 -115.5 -79.5c-7.33301 -6 -11 -13.333 -11 -22c0 -8 2.83301 -15.167 8.5 -21.5s12.834 -9.5 21.501 -9.5c6.66699 0 13.334 2.66699 20.001 8c29.333 25.333 57.166 46.166 83.499 62.499
s55.5 24.5 87.5 24.5c5.33301 0 8 -2.33301 8 -7c0 -4 -3 -12.833 -9 -26.5l-22.5 -49c-9 -19 -19.167 -39.167 -30.5 -60.5l-32.5 -61.5l-28 -52.5c-8.33301 -15.333 -14.166 -26.333 -17.499 -33l-20 -36c-7.33301 -13.333 -14.333 -27.166 -21 -41.499
s-12.167 -28.666 -16.5 -42.999s-6.5 -27.833 -6.5 -40.5c0 -4.66699 0.666992 -9.66699 2 -15s3.5 -10.333 6.5 -15s7.16699 -8.5 12.5 -11.5s11.666 -4.5 18.999 -4.5c8 0 18.5 6.33301 31.5 19s26 27.5 39 44.5s25.167 33.833 36.5 50.5l24 36
c8.66699 13.333 21 30.833 37 52.5l53.5 70c19.667 25 40.834 50.167 63.501 75.5s44.834 48.166 66.501 68.499s42.5 37 62.5 50s37.333 19.5 52 19.5c6 0 10.833 -1.5 14.5 -4.5s5.5 -9.83301 5.5 -20.5c0 -11.333 -1.83301 -23.5 -5.5 -36.5
s-8.83398 -27.167 -15.501 -42.5c-9.33301 -21.333 -21 -44 -35 -68s-27.333 -48.5 -40 -73.5s-23.5 -50.167 -32.5 -75.5s-13.5 -50 -13.5 -74c0 -12 1.83301 -23.667 5.5 -35s9 -21.666 16 -30.999s15.5 -16.833 25.5 -22.5s21.667 -8.5 35 -8.5
c17.333 0 35.5 4.83301 54.5 14.5s37.5 21.667 55.5 36s34.833 29.5 50.5 45.5l41.5 42c6 6 9 13.333 9 22z" />
    <glyph glyph-name="O" unicode="O" horiz-adv-x="604" 
d="M530 383c0 28 -3.49902 54.332 -10.499 78.999s-17.667 46.167 -32 64.5s-33 33 -56 44s-50.5 16.5 -82.5 16.5c-37.333 0 -72 -10 -104 -30c-5.33301 4 -11.333 6 -18 6c-2.66699 0 -6.66699 -0.666992 -12 -2c-34 -14 -64.167 -35.667 -90.5 -65
s-48.5 -62.833 -66.5 -100.5s-31.667 -78 -41 -121s-14 -85.5 -14 -127.5c0 -28 2.83301 -54.667 8.5 -80s15 -47.833 28 -67.5s29.667 -35.167 50 -46.5s45.166 -17 74.499 -17c55.333 0 105.5 14 150.5 42s83.5 63.833 115.5 107.5s56.667 91.834 74 144.501
s26 103.667 26 153zM471.001 384.999c0 -43.333 -7.83105 -88.002 -23.498 -134.002s-37.167 -88 -64.5 -126s-59.5 -69.167 -96.5 -93.5s-76.833 -36.5 -119.5 -36.5c-36 0 -62.333 13.833 -79 41.5s-25 64.5 -25 110.5c0 26.667 2.16699 53.834 6.5 81.501
s10.5 54.334 18.5 80.001s17.833 50 29.5 73s25.167 43.5 40.5 61.5c-5.33301 -15.333 -9.33301 -31.666 -12 -48.999s-4 -35.666 -4 -54.999c0 -6 1.16699 -15 3.5 -27s5.83301 -23.833 10.5 -35.5s10.5 -21.834 17.5 -30.501s14.833 -13 23.5 -13
c7.33301 0 14.166 2.66699 20.499 8s9.5 12.666 9.5 21.999c0 5.33301 -1.33301 10.833 -4 16.5l-8.5 17.5c-3 6 -5.83301 12.5 -8.5 19.5s-4 14.5 -4 22.5c0 32.667 4.5 61 13.5 85s20.5 43.5 34.5 58.5s29.667 26.167 47 33.5s34.666 11 51.999 11
c42.667 0 73.667 -13 93 -39s29 -60.333 29 -103z" />
    <glyph glyph-name="P" unicode="P" horiz-adv-x="499" 
d="M493 403c0 21.333 -3.49707 41.335 -10.4971 60.002s-18 34.834 -33 48.501s-34 24.5 -57 32.5s-50.167 12 -81.5 12c-20.667 0 -40.334 -2 -59.001 -6l2 5c1.33301 4.66699 2.33301 9 3 13s1 6.66699 1 8c0 10 -3.16699 17.667 -9.5 23s-13.166 8 -20.499 8
c-6 0 -12 -1.83301 -18 -5.5s-10 -9.5 -12 -17.5l-7 -29c-2.66699 -10.667 -5.66699 -22 -9 -34c-32.667 -20 -60.667 -46.333 -84 -79s-42.833 -67.834 -58.5 -105.501s-28 -76 -37 -115s-15.833 -75.167 -20.5 -108.5l-7.5 -51l-6.5 -42
c-2 -12.667 -3.66699 -23.667 -5 -33s-2 -17 -2 -23c0 -13.333 3.16699 -24.5 9.5 -33.5s15.5 -13.5 27.5 -13.5c7.33301 0 14.166 2.16699 20.499 6.5s11.5 10.166 15.5 17.499l10.5 20c3 6 6 12.333 9 19l9 21c3 7.33301 6.83301 15.666 11.5 24.999
c9.33301 20 20.666 47.333 33.999 82l42.5 115c15 42 29.667 85.5 44 130.5s27.166 87.5 38.499 127.5c22.667 10 48.667 15 78 15c22.667 0 42 -2.5 58 -7.5s28.667 -11.833 38 -20.5s16.166 -18.834 20.499 -30.501s6.5 -23.834 6.5 -36.501
c0 -22.667 -5.5 -46.167 -16.5 -70.5s-25.667 -46.666 -44 -66.999s-39.666 -37 -63.999 -50s-49.5 -19.5 -75.5 -19.5c-7.33301 0 -13.833 1.16699 -19.5 3.5s-10.834 5 -15.501 8s-9.16699 5.66699 -13.5 8s-9.16602 3.5 -14.499 3.5c-8.66699 0 -15.834 -3 -21.501 -9
s-8.5 -13 -8.5 -21c0 -9.33301 3.66699 -17.166 11 -23.499s16 -11.833 26 -16.5s20.167 -8 30.5 -10s18.833 -3 25.5 -3c36.667 0 70.834 8.5 102.501 25.5s59 38.5 82 64.5s41.167 54.833 54.5 86.5s20 62.5 20 92.5zM151.003 415.002l-51.999 -159.5
c-18 -53 -38 -105.5 -60 -157.5l15 73.5c5.33301 25.667 11.666 51.5 18.999 77.5c9.33301 31.333 20.333 61.333 33 90s27.667 54 45 76z" />
    <glyph glyph-name="Q" unicode="Q" horiz-adv-x="580" 
d="M609 167c0 7.33301 -2.5 14.167 -7.5 20.5s-11.833 9.5 -20.5 9.5c-7.33301 0 -14.333 -3.33301 -21 -10l-34 -35l-31 -31c-10 -9.33301 -21 -20.166 -33 -32.499s-24.667 -24 -38 -35s-27 -20.333 -41 -28s-28 -11.5 -42 -11.5c-12 0 -23 5.66699 -33 17
c30 24.667 57.167 54.667 81.5 90s45.333 72.666 63 111.999s31.167 79.166 40.5 119.499s14 78.166 14 113.499c0 24.667 -2.66699 48.167 -8 70.5s-13.666 41.833 -24.999 58.5s-26 30 -44 40s-39.667 15 -65 15s-48.5 -5.33301 -69.5 -16s-39.833 -24.667 -56.5 -42
c-5.33301 3.33301 -11 5 -17 5c-8 0 -14.333 -2.33301 -19 -7c-27.333 -21.333 -53.5 -46.166 -78.5 -74.499s-47.167 -60 -66.5 -95s-34.833 -72.667 -46.5 -113s-17.5 -82.5 -17.5 -126.5c0 -18.667 1.66699 -40.5 5 -65.5s10 -48.833 20 -71.5s24.5 -42 43.5 -58
s44.5 -24 76.5 -24c21.333 0 41.666 2.83301 60.999 8.5s38 13.5 56 23.5c9.33301 -11.333 20.5 -20.833 33.5 -28.5s28.833 -11.5 47.5 -11.5c18 0 35.833 3.83301 53.5 11.5s34.5 17 50.5 28s30.5 22.5 43.5 34.5l32.5 30c15.333 14.667 29.5 28.834 42.5 42.501
l40.5 43.5c6 6 9 13.667 9 23zM447 467.001c0 -30 -4.16797 -62.668 -12.501 -98.001s-20 -70.5 -35 -105.5s-32.833 -68.333 -53.5 -100s-43.667 -58.834 -69 -81.501l-18.5 35.5c-6.33301 11.667 -13.833 22.167 -22.5 31.5s-18.667 16.833 -30 22.5
s-24.666 8.5 -39.999 8.5c-24.667 0 -46.334 -5.16699 -65.001 -15.5s-33 -23.833 -43 -40.5c-1.33301 9.33301 -2.33301 18.833 -3 28.5s-1 19.167 -1 28.5c0 28.667 3.16699 56.834 9.5 84.501s15 54.167 26 79.5s23.5 49.166 37.5 71.499s29 42.833 45 61.5
c1.33301 -12.667 4 -22.167 8 -28.5s10.667 -9.5 20 -9.5c8 0 14.333 2.83301 19 8.5s8.33398 11.834 11.001 18.501c6.66699 16.667 14.667 32.5 24 47.5s19.833 28 31.5 39s24.167 19.833 37.5 26.5s27.333 10 42 10c27.333 0 47.833 -10.667 61.5 -32
s20.5 -51.666 20.5 -90.999zM225.999 46c-28 -16 -57 -23.999 -87 -23.999c-12.667 0 -22.667 4.5 -30 13.5s-11 19.5 -11 31.5c0 12.667 5 24.667 15 36s27.667 17 53 17c6 0 11.667 -1.83301 17 -5.5s10 -8.33398 14 -14.001s7.5 -11.5 10.5 -17.5
s5.83301 -11.333 8.5 -16z" />
    <glyph glyph-name="R" unicode="R" horiz-adv-x="743" 
d="M762 154c0 8.66699 -3.32715 15.832 -9.99414 21.499s-13.667 8.5 -21 8.5c-8.66699 0 -16 -3.33301 -22 -10l-24.5 -26l-22.5 -23c-13.333 -14 -27.333 -27.167 -42 -39.5s-29.167 -23.166 -43.5 -32.499s-28.333 -16.833 -42 -22.5s-25.834 -8.5 -36.501 -8.5
c-8 0 -15.667 3.83301 -23 11.5s-13 14.5 -17 20.5l-36.5 54c-11.667 18 -24 35.5 -37 52.5s-26.833 33.167 -41.5 48.5s-31.334 29.333 -50.001 42l15 4c36.667 9.33301 68.334 21.333 95.001 36s48.667 31 66 49s30.166 36.833 38.499 56.5s12.5 39.5 12.5 59.5
s-4 38.833 -12 56.5s-19.5 33.167 -34.5 46.5s-32.833 23.833 -53.5 31.5s-43.667 11.5 -69 11.5c-36.667 0 -70.334 -5.5 -101.001 -16.5s-58.167 -26.333 -82.5 -46s-46 -42.834 -65 -69.501s-35.5 -55.667 -49.5 -87c-20.667 -47.333 -35.667 -94.666 -45 -141.999
s-17.333 -95.666 -24 -144.999l-4.5 -36.5c-1.66699 -13 -3 -25.667 -4 -38s-1.83301 -23.5 -2.5 -33.5s-1 -17.333 -1 -22c0 -4 0.666992 -8.83301 2 -14.5s3.66602 -11.334 6.99902 -17.001s7.5 -10.5 12.5 -14.5s11.167 -6 18.5 -6c11.333 0 21.5 5 30.5 15
s16.833 21.833 23.5 35.5s12.5 27.667 17.5 42s9.16699 25.5 12.5 33.5l38.5 102l38.5 102c2 -5.33301 5.5 -9.33301 10.5 -12s10.167 -4.66699 15.5 -6c20 -2.66699 38.5 -9.66699 55.5 -21s33 -25 48 -41s29 -33 42 -51l35.5 -49c7.33301 -10.667 14.666 -22 21.999 -34
s15.666 -23 24.999 -33s19.666 -18.333 30.999 -25s24.666 -10 39.999 -10c16.667 0 33.834 3.5 51.501 10.5s35.5 16 53.5 27s35.333 23.667 52 38s32.334 28.5 47.001 42.5l23.5 25l27.5 28c6 6 9 13 9 21zM457.006 457.998c0 -12 -2.99902 -25 -8.99902 -39
s-15.667 -27.667 -29 -41s-30.833 -25.833 -52.5 -37.5s-47.834 -21.834 -78.501 -30.501c-6 -1.33301 -13.833 -3.16602 -23.5 -5.49902l-29 -7c-9.66699 -2.33301 -19 -5 -28 -8s-15.833 -5.83301 -20.5 -8.5l47 126.5l50 125.5c20 6 42.333 9 67 9
c34.667 0 61 -8.5 79 -25.5s27 -36.5 27 -58.5zM202.007 489.998l-81.502 -215.497l-81.5 -215.5c2 21.333 4.83301 44.666 8.5 69.999s8.33398 51.166 14.001 77.499s12.334 52.666 20.001 78.999s16.5 50.833 26.5 73.5c11.333 26 24.833 50.167 40.5 72.5
s33.5 41.833 53.5 58.5z" />
    <glyph glyph-name="S" unicode="S" horiz-adv-x="564" 
d="M580 151c0 8.66699 -3.16602 15.832 -9.49902 21.499s-13.166 8.5 -20.499 8.5c-10 0 -18 -4 -24 -12c-18.667 -25.333 -43 -46.166 -73 -62.499s-63.667 -29.166 -101 -38.499c2.66699 12.667 4 27 4 43c0 27.333 -5.33301 51.333 -16 72s-24.167 39 -40.5 55
s-34.666 30.5 -54.999 43.5l-59.5 38.5c-8 5.33301 -16 11 -24 17s-15.333 12.333 -22 19s-12.167 13.834 -16.5 21.501s-6.5 15.834 -6.5 24.501c0 20.667 6.33301 40.167 19 58.5s28.834 34.5 48.501 48.5s41.667 25 66 33s48.166 12 71.499 12
c35.333 0 60.666 -9.33301 75.999 -28s23 -40.667 23 -66c0 -14 -2.16699 -28.333 -6.5 -43s-11.166 -28.667 -20.499 -42c-3.33301 -6.66699 -5 -12.334 -5 -17.001c0 -9.33301 3.16699 -16.666 9.5 -21.999s13.166 -8 20.499 -8c10.667 0 19 4.33301 25 13
c24.667 38 37 77.667 37 119c0 20 -3.33301 39.333 -10 58s-16.667 35.167 -30 49.5s-29.833 25.666 -49.5 33.999s-42.834 12.5 -69.501 12.5c-26 0 -54.5 -4.66699 -85.5 -14s-59.833 -23 -86.5 -41s-48.834 -40.167 -66.501 -66.5s-26.5 -56.5 -26.5 -90.5
c0 -18.667 3.83301 -35.334 11.5 -50.001s17.5 -27.834 29.5 -39.501s25.333 -22.334 40 -32.001l42 -27.5l44 -29.5c14 -9.66699 26.5 -20.167 37.5 -31.5s19.667 -23.5 26 -36.5s9.5 -27.833 9.5 -44.5c0 -18.667 -3.33301 -37.334 -10 -56.001
c-18.667 -2.66699 -38 -4.66699 -58 -6c-12 -0.666992 -27 -1 -45 -1c-17.333 0 -35.833 -0.666992 -55.5 -2s-39.5 -3.66602 -59.5 -6.99902s-38 -8.66602 -54 -15.999s-29 -17 -39 -29s-15 -27.333 -15 -46c0 -16 4 -29.5 12 -40.5s17.667 -20 29 -27
s23.166 -12.167 35.499 -15.5s23.166 -5 32.499 -5c24.667 0 49.667 3.16699 75 9.5s49.333 15.5 72 27.5s43.667 26.833 63 44.5s35.333 37.5 48 59.5c50.667 10 96.334 24.5 137.001 43.5s77.334 48.167 110.001 87.5c4 6 6 12.333 6 19zM243.001 -10.002
c-22 -22 -48.499 -39.167 -79.499 -51.5s-62.5 -18.5 -94.5 -18.5c-15.333 0 -27.333 3.5 -36 10.5s-13 12.833 -13 17.5c0 6.66699 2.33301 12 7 16s11 7.33301 19 10s17 4.66699 27 6l31 4c12.667 1.33301 25.5 2.33301 38.5 3s25.167 1.16699 36.5 1.5s21.333 0.5 30 0.5
c9.33301 0 16.666 0.333008 21.999 1h12z" />
    <glyph glyph-name="T" unicode="T" horiz-adv-x="403" 
d="M604 547c0 7.33301 -2.5 14.168 -7.5 20.501s-12.5 9.5 -22.5 9.5c-49.333 0 -98.5 1.16699 -147.5 3.5s-98.5 3.5 -148.5 3.5c-17.333 0 -37.5 -0.5 -60.5 -1.5s-46.833 -3.5 -71.5 -7.5s-49 -9.83301 -73 -17.5s-45.333 -18.334 -64 -32.001
s-33.834 -30.5 -45.501 -50.5s-17.5 -44.333 -17.5 -73c0 -22.667 4.83301 -45 14.5 -67s24.167 -42.667 43.5 -62c6 -6 13 -9 21 -9c8.66699 0 16 3 22 9s9 13 9 21c0 7.33301 -3.33301 15 -10 23l-17 20c-5.33301 8 -10.5 17.167 -15.5 27.5s-7.5 22.5 -7.5 36.5
c0 26 8.16699 47 24.5 63s36.833 28.333 61.5 37s51.5 14.5 80.5 17.5s56.167 4.83301 81.5 5.5c-10 -22.667 -19 -45 -27 -67s-15.667 -44.5 -23 -67.5l-23 -71.5l-26 -79l-19 -60c-8 -25.333 -17 -51.333 -27 -78s-20.667 -51.167 -32 -73.5s-23 -37.833 -35 -46.5
c-1.33301 0 -2.66602 0.166992 -3.99902 0.5s-2.66602 0.5 -3.99902 0.5c-6.66699 0 -14.667 -2.66699 -24 -8s-14 -14.666 -14 -27.999c0 -8 2.83301 -16 8.5 -24s14.167 -12 25.5 -12c15.333 0 30.166 6 44.499 18s27.666 27.667 39.999 47s23.833 40.833 34.5 64.5
s20.167 47 28.5 70s15.5 44.5 21.5 64.5l14 48c15.333 52 31.333 103 48 153s36.334 99.667 59.001 149c42.667 -1.33301 85 -2.83301 127 -4.5s84.333 -2.5 127 -2.5c10 0 17.5 3.16699 22.5 9.5s7.5 13.166 7.5 20.499z" />
    <glyph glyph-name="U" unicode="U" horiz-adv-x="682" 
d="M717 173c0 7.33301 -2.50684 14.3311 -7.50684 20.998s-12.167 10 -21.5 10c-7.33301 0 -14.333 -3.33301 -21 -10l-30 -32.5c-13.333 -14.333 -28 -29.333 -44 -45s-32.5 -30.667 -49.5 -45s-31.833 -25.166 -44.5 -32.499c-8 -4 -14.333 -6 -19 -6
c-8.66699 0 -13 9.33301 -13 28c0 10 0.5 20.167 1.5 30.5s2.16699 19.166 3.5 26.499c7.33301 45.333 20.333 95.166 39 149.499s37 112.5 55 174.5c2.66699 8.66699 6 16.334 10 23.001s6 14.667 6 24c0 7.33301 -2.33301 13.833 -7 19.5s-11.667 8.5 -21 8.5
c-6 0 -11.167 -1.5 -15.5 -4.5s-7.83301 -6.66699 -10.5 -11s-5.16699 -9.16602 -7.5 -14.499s-4.5 -10 -6.5 -14l-13.5 -28c-5 -10.667 -10.5 -21.667 -16.5 -33l-17.5 -34l-15.5 -30l-28 -52.5c-12 -23 -25.833 -48 -41.5 -75l-50 -82.5
c-17.667 -28 -35.667 -53.5 -54 -76.5s-36.166 -41.833 -53.499 -56.5s-33.333 -22 -48 -22c-5.33301 0 -10.666 1 -15.999 3s-10.166 6.5 -14.499 13.5s-8 17.333 -11 31s-4.5 32.167 -4.5 55.5c0 30.667 3.83301 61.167 11.5 91.5s17 60.333 28 90
s22.833 58.834 35.5 87.501s24.334 57 35.001 85c6.66699 16 12 31.167 16 45.5s6 27.5 6 39.5s-2.66699 21.667 -8 29s-12 13.166 -20 17.499s-16.333 7.16602 -25 8.49902s-16 2 -22 2c-23.333 0 -46.666 -4.66699 -69.999 -14s-45 -21.833 -65 -37.5
s-37.333 -33.834 -52 -54.501s-25 -42 -31 -64c-0.666992 -2 -1 -5 -1 -9c0 -9.33301 3.33301 -16.5 10 -21.5s13.667 -7.5 21 -7.5c6 0 11.667 1.83301 17 5.5s9 9.16699 11 16.5c4.66699 16 12.5 31.667 23.5 47s23.833 28.833 38.5 40.5s30.5 21 47.5 28
s33.833 10.5 50.5 10.5c8.66699 0 13 -2.33301 13 -7c0 -2.66699 -0.333008 -4.66699 -1 -6c-1.33301 -5.33301 -3.5 -11.833 -6.5 -19.5s-6.16699 -16.5 -9.5 -26.5l-37 -88c-13.333 -30.667 -25.666 -62 -36.999 -94s-20.666 -64 -27.999 -96s-11 -63.333 -11 -94
c0 -60 9.16699 -103.167 27.5 -129.5s43.5 -39.5 75.5 -39.5c24 0 47.667 8.16699 71 24.5s45.833 36.666 67.5 60.999s42 50.833 61 79.5s35.5 55.334 49.5 80.001c-5.33301 -19.333 -9.33301 -38.166 -12 -56.499s-4 -35.166 -4 -50.499c0 -28 6 -49.5 18 -64.5
s28 -22.5 48 -22.5c18.667 0 39.167 6.66699 61.5 20s44.333 29.5 66 48.5s42 38.833 61 59.5l48.5 52c5.33301 6.66699 8 13.334 8 20.001z" />
    <glyph glyph-name="V" unicode="V" horiz-adv-x="473" 
d="M596 595c0 7.33301 -2.66895 14.167 -8.00195 20.5s-12.666 9.5 -21.999 9.5c-11.333 0 -26.333 -9.66699 -45 -29s-38.834 -44 -60.501 -74s-43.834 -62.667 -66.501 -98l-63 -101.5l-49 -84.5c-13.333 -24 -22 -39.333 -26 -46l-52 -93
c-19.333 -33.333 -39 -64 -59 -92c-1.33301 5.33301 -2.66602 10 -3.99902 14c-17.333 70.667 -22.666 138.167 -15.999 202.5s21.334 130.5 44.001 198.5c2 6.66699 5.16699 15.334 9.5 26.001l13 33c4.33301 11.333 8 22.166 11 32.499s4.5 18.833 4.5 25.5
c0 9.33301 -3.33301 17 -10 23s-14.667 10.833 -24 14.5s-19 6.16699 -29 7.5s-18.333 2 -25 2c-30.667 0 -59.167 -2.66699 -85.5 -8s-49 -13.333 -68 -24s-33.833 -24.334 -44.5 -41.001s-16 -36 -16 -58c0 -40 18 -84.333 54 -133c6 -8 14 -12 24 -12
c7.33301 0 14.333 2.66699 21 8s10 12.666 10 21.999c0 6 -2 12 -6 18c-15.333 20 -26.166 38 -32.499 54s-9.5 29.667 -9.5 41c0 22 12.167 39.667 36.5 53s62.833 20 115.5 20c1.33301 0 2.83301 0.166992 4.5 0.5s3.16699 0.5 4.5 0.5c2 0 4.66699 -0.166992 8 -0.5
s5 -2.16602 5 -5.49902s-1.16699 -8.5 -3.5 -15.5s-5.16602 -14.833 -8.49902 -23.5l-9.5 -24.5c-3 -7.66699 -5.16699 -13.5 -6.5 -17.5c-24.667 -73.333 -40.334 -144.666 -47.001 -213.999s0.666016 -142.666 21.999 -219.999c6 -22.667 13.5 -42 22.5 -58
s19.5 -24 31.5 -24c7.33301 0 13.5 2.33301 18.5 7l12.5 12c12.667 15.333 25.167 32.166 37.5 50.499s24.333 37.333 36 57l33.5 58.5l30 55l30.5 55l44.5 76.5l52.5 85c18.333 29 36.5 56.333 54.5 82s35 48 51 67s29.667 32.5 41 40.5c8.66699 6.66699 13 15 13 25z" />
    <glyph glyph-name="W" unicode="W" horiz-adv-x="880" 
d="M863 638c0 10 -3.16797 17.501 -9.50098 22.501s-13.166 7.5 -20.499 7.5s-14.166 -2.5 -20.499 -7.5s-9.5 -12.5 -9.5 -22.5c0 -18.667 -1.66699 -42.334 -5 -71.001s-8 -60.167 -14 -94.5s-13.5 -69.666 -22.5 -105.999s-18.833 -71 -29.5 -104
s-22.5 -63.167 -35.5 -90.5s-26.5 -49 -40.5 -65c-6 -6.66699 -13.333 -14.167 -22 -22.5s-17.5 -16 -26.5 -23s-17.833 -13 -26.5 -18s-16.334 -7.5 -23.001 -7.5c-10 0 -17.5 7.16699 -22.5 21.5s-8.5 30.5 -10.5 48.5s-3 35.333 -3 52v34c0 26 1.5 53 4.5 81
s7.33301 56.167 13 84.5s12 56.166 19 83.499s14.5 53 22.5 77c1.33301 2.66699 2 6 2 10c0 10 -3.5 17.333 -10.5 22s-13.833 7 -20.5 7c-5.33301 0 -10.833 -1.66699 -16.5 -5s-9.5 -9 -11.5 -17c-6 -24.667 -12.833 -49.834 -20.5 -75.501s-16.334 -51.167 -26.001 -76.5
s-20.167 -49.833 -31.5 -73.5s-23.666 -45.5 -36.999 -65.5c-2 -2.66699 -7.33301 -10.334 -16 -23.001s-19.5 -27.667 -32.5 -45l-42.5 -55.5c-15.333 -19.667 -30.666 -37.834 -45.999 -54.501s-29.666 -30.5 -42.999 -41.5s-24 -16.5 -32 -16.5
c-3.33301 0 -4.83301 2.33301 -4.5 7s-0.166992 9.66699 -1.5 15c-0.666992 7.33301 -1 14.333 -1 21v15c0 33.333 5.66699 69.166 17 107.499s25 77.5 41 117.5s32 78 48 114s28.667 67.667 38 95c5.33301 18 8 33 8 45c0 25.333 -8.83301 42.333 -26.5 51
s-39.167 13 -64.5 13c-18.667 0 -39.5 -0.833008 -62.5 -2.5s-46.167 -5.16699 -69.5 -10.5s-46 -12.666 -68 -21.999s-41.5 -21.666 -58.5 -36.999s-30.667 -34 -41 -56s-15.5 -48 -15.5 -78c0 -15.333 2.66699 -30.333 8 -45s12.166 -28.334 20.499 -41.001
s17.5 -24.334 27.5 -35.001s19.667 -19.334 29 -26.001c6 -4 12 -6 18 -6c9.33301 0 16.666 3.16699 21.999 9.5s8 13.166 8 20.499c0 10 -4 18 -12 24s-15.667 12.833 -23 20.5s-13.833 16 -19.5 25s-10.167 18.167 -13.5 27.5s-5 18 -5 26c0 28.667 7.33301 52.5 22 71.5
s34 34 58 45s51.167 18.667 81.5 23s61.5 6.5 93.5 6.5c11.333 0 19 -1 23 -3s6 -5.33301 6 -10c0 -4 -1 -9 -3 -15c-8.66699 -24.667 -21 -55.167 -37 -91.5s-32 -75.166 -48 -116.499c-16.667 -41.333 -31.167 -83.5 -43.5 -126.5s-18.5 -83.167 -18.5 -120.5
c0 -9.33301 1 -20.666 3 -33.999s5.5 -26.333 10.5 -39s11.833 -23.334 20.5 -32.001s19.667 -13 33 -13c16 0 31.167 4.83301 45.5 14.5s26.5 19.167 36.5 28.5c14.667 14 30.334 29.833 47.001 47.5s33 36.334 49 56.001s31.5 39.834 46.5 60.501s28.5 41 40.5 61v-24
c0 -12.667 1.16699 -31 3.5 -55s7 -48 14 -72s16.833 -44.833 29.5 -62.5s29 -26.5 49 -26.5c14 0 28 3.16699 42 9.5s27.167 14.333 39.5 24s23.666 19.667 33.999 30s19.166 19.5 26.499 27.5c16.667 18.667 32.334 42.834 47.001 72.501s28 62.334 40 98.001
s22.667 72.834 32 111.501s17.333 76 24 112s11.667 69.5 15 100.5s5 56.5 5 76.5z" />
    <glyph glyph-name="X" unicode="X" horiz-adv-x="564" 
d="M610 191c0 7.33301 -2.16504 13.1621 -6.49805 17.4951s-10.166 6.5 -17.499 6.5c-13.333 0 -26 -7.66699 -38 -23c-8 -10 -19.833 -23.167 -35.5 -39.5s-32 -32.166 -49 -47.499s-32.667 -28.666 -47 -39.999s-23.833 -17 -28.5 -17
c-1.33301 0 -3.16602 0.333008 -5.49902 1s-4.66602 2.5 -6.99902 5.5s-4.5 7.83301 -6.5 14.5s-3.33301 16 -4 28l-18 259c34 44.667 70 87 108 127s79.333 76.667 124 110c8 6 12 14 12 24c0 7.33301 -2.83301 14.166 -8.5 20.499s-12.834 9.5 -21.501 9.5
c-7.33301 0 -13.333 -2 -18 -6c-37.333 -28 -72.5 -58.667 -105.5 -92s-65.167 -69 -96.5 -107c-1.33301 14 -2.33301 31.167 -3 51.5s-3.5 39.833 -8.5 58.5s-13.5 34.667 -25.5 48s-29.667 20 -53 20c-25.333 0 -52.5 -5.5 -81.5 -16.5s-57.5 -24.333 -85.5 -40
s-54.167 -32.167 -78.5 -49.5s-44.833 -32.666 -61.5 -45.999c-7.33301 -6 -11 -13.667 -11 -23c0 -7.33301 2.83301 -14.166 8.5 -20.499s12.834 -9.5 21.501 -9.5c7.33301 0 13.666 2.33301 18.999 7c17.333 14 37.5 29 60.5 45s46.667 30.833 71 44.5
s48.5 25.167 72.5 34.5s45.667 14 65 14c4.66699 0 8.5 -0.666992 11.5 -2s5.5 -5.5 7.5 -12.5s3.66699 -17.667 5 -32s3 -34.5 5 -60.5l6 -81c-40 -52 -77.833 -104.667 -113.5 -158l-106.5 -154l-30.5 -45.5l-30.5 -46.5c-3.33301 -5.33301 -5 -10.666 -5 -15.999
c0 -9.33301 3.33301 -16.666 10 -21.999s13.667 -8 21 -8c10.667 0 19 4.66699 25 14c9.33301 15.333 19 30.333 29 45l30 43l88 128.5l89 129.5l10 -153c2 -27.333 4.66699 -50 8 -68s8.16602 -32.5 14.499 -43.5s14.666 -18.667 24.999 -23s23.166 -6.5 38.499 -6.5
c13.333 0 29.666 6.5 48.999 19.5s38.833 28.333 58.5 46s38 35.5 55 53.5s29.833 32 38.5 42c14 16 21 30 21 42z" />
    <glyph glyph-name="Y" unicode="Y" horiz-adv-x="581" 
d="M607 162c0 8.66699 -2.99707 15.9961 -8.99707 21.9961s-13 9 -21 9s-14.5 -2.66699 -19.5 -8s-9.5 -10.666 -13.5 -15.999c-3.33301 -4 -6.5 -7.5 -9.5 -10.5l-9.5 -9.5c-17.333 -18 -36.166 -34.333 -56.499 -49l-61.5 -43c15.333 48 30.5 99.167 45.5 153.5
s27.167 106.833 36.5 157.5c4.66699 25.333 9.83398 49.666 15.501 72.999s14.167 46 25.5 68c1.33301 2.66699 2.33301 5.16699 3 7.5s1 5.16602 1 8.49902c0 7.33301 -2.33301 14.666 -7 21.999s-12.667 11 -24 11c-6 0 -11.5 -1.5 -16.5 -4.5
s-8.83301 -7.83301 -11.5 -14.5c-3.33301 -9.33301 -11 -27.333 -23 -54s-26.833 -57.5 -44.5 -92.5s-37.167 -71.5 -58.5 -109.5s-43.5 -73 -66.5 -105s-45.667 -58.333 -68 -79s-43.166 -31 -62.499 -31c-13.333 0 -23.333 4.33301 -30 13s-11.5 19.334 -14.5 32.001
s-4.66699 25.5 -5 38.5s-0.5 24.167 -0.5 33.5c0 28 3.33301 56.167 10 84.5s15.5 56.333 26.5 84s23.333 54.834 37 81.501l41.5 79c3.33301 6 6.5 11 9.5 15s5.66699 8.16699 8 12.5s4.16602 9 5.49902 14s2 11.167 2 18.5c0 10 -3.83301 20.5 -11.5 31.5
s-19.5 16.5 -35.5 16.5c-20.667 0 -42.667 -4.5 -66 -13.5s-46 -20.5 -68 -34.5s-42.5 -29.667 -61.5 -47s-34.5 -34.666 -46.5 -51.999c-3.33301 -5.33301 -5 -11 -5 -17c0 -9.33301 3.16699 -16.666 9.5 -21.999s13.166 -8 20.499 -8c10.667 0 19 4.33301 25 13
c9.33301 13.333 20.833 26.5 34.5 39.5s28.5 25 44.5 36s32.167 20.333 48.5 28s31.5 12.834 45.5 15.501l-48 -86c-16 -30 -30.333 -60.833 -43 -92.5s-23 -64 -31 -97s-12 -66.167 -12 -99.5c0 -14 1 -31.167 3 -51.5s6.83301 -39.666 14.5 -57.999
s18.667 -34.166 33 -47.499s34.166 -20 59.499 -20c22.667 0 45.667 8.5 69 25.5s46.166 38.5 68.499 64.5s43.5 54.333 63.5 85s37.667 59.667 53 87c-12 -46.667 -25.333 -93 -40 -139l-43 -134l-69.5 -45.5c-25.667 -16.333 -49.667 -34.166 -72 -53.499
s-41.166 -40.833 -56.499 -64.5s-23 -49.5 -23 -77.5c0 -18.667 5.5 -36.334 16.5 -53.001s28.167 -25.334 51.5 -26.001c17.333 0 35.166 8.16699 53.499 24.5s36.166 37.833 53.499 64.5s34.166 57 50.499 91s31.5 68.667 45.5 104l38 26l50 35l63.5 47
c21.667 16.667 41.167 34.667 58.5 54l15.5 18c5.66699 6.66699 8.5 13.667 8.5 21zM284.003 -99.0039c-12 -25.333 -23.833 -48.166 -35.5 -68.499s-22.5 -37.5 -32.5 -51.5s-19 -24.833 -27 -32.5s-14.333 -11.5 -19 -11.5c-2 0 -4 1.16699 -6 3.5s-3 7.16602 -3 14.499
c0 14.667 3.5 28.667 10.5 42s16 25.833 27 37.5s23.167 22.5 36.5 32.5s26 19 38 27z" />
    <glyph glyph-name="Z" unicode="Z" horiz-adv-x="596" 
d="M632 171c0 9.33301 -3.32715 16.5088 -9.99414 21.5088s-13.667 7.5 -21 7.5c-3.33301 0 -7.16602 -0.666992 -11.499 -2s-8.16602 -4 -11.499 -8c-14 -16.667 -30 -33.5 -48 -50.5s-37 -32.333 -57 -46s-40.833 -24.834 -62.5 -33.501s-43.167 -13 -64.5 -13
c-16.667 0 -32.834 1.83301 -48.501 5.5l-47.5 11.5c-16 4 -33.167 7.5 -51.5 10.5s-38.833 5.16699 -61.5 6.5c20 17.333 39.167 35.5 57.5 54.5l56.5 56.5l28 30.5l37.5 41.5l43.5 49l46 52l45 50l41 43.5c12.667 13 23.667 23.833 33 32.5s16.666 14.667 21.999 18
s8.83301 7.33301 10.5 12s2.5 8.66699 2.5 12c0 8.66699 -3.16699 16.5 -9.5 23.5s-13.833 10.5 -22.5 10.5c-3.33301 0 -5.66602 -0.333008 -6.99902 -1c-16.667 -3.33301 -33.334 -5.5 -50.001 -6.5s-36.334 -1.5 -59.001 -1.5c-10 0 -23.167 1 -39.5 3l-55 7
c-20.333 2.66699 -41.666 5 -63.999 7s-44.166 3 -65.499 3c-18.667 0 -37.5 -1.16699 -56.5 -3.5s-36.333 -7 -52 -14s-28.334 -16.667 -38.001 -29s-14.5 -28.5 -14.5 -48.5c0 -4 0.666992 -9.5 2 -16.5s3.5 -13.833 6.5 -20.5s6.83301 -12.334 11.5 -17.001s10 -7 16 -7
c7.33301 0 14.166 2.5 20.499 7.5s9.5 12.167 9.5 21.5c0 5.33301 -1 10.666 -3 15.999s-3 10.666 -3 15.999c0 8 2.83301 14.333 8.5 19s13.167 8.16699 22.5 10.5s20.166 3.83301 32.499 4.5s25.166 1 38.499 1c21.333 0 43.666 -1 66.999 -3s45.166 -4.33301 65.499 -7
l55 -7c16.333 -2 28.166 -3 35.499 -3h36c-19.333 -19.333 -38 -39 -56 -59l-54 -61l-70.5 -82c-25 -28.667 -50.833 -56.834 -77.5 -84.501s-54.167 -53.834 -82.5 -78.501s-57.166 -46 -86.499 -64c-5.33301 -1.33301 -11.833 -3.83301 -19.5 -7.5s-15.334 -8 -23.001 -13
s-14.167 -10.333 -19.5 -16s-8 -11.5 -8 -17.5c0 -8 2.83301 -14.833 8.5 -20.5s12.5 -8.5 20.5 -8.5c2.66699 0 7 1 13 3s12.167 4.5 18.5 7.5s12.5 6.16699 18.5 9.5l14 8c11.333 3.33301 22.833 5.5 34.5 6.5s22.167 1.5 31.5 1.5c28 0 52.833 -1.66699 74.5 -5
s42.167 -7.33301 61.5 -12l52.5 -12c17.667 -4 35.834 -6 54.501 -6c26.667 0 53.167 5.33301 79.5 16s51.166 24.167 74.499 40.5s45 34.166 65 53.499s37.333 37.666 52 54.999c5.33301 5.33301 8 11.666 8 18.999z" />
    <glyph glyph-name="bracketleft" unicode="[" horiz-adv-x="433" 
d="M545 627c0 6.66699 -2.16797 12.8379 -6.50098 18.5049s-10.833 9.16699 -19.5 10.5c-7.33301 1.33301 -15 2 -23 2h-22c-15.333 0 -30.333 -0.333008 -45 -1s-29.667 -1 -45 -1c-9.33301 0 -19 0.333008 -29 1s-19.667 1.66699 -29 3c-5.33301 3.33301 -11 5 -17 5
c-5.33301 0 -10.666 -1.66699 -15.999 -5s-9 -8.33301 -11 -15l-130 -388c-41.333 -128.667 -86.333 -257.334 -135 -386.001c-4 -3.33301 -6.83301 -7 -8.5 -11s-2.5 -8 -2.5 -12c0 -6.66699 2.5 -13.334 7.5 -20.001s12.167 -10 21.5 -10c2 0 5 0.666992 9 2
c18.667 5.33301 37.5 9 56.5 11s38.5 3 58.5 3c24 0 48.167 -0.833008 72.5 -2.5s48.5 -2.5 72.5 -2.5c10 0 17.5 3.16699 22.5 9.5s7.5 13.166 7.5 20.499s-2.5 14.166 -7.5 20.499s-12.5 9.5 -22.5 9.5c-23.333 0 -47 0.666992 -71 2s-48 2 -72 2
c-12.667 0 -25 -0.333008 -37 -1s-24.333 -1.66699 -37 -3c44 118 85 236 123 354l119 356c9.33301 -1.33301 18.333 -2 27 -2h27c14 0 28 0.166992 42 0.5s27.667 0.5 41 0.5c8 0 16 -0.333008 24 -1s16.333 -1 25 -1c10 -0.666992 17.5 2.66602 22.5 9.99902
s7.5 14.333 7.5 21z" />
    <glyph glyph-name="backslash" unicode="\" horiz-adv-x="400" 
d="M245 -156c0 5.33301 -0.170898 11.1689 -0.503906 17.502s-0.833008 13.833 -1.5 22.5c-3.33301 50.667 -9 101.5 -17 152.5l-23 148.5l-37 234c-12.667 77.333 -23.667 155.333 -33 234c-1.33301 7.33301 -4.66602 13.666 -9.99902 18.999s-11.666 8 -18.999 8
c-6.66699 0 -13.5 -2.5 -20.5 -7.5s-10.5 -12.5 -10.5 -22.5c0 -4.66699 1 -13 3 -25c0.666992 -5.33301 1.33398 -11.333 2.00098 -18s1.66699 -13.334 3 -20.001c9.33301 -68.667 19.333 -137 30 -205l32 -205l26 -165.5c8.66699 -56.333 14 -112.5 16 -168.5
c0.666992 -10 4.16699 -17.167 10.5 -21.5s12.833 -6.5 19.5 -6.5s13.334 2.16699 20.001 6.5s10 11.833 10 22.5z" />
    <glyph glyph-name="bracketright" unicode="]" horiz-adv-x="433" 
d="M399 619c-0.666992 8.66699 -3.66699 16.6631 -9 23.9961s-13.333 11 -24 11c-42.667 0 -85.167 -0.5 -127.5 -1.5s-84.833 -1.5 -127.5 -1.5c-10 0 -17.5 -3.16699 -22.5 -9.5s-7.5 -13.166 -7.5 -20.499s2.5 -14.166 7.5 -20.499s12.5 -9.5 22.5 -9.5
c37.333 0 74.5 0.333008 111.5 1l111.5 2c-4.66699 -22 -11.167 -46.667 -19.5 -74s-18 -56.666 -29 -87.999l-36 -98l-40.5 -104l-42.5 -108l-41 -104.5l-36.5 -96.5c-11.333 -30.667 -21 -58.667 -29 -84c-10.667 3.33301 -21 6.16602 -31 8.49902s-21 4.5 -33 6.5
s-25.667 3.83301 -41 5.5s-33.333 3.5 -54 5.5l-25 2c-8 0.666992 -16.333 1 -25 1c-9.33301 0 -16.5 -3 -21.5 -9s-7.5 -12.667 -7.5 -20c0 -10 2.83301 -17.167 8.5 -21.5s12.5 -7.33301 20.5 -9s16.333 -2.5 25 -2.5s16 -0.333008 22 -1c20.667 -1.33301 39 -3 55 -5
s30.5 -4.33301 43.5 -7s25.333 -5.66699 37 -9s24.167 -7.33301 37.5 -12c4 -1.33301 7.33301 -2 10 -2c9.33301 0 16.5 3.16699 21.5 9.5s7.83301 12.833 8.5 19.5c8 26 17.833 55.333 29.5 88l38.5 103.5l44 113l46 116.5l44.5 116.5
c14.333 38.333 27.333 74.833 39 109.5s21.5 66.834 29.5 96.501s13.667 55.834 17 78.501z" />
    <glyph glyph-name="asciicircum" unicode="^" 
d="M376 216c0 4.66699 -0.996094 16.001 -2.99609 34.001s-4.5 39.167 -7.5 63.5s-6.5 50.333 -10.5 78s-8 53.834 -12 78.501s-8 46 -12 64s-7.33301 29.333 -10 34c-2.66699 4 -6.16699 7.66699 -10.5 11s-9.5 5 -15.5 5c-6.66699 0 -12.167 -1.83301 -16.5 -5.5
s-7.5 -7.83398 -9.5 -12.501c-15.333 -28 -33.333 -55.833 -54 -83.5l-66 -84.5l-69 -85c-22.667 -28 -43.334 -56 -62.001 -84c-4 -5.33301 -6 -10.666 -6 -15.999c0 -8.66699 3 -15.834 9 -21.501s13 -8.5 21 -8.5c10.667 0 18.667 4.66699 24 14
c33.333 49.333 69.166 96.666 107.499 141.999s74.833 92 109.5 140c7.33301 -42 13.5 -84.833 18.5 -128.5s9.83301 -89.167 14.5 -136.5c1.33301 -8.66699 4.66602 -15.5 9.99902 -20.5s12 -7.5 20 -7.5c7.33301 0 14.166 2.5 20.499 7.5s9.5 12.5 9.5 22.5z" />
    <glyph glyph-name="underscore" unicode="_" horiz-adv-x="500" 
d="M528 -236c0 7.33301 -2.50098 14.168 -7.50098 20.501s-12.5 9.5 -22.5 9.5h-79c-15.333 0 -32 -0.5 -50 -1.5l-55.5 -3c-19 -1 -37.5 -1.83301 -55.5 -2.5s-34 -1 -48 -1c-22.667 0 -43.834 0.333008 -63.501 1s-39 1.5 -58 2.5l-58.5 3c-20 1 -41.333 1.5 -64 1.5h-61
c-9.33301 0 -16.666 -3 -21.999 -9s-8 -12.667 -8 -20s2.66699 -14.333 8 -21s13 -10 23 -10h60c22.667 0 44 -0.5 64 -1.5l58.5 -3c19 -1 38.333 -1.83301 58 -2.5s40.834 -1 63.501 -1c14.667 0 31 0.333008 49 1s36.5 1.5 55.5 2.5l55.5 3c18 1 34.667 1.5 50 1.5h78
c10 0 17.5 3.16699 22.5 9.5s7.5 13.166 7.5 20.499z" />
    <glyph glyph-name="grave" unicode="`" horiz-adv-x="365" 
d="M303 350c0 6 -2.33398 12 -7.00098 18l-51.5 71c-17 24 -32.5 49 -46.5 75c-5.33301 10.667 -14 16 -26 16c-7.33301 0 -14.166 -2.66699 -20.499 -8s-9.5 -12.666 -9.5 -21.999c0 -6.66699 4.5 -17.834 13.5 -33.501s19.5 -32.334 31.5 -50.001l35.5 -50.5
c11.667 -16 20.167 -27.333 25.5 -34c6 -8 14 -12 24 -12c7.33301 0 14.333 2.83301 21 8.5s10 12.834 10 21.501z" />
    <glyph glyph-name="a" unicode="a" horiz-adv-x="402" 
d="M425 158c0 7.33301 -2.50391 14.167 -7.50391 20.5s-12.167 9.5 -21.5 9.5c-8.66699 0 -17 -4 -25 -12l-28 -29.5l-30 -30.5l-30.5 -30c-8.33301 -8 -15.5 -14 -21.5 -18c-5.33301 -4 -9.33301 -6 -12 -6c-3.33301 0 -5 5 -5 15c0 6.66699 0.333008 13.334 1 20.001
s1.66699 13.334 3 20.001c4.66699 26 10.334 48.5 17.001 67.5s18 39.5 34 61.5c4 5.33301 6 11 6 17c0 8.66699 -3.5 16 -10.5 22s-14.167 9 -21.5 9c-11.333 0 -19.333 -5 -24 -15c-1.33301 -2.66699 -3.16602 -5.5 -5.49902 -8.5s-4.83301 -6.5 -7.5 -10.5
c-9.33301 14 -21 24.167 -35 30.5s-29.667 9.5 -47 9.5c-29.333 0 -56.666 -7 -81.999 -21s-47.5 -32.167 -66.5 -54.5s-34 -47.833 -45 -76.5s-16.5 -57.334 -16.5 -86.001c0 -10.667 1.16699 -21 3.5 -31s6 -19 11 -27s11.5 -14.5 19.5 -19.5s17.667 -7.5 29 -7.5
c14 0 29 4.16699 45 12.5s31.833 18.666 47.5 30.999s30.834 25.833 45.501 40.5s27.667 28.667 39 42c-0.666992 -4 -1 -8 -1 -12v-10c0 -8.66699 0.666992 -17.834 2 -27.501s4 -18.667 8 -27s9.66699 -15.166 17 -20.499s17 -8 29 -8c17.333 0 33.333 5.5 48 16.5
s27 21.167 37 30.5l47 45.5c15.333 15 30.333 30.5 45 46.5c6 6 9 13 9 21zM194.996 207.001c-8 -10.667 -19.8301 -25.5 -35.4971 -44.5s-32.334 -37.833 -50.001 -56.5s-35 -34.834 -52 -48.501s-31.167 -20.5 -42.5 -20.5c-1.33301 0 -3.5 1.33301 -6.5 4
s-4.5 9.66699 -4.5 21c0 16 3.66699 34.333 11 55s17.5 40 30.5 58s28.833 33.333 47.5 46s39 19 61 19c13.333 0 22.666 -2.66699 27.999 -8s9.66602 -13.666 12.999 -24.999z" />
    <glyph glyph-name="b" unicode="b" horiz-adv-x="368" 
d="M385 153c0 8.66699 -3.00293 15.8359 -9.00293 21.5029s-13 8.5 -21 8.5c-3.33301 0 -7.16602 -0.666992 -11.499 -2s-8.16602 -4 -11.499 -8c-8.66699 -10.667 -19.167 -21.5 -31.5 -32.5s-24.833 -16.5 -37.5 -16.5c-8.66699 0 -17.334 3 -26.001 9
c0 2.66699 0.166992 5.33398 0.5 8.00098s0.5 5.66699 0.5 9c0 6.66699 -1 15.167 -3 25.5s-5.5 20.166 -10.5 29.499s-11.333 17.333 -19 24s-17.167 10 -28.5 10c-10 0 -17.167 -3.5 -21.5 -10.5s-6.5 -15.167 -6.5 -24.5c0 -13.333 1.66699 -28.833 5 -46.5
s10.333 -33.5 21 -47.5c-2 -12 -6.33301 -24.167 -13 -36.5s-14.334 -23.333 -23.001 -33s-17.834 -17.667 -27.501 -24s-18.5 -9.5 -26.5 -9.5c-14.667 0 -25.667 5.66699 -33 17s-11 29.666 -11 54.999c0 30.667 5 65 15 103l57.5 64.5
c19.667 22.333 38.5 45.166 56.5 68.499s35 46.833 51 70.5s30 47.5 42 71.5c2 4.66699 4.5 10.834 7.5 18.501s5.83301 16 8.5 25s5 18.333 7 28s3 19.167 3 28.5c0 17.333 -4 31 -12 41s-19 15 -33 15c-18 0 -36.167 -8.66699 -54.5 -26s-36.166 -39.333 -53.499 -66
s-33.666 -56.167 -48.999 -88.5s-29 -63.333 -41 -93s-22 -56.5 -30 -80.5s-13.333 -40.667 -16 -50c-9.33301 -10.667 -19.166 -21 -29.499 -31s-20.166 -20.333 -29.499 -31c-5.33301 -5.33301 -8 -12 -8 -20s3 -15 9 -21s13 -9 21 -9c3.33301 0 6.5 0.666992 9.5 2
s5.83301 2.66602 8.5 3.99902c-0.666992 -4.66699 -1 -9.33398 -1 -14.001v-13c0 -17.333 1.66699 -33.833 5 -49.5s9 -29.334 17 -41.001s18.333 -21 31 -28s28.334 -10.5 47.001 -10.5c15.333 0 30.5 3.66699 45.5 11s29.167 17 42.5 29s25.166 25.333 35.499 40
s18.166 29.334 23.499 44.001c12.667 -5.33301 24.334 -8 35.001 -8c12 0 23.5 2.16699 34.5 6.5s21.5 10 31.5 17s19.167 14.5 27.5 22.5s15.833 16 22.5 24c3.33301 4 5.33301 7.83301 6 11.5s1 6.5 1 8.5zM232.997 554.002c0 -14 -5.16797 -31.833 -15.501 -53.5
s-22.666 -43.667 -36.999 -66s-28.833 -43.333 -43.5 -63l-34 -44.5l27 66c10 24 20.667 47 32 69s23 41.333 35 58s24 28 36 34z" />
    <glyph glyph-name="c" unicode="c" horiz-adv-x="335" 
d="M350 148c0 8.66699 -3 16 -9 22s-13.333 9 -22 9c-8 0 -15 -3 -21 -9l-47 -48c-16.667 -17.333 -34.334 -33.333 -53.001 -48s-38.334 -27 -59.001 -37s-42.334 -15 -65.001 -15c-16 0 -29 6.83301 -39 20.5s-15 32.167 -15 55.5c0 22.667 4 43.667 12 63
s17.833 36 29.5 50s24.334 25 38.001 33s26.167 12 37.5 12c10.667 0 18.334 -3 23.001 -9s8.5 -12.667 11.5 -20s6.5 -14 10.5 -20s11 -9 21 -9c6.66699 0 13.334 2.5 20.001 7.5s10 12.167 10 21.5c0 4 -0.333008 7 -1 9c-7.33301 26.667 -19.333 46.5 -36 59.5
s-36 19.5 -58 19.5c-20.667 0 -41.5 -5.5 -62.5 -16.5s-40 -26.167 -57 -45.5s-31 -42.333 -42 -69s-16.5 -56 -16.5 -88c0 -17.333 2.16699 -34 6.5 -50s11 -30.167 20 -42.5s20.333 -22.333 34 -30s29.5 -11.5 47.5 -11.5c29.333 0 56.5 5 81.5 15s48.5 23 70.5 39
s42.833 33.667 62.5 53l58.5 58c6 6 9 13 9 21z" />
    <glyph glyph-name="d" unicode="d" horiz-adv-x="433" 
d="M458 159c0 8 -2.83008 14.8311 -8.49707 20.498s-12.5 8.5 -20.5 8.5c-5.33301 0 -10 -1.16699 -14 -3.5s-7.66699 -5.16602 -11 -8.49902l-30.5 -30c-12.333 -12 -25.333 -23.833 -39 -35.5s-27.5 -21.667 -41.5 -30s-27 -12.5 -39 -12.5c-2 0 -3.83301 2.5 -5.5 7.5
s-2.83398 10.667 -3.50098 17s-1.33398 12.333 -2.00098 18s-1 9.5 -1 11.5c26 34 50.5 71.333 73.5 112s43.167 81 60.5 121s31 77.833 41 113.5s15 65.834 15 90.501c0 8 -0.666992 16.167 -2 24.5s-3.66602 16 -6.99902 23s-7.83301 12.667 -13.5 17
s-12.834 6.5 -21.501 6.5c-14.667 0 -30.334 -7.66699 -47.001 -23s-34.334 -37 -53.001 -65c-22 -34 -40.667 -72.5 -56 -115.5s-27.333 -86.5 -36 -130.5c-8.66699 5.33301 -17.834 9 -27.501 11s-19.5 3 -29.5 3c-30.667 0 -57.5 -7.16699 -80.5 -21.5
s-42 -32.333 -57 -54s-26.167 -45.5 -33.5 -71.5s-11 -50.333 -11 -73c0 -14 1.5 -28 4.5 -42s7.83301 -26.5 14.5 -37.5s15.167 -19.833 25.5 -26.5s22.833 -10 37.5 -10c26 0 52 8.33301 78 25s51 38 75 64c4.66699 -13.333 11.834 -25.833 21.501 -37.5
s23.167 -17.5 40.5 -17.5c15.333 0 31.166 3.5 47.499 10.5s32.333 16.167 48 27.5s30.834 24 45.501 38s28.334 27.667 41.001 41c2.66699 2.66699 5.16699 5 7.5 7s4.5 4.33301 6.5 7c5.33301 5.33301 8 12 8 20zM374.003 558.998
c0 -16.667 -3.33398 -37.1689 -10.001 -61.502s-15.834 -50.833 -27.501 -79.5s-25.167 -58.667 -40.5 -90s-32 -62 -50 -92c6.66699 48.667 17.834 97.334 33.501 146.001s35.5 91.334 59.5 128.001c8.66699 13.333 15.834 23.833 21.501 31.5s10.167 13.5 13.5 17.5z
M184.002 220.996c-2 -24 -3 -47.332 -3 -69.999v-11c-26.667 -34 -51.667 -60.167 -75 -78.5s-44.666 -27.5 -63.999 -27.5c-5.33301 0 -10.833 4 -16.5 12s-8.5 21.667 -8.5 41c0 18 2.66699 36.5 8 55.5s13.166 36.5 23.499 52.5s23 29.167 38 39.5s32.5 15.5 52.5 15.5
c19.333 0 33.333 -8 42 -24c1.33301 -2.66699 2.33301 -4.33398 3 -5.00098z" />
    <glyph glyph-name="e" unicode="e" horiz-adv-x="292" 
d="M314 157c0 8 -2.83691 15.1689 -8.50391 21.502s-12.834 9.5 -21.501 9.5s-15.667 -3.33301 -21 -10l-40 -41c-15.333 -15.333 -31.666 -29.5 -48.999 -42.5s-35 -24 -53 -33s-35.333 -13.5 -52 -13.5c-6.66699 0 -13 1 -19 3s-11.5 5.83301 -16.5 11.5
s-9 13.167 -12 22.5s-4.83301 21.333 -5.5 36c16.667 6 35.5 13.5 56.5 22.5s40.833 19.833 59.5 32.5s34.167 27.667 46.5 45s18.5 37.666 18.5 60.999c0 18 -5.66699 33 -17 45s-27 18 -47 18c-27.333 0 -52.166 -7.16699 -74.499 -21.5s-41.166 -32.333 -56.499 -54
s-27.166 -45.334 -35.499 -71.001s-12.5 -49.834 -12.5 -72.501c0 -48 10.5 -83 31.5 -105s47.5 -33 79.5 -33c24 0 47.333 4.83301 70 14.5s44.334 21.834 65.001 36.501s40 30.667 58 48s34 34 48 50c5.33301 5.33301 8 12 8 20zM135.996 278.002
c0 -10.667 -3.66699 -20.5 -11 -29.5s-16.5 -17.167 -27.5 -24.5s-22.667 -13.833 -35 -19.5s-23.833 -10.5 -34.5 -14.5c4.66699 12 10.5 23.5 17.5 34.5s14.833 21 23.5 30s18 16.167 28 21.5s20.333 8 31 8c5.33301 0 8 -2 8 -6z" />
    <glyph glyph-name="f" unicode="f" horiz-adv-x="240" 
d="M272 575c0 12.667 -1.83301 23.001 -5.5 31.001s-9.83398 12 -18.501 12c-11.333 0 -22.666 -6.33301 -33.999 -19s-20.333 -25.667 -27 -39c-21.333 -42.667 -40.666 -85.667 -57.999 -129l-51 -131l-68 -78l-70 -77c-2 -2 -4 -4.66699 -6 -8s-3 -7.33301 -3 -12
c0 -8.66699 3.16699 -16 9.5 -22s13.5 -9 21.5 -9c8.66699 0 15.667 3.33301 21 10c5.33301 6 10.333 11.333 15 16s9 9.33398 13 14.001l-12 -26.5c-2.66699 -5.66699 -5 -10.834 -7 -15.501s-4.16699 -10 -6.5 -16s-6.16602 -15.333 -11.499 -28l-27.5 -63.5
c-10.333 -23 -19.833 -46.5 -28.5 -70.5s-16 -48 -22 -72s-9 -46.333 -9 -67c0 -23.333 4.66699 -41.666 14 -54.999s22.666 -20 39.999 -20c6.66699 0 13.167 1.16699 19.5 3.5s12.166 5.16602 17.499 8.49902c36 24.667 65.167 56.167 87.5 94.5s33.5 79.166 33.5 122.499
c0 19.333 -2.33301 38.333 -7 57s-11.667 36 -21 52c21.333 0 40.333 2.5 57 7.5s32.334 12 47.001 21s28.334 19.667 41.001 32l39 39.5c5.33301 5.33301 8 12 8 20c0 7.33301 -2.83301 14.333 -8.5 21s-12.834 10 -21.501 10c-9.33301 0 -18.5 -5 -27.5 -15
s-19.5 -20.833 -31.5 -32.5s-26.333 -22.5 -43 -32.5s-37.667 -15 -63 -15c-1.33301 0 -3 0.166992 -5 0.5s-3.66699 0.5 -5 0.5l35 84l33 85c14.667 18 30.667 39.667 48 65s33.166 52 47.499 80s26.333 56.333 36 85s14.5 55.667 14.5 81zM40 -71.999
c0 -30.667 -7.66699 -59.165 -23 -85.498s-33.666 -49.833 -54.999 -70.5c-4 -3.33301 -7.16699 -5.5 -9.5 -6.5l-3.5 -1.5c-2 0 -2.83301 1 -2.5 3s0.5 4.66699 0.5 8c0 16.667 2.5 35.167 7.5 55.5s11.167 40.666 18.5 60.999s15.166 40.333 23.499 60l23.5 53.5
c13.333 -22.667 20 -48.334 20 -77.001z" />
    <glyph glyph-name="g" unicode="g" horiz-adv-x="424" 
d="M447 159c0 7.33301 -2.65918 14.001 -7.99219 20.001s-12.333 9 -21 9s-16.667 -3.66699 -24 -11s-13 -13.166 -17 -17.499l-10.5 -11.5c-3 -3.33301 -6.16699 -6.5 -9.5 -9.5s-7.33301 -6.83301 -12 -11.5c-36 -32 -75.667 -60.667 -119 -86
c7.33301 20 13.666 40 18.999 60s11.666 39.667 18.999 59l12 40c4 14 8.66699 27.667 14 41c3.33301 7.33301 8.16602 16.333 14.499 27s9.5 20 9.5 28c0 7.33301 -2.66699 14 -8 20s-12 9 -20 9c-6.66699 0 -12.334 -1.83301 -17.001 -5.5s-8.66699 -8.16699 -12 -13.5
c-7.33301 5.33301 -15.333 10 -24 14s-18 6 -28 6c-40.667 0 -76.667 -7.66699 -108 -23s-57.833 -34.333 -79.5 -57s-38 -47.334 -49 -74.001s-16.5 -51.334 -16.5 -74.001c0 -23.333 6.16699 -43.5 18.5 -60.5s31.833 -25.5 58.5 -25.5c26 0 51.5 7.5 76.5 22.5
s48.5 33.167 70.5 54.5l-15 -45l-15 -45l-72.5 -36.5c-25.667 -13 -49.5 -28 -71.5 -45s-40.167 -36.833 -54.5 -59.5s-21.5 -49 -21.5 -79c0 -6 0.833008 -13.5 2.5 -22.5s5 -17.833 10 -26.5s12 -16.167 21 -22.5s20.833 -9.5 35.5 -9.5
c25.333 0 48.666 9.66699 69.999 29s40.166 42.666 56.499 69.999s30.666 55.833 42.999 85.5s22.166 54.5 29.499 74.5l51.5 25.5c15 7.66699 29.167 15.834 42.5 24.501c30 17.333 57.167 37.5 81.5 60.5s47.5 47.167 69.5 72.5c5.33301 6.66699 8 13 8 19z
M228.008 254.001c-12.667 -20.667 -27.002 -41.835 -43.002 -63.502s-32.667 -41.167 -50 -58.5s-35.166 -31.666 -53.499 -42.999s-35.833 -17 -52.5 -17c-5.33301 0 -9.66602 1.83301 -12.999 5.5s-5 10.5 -5 20.5c0 14 4.33301 30.667 13 50s21.167 37.833 37.5 55.5
s36.5 32.5 60.5 44.5s51.667 18 83 18c4 0 8 -1.16699 12 -3.5s7.66699 -5.16602 11 -8.49902zM115.006 -84c-6.66699 -16 -14.665 -33.166 -23.998 -51.499s-19.333 -35.5 -30 -51.5s-21.667 -29.167 -33 -39.5s-22.333 -15.5 -33 -15.5
c-1.33301 0 -3.16602 1.16699 -5.49902 3.5s-3.5 8.16602 -3.5 17.499c0 15.333 3.16699 29.333 9.5 42s14.666 24.167 24.999 34.5s22 19.5 35 27.5s26.167 15.667 39.5 23c3.33301 1.33301 6.66602 3 9.99902 5s6.66602 3.66699 9.99902 5z" />
    <glyph glyph-name="h" unicode="h" horiz-adv-x="469" 
d="M492 159c0 8 -2.83301 14.9971 -8.5 20.9971s-12.5 9 -20.5 9c-4.66699 0 -8.66699 -1 -12 -3s-6.33301 -4.33301 -9 -7l-22.5 -23l-32 -32l-35 -32.5c-11.667 -10.333 -21.834 -18.833 -30.501 -25.5c-7.33301 -5.33301 -12.833 -8.66602 -16.5 -9.99902
s-6.16699 -1.16602 -7.5 0.500977s-1.83301 4.83398 -1.5 9.50098s0.5 10 0.5 16c0 16 2.66699 31.5 8 46.5s11.333 30.167 18 45.5s12.667 31 18 47s8 33.667 8 53c0 10.667 -4 22 -12 34s-20.333 18 -37 18c-18 0 -37.5 -7 -58.5 -21s-41.333 -30.833 -61 -50.5
s-38.167 -40.167 -55.5 -61.5l-43 -54l12 50l12 51c34 40 66.833 81.167 98.5 123.5s57.834 88.166 78.501 137.499c5.33301 11.333 10.5 25.333 15.5 42s7.5 32 7.5 46c0 13.333 -3 25.166 -9 35.499s-16.333 15.5 -31 15.5c-10 0 -20.167 -3.16699 -30.5 -9.5
s-20.833 -15.166 -31.5 -26.499c-20 -21.333 -38 -45.666 -54 -72.999s-30.333 -56 -43 -86s-23.5 -60.167 -32.5 -90.5s-16.833 -59.166 -23.5 -86.499l-50 -57.5c-16.667 -19 -34 -37.5 -52 -55.5c-3.33301 -3.33301 -5.5 -6.83301 -6.5 -10.5s-1.5 -7.16699 -1.5 -10.5
c0 -10 3.33301 -17.167 10 -21.5s13.334 -6.5 20.001 -6.5c8.66699 0 16 3.33301 22 10c7.33301 6.66699 12.666 11.834 15.999 15.501s7 7.5 11 11.5c-2.66699 -9.33301 -5.66699 -18.833 -9 -28.5l-10.5 -31.5l-12 -38c-4.33301 -14 -8.83301 -30 -13.5 -48
c-2 -4 -3 -8.33301 -3 -13c0 -8 2.66699 -14.833 8 -20.5s12 -8.5 20 -8.5c3.33301 0 7.33301 0.666992 12 2s9 4.66602 13 9.99902l24 32l36.5 47.5l43.5 56l46.5 57l45.5 51c14.667 15.667 27.667 28.5 39 38.5c12 10 20.167 13.667 24.5 11
s3.16602 -13.334 -3.50098 -32.001c-4 -12.667 -8.66699 -24.667 -14 -36s-10.166 -22.833 -14.499 -34.5s-8 -23.667 -11 -36s-4.5 -25.5 -4.5 -39.5c0 -57.333 21.333 -86 64 -86c10 0 21.333 3.33301 34 10s25.334 15 38.001 25s25.167 20.833 37.5 32.5l33.5 32.5
l26.5 27.5c6.33301 6.33301 11.166 11.5 14.499 15.5c4.66699 5.33301 7 12 7 20zM244 566.997c-4 -16.667 -10.001 -34.501 -18.001 -53.501s-17 -37.5 -27 -55.5s-20.167 -34.667 -30.5 -50s-19.833 -27.666 -28.5 -36.999c10.667 36 24.834 71.667 42.501 107
s38.167 65 61.5 89z" />
    <glyph glyph-name="i" unicode="i" horiz-adv-x="285" 
d="M228 440c0 8 -2.83301 14.999 -8.5 20.999s-12.834 9 -21.501 9c-5.33301 0 -10.833 -1.33301 -16.5 -4s-11 -6.16699 -16 -10.5s-9.16699 -9.16602 -12.5 -14.499s-5 -11 -5 -17c0 -8 2.83301 -15 8.5 -21s12.834 -9 21.501 -9c12.667 0 24.167 4.66699 34.5 14
s15.5 20 15.5 32zM306 156.999c0 8 -2.99219 14.9961 -8.99219 20.9961s-13 9 -21 9c-8.66699 0 -16.334 -4 -23.001 -12c-8 -10 -19.5 -22.667 -34.5 -38s-30.833 -30.166 -47.5 -44.499s-33.167 -26.666 -49.5 -36.999s-29.833 -15.5 -40.5 -15.5
c-4.66699 0 -7 4.33301 -7 13c0 6 1.83301 13.833 5.5 23.5s8.5 21.167 14.5 34.5c3.33301 7.33301 8.66602 18.5 15.999 33.5l22 46.5c7.33301 16 13.666 31.167 18.999 45.5s8 24.5 8 30.5c0 10 -2.83301 17.667 -8.5 23s-12.5 8 -20.5 8
c-14.667 0 -30.334 -5.5 -47.001 -16.5s-33.334 -24 -50.001 -39s-32.167 -30.5 -46.5 -46.5l-35.5 -39c-2 -2 -3.83301 -4.5 -5.5 -7.5s-2.5 -6.5 -2.5 -10.5c0 -8.66699 3.33301 -15.667 10 -21s13.667 -8 21 -8c10 0 18 3.66699 24 11l32 33l38 39l-16 -32
c-6 -12 -11.833 -24.5 -17.5 -37.5s-10.334 -25.833 -14.001 -38.5s-5.5 -24 -5.5 -34c0 -22.667 5.33301 -39.5 16 -50.5s24.667 -16.5 42 -16.5c21.333 0 42.666 5.33301 63.999 16s41.666 23.834 60.999 39.501s37.5 32.334 54.5 50.001s31.5 33.5 43.5 47.5l6.5 9
c2.33301 3.33301 3.5 7 3.5 11z" />
    <glyph glyph-name="j" unicode="j" horiz-adv-x="245" 
d="M167 493c0 3.33301 -0.333008 6.83301 -1 10.5s-1.33398 6.83398 -2.00098 9.50098c-2.66699 8.66699 -6 16.834 -10 24.501s-11.667 11.5 -23 11.5s-19.166 -3.16699 -23.499 -9.5s-6.5 -13.166 -6.5 -20.499c0 -3.33301 0.333008 -6.83301 1 -10.5
s1.33398 -6.83398 2.00098 -9.50098c2.66699 -8.66699 6 -16.834 10 -24.501s11.667 -11.5 23 -11.5s19.166 3.16699 23.499 9.5s6.5 13.166 6.5 20.499zM269 160c0 8.66699 -3.16895 15.8369 -9.50195 21.5039s-13.166 8.5 -20.499 8.5c-8.66699 0 -16 -3.33301 -22 -10
l-23 -23l-20 -21l-37 -40.5c-12 -13.667 -24.667 -27.167 -38 -40.5c4 18.667 7.83301 38 11.5 58s7.5 39.833 11.5 59.5s8.66699 39 14 58s12.333 37.5 21 55.5c2.66699 5.33301 4 11 4 17c0 8 -2.66699 14.167 -8 18.5s-11.666 6.5 -18.999 6.5
c-4.66699 0 -9.33398 -0.833008 -14.001 -2.5s-8.66699 -4.83398 -12 -9.50098l-45.5 -45.5l-45.5 -45.5l-34.5 -35.5l-38.5 -39.5c-6 -6 -9 -13 -9 -21s3 -15 9 -21s13.333 -9 22 -9c8 0 15 3 21 9l40 42l40 43l-23.5 -108c-7.66699 -36 -16.834 -72 -27.501 -108
l-35 -30.5l-32 -28.5l-34.5 -33c-12.333 -12 -24 -24.833 -35 -38.5s-20.5 -27.834 -28.5 -42.501s-13 -29.334 -15 -44.001c0 -3.33301 -0.166992 -6.5 -0.5 -9.5s-0.5 -6.16699 -0.5 -9.5c0 -8.66699 0.833008 -17.5 2.5 -26.5s4.5 -17.167 8.5 -24.5
s9.5 -13.333 16.5 -18s15.833 -7 26.5 -7c14 0 27.667 5 41 15s25.833 22.833 37.5 38.5s22.667 33.667 33 54s19.833 41 28.5 62s16.334 41.333 23.001 61s12.334 37.167 17.001 52.5c26 23.333 51.167 47.166 75.5 71.499l70.5 73.5c7.33301 8 14.333 15.167 21 21.5
l25 24.5c5.33301 6.66699 8 13.667 8 21zM-25.002 -138.997l-29.502 -72.001c-9 -21.333 -17.833 -37.666 -26.5 -48.999c-7.33301 -10 -14 -15 -20 -15s-9 6 -9 18v7c0.666992 3.33301 2.33398 8 5.00098 14s7.16699 13.5 13.5 22.5s14.833 19.667 25.5 32
s24.334 26.5 41.001 42.5z" />
    <glyph glyph-name="k" unicode="k" horiz-adv-x="486" 
d="M508 158c0 5.33301 -1.99902 11.833 -5.99902 19.5s-11.333 11.5 -22 11.5c-8.66699 0 -16 -3.33301 -22 -10l-31.5 -33c-11.667 -12.667 -24.167 -25.5 -37.5 -38.5s-27 -25.333 -41 -37s-27.667 -21.5 -41 -29.5c-3.33301 -2.66699 -7 -4 -11 -4
c-7.33301 0 -12 5 -14 15c-2 12 -4.16699 24.167 -6.5 36.5s-7.5 22.5 -15.5 30.5c26.667 15.333 49.334 35.333 68.001 60s28 56 28 94c0 20.667 -5.66699 35.167 -17 43.5s-24.333 12.5 -39 12.5c-13.333 0 -27 -2.66699 -41 -8s-25.667 -11.666 -35 -18.999
c-22.667 -17.333 -44.167 -37.833 -64.5 -61.5s-39.166 -47.834 -56.499 -72.501l13.5 51c4.33301 16.667 9.16602 33.667 14.499 51c12.667 18 27.167 40.833 43.5 68.5s31.833 56.834 46.5 87.501s27 60.834 37 90.501s15 55.5 15 77.5c0 10.667 -2.5 19.167 -7.5 25.5
s-11.833 9.5 -20.5 9.5c-8 0 -16.333 -3 -25 -9s-16.667 -14.667 -24 -26c-8 -12 -15.5 -24.667 -22.5 -38s-13.333 -26.333 -19 -39s-10.5 -24.5 -14.5 -35.5s-7 -19.5 -9 -25.5c-9.33301 -29.333 -18.666 -56.833 -27.999 -82.5s-18.333 -52.5 -27 -80.5
c-9.33301 -13.333 -20 -25.5 -32 -36.5s-23 -22.5 -33 -34.5c-8 -9.33301 -16.333 -18.5 -25 -27.5l-27 -28.5c-5.33301 -4.66699 -8 -11.334 -8 -20.001c0 -7.33301 2.5 -14.333 7.5 -21s12.167 -10 21.5 -10c8 0 15.333 3.33301 22 10l20.5 21l17.5 18l-13.5 -43.5
c-5 -16.333 -9.66699 -32.333 -14 -48l-11 -41c-3 -11.667 -4.5 -19.5 -4.5 -23.5c0 -7.33301 2.16699 -14.333 6.5 -21s11.166 -10 20.499 -10c5.33301 0 10.166 1.5 14.499 4.5s8.16602 6.83301 11.499 11.5l22.5 35l18 28l16.5 25.5l18 27.5
c5.33301 8 14.833 20.667 28.5 38s28.667 34.833 45 52.5s32.5 33.167 48.5 46.5s28.667 20 38 20c6 0 9 -3.33301 9 -10c0 -14 -3.5 -27.333 -10.5 -40s-15.833 -23.834 -26.5 -33.501s-22.5 -18 -35.5 -25s-25.5 -12.167 -37.5 -15.5c-6 -1.33301 -11 -5 -15 -11
s-6 -12.333 -6 -19c0 -11.333 6 -19.333 18 -24c4.66699 -2 9 -3 13 -3s8.33301 -1 13 -3c7.33301 -3.33301 11.833 -11.166 13.5 -23.499l5 -38.5c1.66699 -13.333 5 -25.333 10 -36s14.833 -16 29.5 -16c6.66699 0 13 0.833008 19 2.5s11.667 3.5 17 5.5
c20.667 7.33301 40 17 58 29s35 25.333 51 40s31.5 30.167 46.5 46.5l44.5 47.5c4.66699 5.33301 7 11.666 7 18.999z" />
    <glyph glyph-name="l" unicode="l" horiz-adv-x="277" 
d="M315 581c0 18 -4 33.501 -12 46.501s-20.667 19.5 -38 19.5c-14.667 0 -29.167 -5 -43.5 -15s-27.666 -21.667 -39.999 -35s-23.333 -27 -33 -41s-16.834 -25.333 -21.501 -34c-12 -20.667 -23.833 -43.167 -35.5 -67.5s-22.667 -49.666 -33 -75.999s-20 -53.333 -29 -81
s-16.833 -54.834 -23.5 -81.501l-32 -34.5l-33 -34.5c-6 -7.33301 -9 -14.666 -9 -21.999s2.83301 -14.333 8.5 -21s12.834 -10 21.501 -10s15.667 3.33301 21 10l6 6c-0.666992 -6 -1 -12 -1 -18v-18c0 -38 6.5 -66.833 19.5 -86.5s31.5 -29.5 55.5 -29.5
c13.333 0 27 3.16699 41 9.5s27.667 14.5 41 24.5c24 19.333 46.5 40 67.5 62l62.5 66l8 8c4.66699 4 8.66699 8.16699 12 12.5s5 9.83301 5 16.5c0 8.66699 -3 15.834 -9 21.501s-13 8.5 -21 8.5c-3.33301 0 -6.83301 -0.5 -10.5 -1.5s-7.16699 -3.5 -10.5 -7.5l-9 -9
l-9 -9l-32 -34.5c-14.667 -15.667 -30.334 -31.5 -47.001 -47.5s-33 -30 -49 -42s-28.333 -18 -37 -18c-1.33301 0 -3 0.5 -5 1.5s-4 3.33301 -6 7s-3.66699 9.16699 -5 16.5s-2 17.666 -2 30.999c0 37.333 4 74.666 12 111.999l46 53l46 55l45.5 54.5
c15.667 18.333 30.667 37.166 45 56.499s27.333 39.333 39 60s20.5 42.667 26.5 66c4.66699 18 7 34.667 7 50zM256 585.001c-1.33301 -22.667 -7.00098 -45.501 -17.001 -68.501s-21.333 -43.167 -34 -60.5l-47 -62.5l-55 -68.5l26 63.5c9.33301 22.333 19.333 44 30 65
s21.667 40.833 33 59.5s23 34.334 35 47.001c7.33301 7.33301 13.333 13 18 17s8.33398 6.66699 11.001 8z" />
    <glyph glyph-name="m" unicode="m" horiz-adv-x="694" 
d="M718 159c0 7.33301 -2.66992 14.3271 -8.00293 20.9941s-12.666 10 -21.999 10c-4.66699 0 -8.33398 -1 -11.001 -3s-5.33398 -4.66699 -8.00098 -8l-30 -30l-30 -29l-11.5 -11.5l-17 -17l-19.5 -19c-6.66699 -6.33301 -13 -11.833 -19 -16.5
c-8.66699 -6.66699 -14.667 -10 -18 -10c-2 0 -3 1.33301 -3 4c0 4 1.33301 9.66699 4 17c1.33301 3.33301 2.5 6.66602 3.5 9.99902s2.16699 6.66602 3.5 9.99902l13.5 31.5c4.33301 9.66699 8.33301 19.5 12 29.5s6.5 20.5 8.5 31.5s3 23.167 3 36.5
c0 6.66699 -1 13.834 -3 21.501s-5.16699 14.834 -9.5 21.501s-10 12.167 -17 16.5s-15.5 6.5 -25.5 6.5c-15.333 0 -30.666 -3.66699 -45.999 -11s-30.166 -16.666 -44.499 -27.999s-27.833 -24 -40.5 -38s-24.334 -28 -35.001 -42
c5.33301 14.667 9.33301 29.334 12 44.001s4 29.667 4 45c0 22 -5.16699 39 -15.5 51s-24.166 18 -41.499 18c-20.667 0 -40.667 -6.66699 -60 -20c-17.333 -12 -34.333 -25.667 -51 -41s-31.667 -30 -45 -44c0 12.667 -3.66699 24.5 -11 35.5s-19.666 16.5 -36.999 16.5
c-15.333 0 -29.833 -3.83301 -43.5 -11.5s-26.834 -17.167 -39.501 -28.5c-13.333 -12 -26 -24.667 -38 -38s-24.333 -26.333 -37 -39c-4.66699 -5.33301 -7 -11 -7 -17c0 -7.33301 2.83301 -14.5 8.5 -21.5s13.167 -10.5 22.5 -10.5c5.33301 0 9.83301 1.16699 13.5 3.5
s6.5 4.83301 8.5 7.5c2.66699 2.66699 8.5 8.83398 17.5 18.501l29 30l30 29c9.66699 9 17.167 14.167 22.5 15.5c0 -1.33301 0.166992 -3 0.5 -5s0.166016 -3.66699 -0.500977 -5c-1.33301 -13.333 -4.66602 -26.166 -9.99902 -38.499s-11.833 -24.333 -19.5 -36
s-15.667 -23 -24 -34l-23.5 -31.5c-5.33301 -6.66699 -10.5 -14.167 -15.5 -22.5s-7.5 -16.833 -7.5 -25.5s2.83301 -15.667 8.5 -21s12.167 -8 19.5 -8c6 0 14.5 5.5 25.5 16.5s22.333 23.5 34 37.5s22.334 27.667 32.001 41s16.167 22.666 19.5 27.999
s10.833 14.5 22.5 27.5l39.5 42l45.5 44.5c15.667 14.667 29.5 26.667 41.5 36c10.667 7.33301 17.334 11 20.001 11c4 0 6 -4.66699 6 -14c0 -20.667 -3.16699 -41 -9.5 -61s-13.833 -39.667 -22.5 -59l-23 -51c-8.66699 -19.333 -13 -37 -13 -53
c0 -9.33301 4.16699 -16.666 12.5 -21.999s16.5 -8 24.5 -8c12 0 22.667 4.33301 32 13s17.333 17.334 24 26.001c8 10 19.333 25.5 34 46.5s30.667 42 48 63s34.333 39.5 51 55.5s31 24 43 24c2.66699 0 4 -4 4 -12c0 -14.667 -2.5 -28.667 -7.5 -42
s-10.5 -26.666 -16.5 -39.999s-11.5 -26.833 -16.5 -40.5s-7.5 -28.167 -7.5 -43.5c0 -16 4.16699 -30.167 12.5 -42.5s21.166 -18.5 38.499 -18.5c9.33301 0 18.833 2 28.5 6s18.834 9 27.501 15s16.834 12.5 24.501 19.5l20.5 18.5l49.5 47
c16.333 16 32.166 32.333 47.499 49c5.33301 5.33301 8 12 8 20z" />
    <glyph glyph-name="n" unicode="n" horiz-adv-x="535" 
d="M557 159c0 8.66699 -3.16797 15.6699 -9.50098 21.0029s-13.166 8 -20.499 8c-8.66699 0 -16 -3.33301 -22 -10l-34 -36c-3.33301 -4 -10.166 -10.833 -20.499 -20.5l-34.5 -32l-39 -34.5c-13.333 -11.333 -25 -20.333 -35 -27l-11.5 -6.5
c-3 -1.66699 -5.5 -2.5 -7.5 -2.5c-3.33301 0 -5 2 -5 6c0 4.66699 2 11.667 6 21c4.66699 12 10 25 16 39s11.667 28.167 17 42.5s9.83301 28.666 13.5 42.999s5.5 27.833 5.5 40.5c0 18 -5 32.667 -15 44s-26.667 17 -50 17c-18 0 -36.5 -4 -55.5 -12s-37.333 -18 -55 -30
s-34.667 -25.333 -51 -40s-30.833 -28.667 -43.5 -42c2.66699 9.33301 5 19.166 7 29.499s3.66699 20.5 5 30.5c0.666992 4.66699 1.16699 9.33398 1.5 14.001s0.5 9.66699 0.5 15c0 6 -0.666992 11.667 -2 17s-4.33301 10.666 -9 15.999
c-7.33301 8.66699 -16.666 13 -27.999 13c-14 0 -26 -6.66699 -36 -20l-22.5 -27c-7.66699 -9.33301 -16.167 -19 -25.5 -29c-11.333 -12 -20.166 -21.833 -26.499 -29.5s-13.833 -15.5 -22.5 -23.5c-6 -6 -9 -13 -9 -21s2.83301 -15 8.5 -21s12.5 -9 20.5 -9
c8.66699 0 15.667 3 21 9l26 26c6.66699 6.66699 15 15.667 25 27l6 7c-6 -26.667 -13.167 -52.334 -21.5 -77.001s-17.833 -50.667 -28.5 -78c-1.33301 -3.33301 -2 -8 -2 -14c0 -8 2.66699 -14.833 8 -20.5s12 -8.5 20 -8.5c9.33301 0 17.666 4 24.999 12l45 55.5
c18 22.333 37.5 44.5 58.5 66.5s42.667 42.167 65 60.5s43.5 30.833 63.5 37.5c2.66699 0.666992 6.16699 1.66699 10.5 3s8.83301 2 13.5 2c3.33301 0 6.16602 -0.833008 8.49902 -2.5s3.5 -4.16699 3.5 -7.5c0 -2 -0.166992 -4 -0.5 -6s-0.833008 -4.33301 -1.5 -7
c-2.66699 -13.333 -7 -27 -13 -41l-18.5 -43c-6.33301 -14.667 -11.833 -29 -16.5 -43s-7 -27 -7 -39c0 -18 5.16699 -32.333 15.5 -43s24.166 -16 41.499 -16c10.667 0 22.167 2.33301 34.5 7s24.833 11.667 37.5 21c12 8.66699 24.167 18 36.5 28s24 20 35 30l31 29
l25.5 25c2 2 4.5 4.66699 7.5 8s6.33301 6.83301 10 10.5l10 10l6.5 6.5c5.33301 6.66699 8 13.667 8 21z" />
    <glyph glyph-name="o" unicode="o" horiz-adv-x="456" 
d="M477 156c0 8.66699 -3.16602 15.502 -9.49902 20.502s-13.166 7.5 -20.499 7.5c-9.33301 0 -17 -3.33301 -23 -10l-16 -16.5c-6.66699 -7 -13.834 -14 -21.501 -21s-15.334 -13 -23.001 -18s-14.167 -7.5 -19.5 -7.5s-11.666 4.16699 -18.999 12.5
s-14.666 21.5 -21.999 39.5c-0.666992 9.33301 -1.33398 18.166 -2.00098 26.499s-2 16.5 -4 24.5c-2 8.66699 -5.66699 19 -11 31s-12.333 20.333 -21 25c1.33301 2.66699 2 6.66699 2 12c0 14.667 -5.16699 24.334 -15.5 29.001s-19.833 7 -28.5 7
c-19.333 0 -38.166 -2.5 -56.499 -7.5s-35.666 -11.5 -51.999 -19.5s-31.5 -16.667 -45.5 -26s-26.333 -18.333 -37 -27c-15.333 -13.333 -30.166 -27.333 -44.499 -42s-27.833 -29.334 -40.5 -44.001c-5.33301 -6.66699 -8 -13.334 -8 -20.001c0 -8 3 -15 9 -21
s13 -9 21 -9c8.66699 0 16 3.66699 22 11l19.5 21.5c6.33301 7 13.166 13.833 20.499 20.5c-6.66699 -16.667 -11.834 -33.834 -15.501 -51.501s-5.5 -35.167 -5.5 -52.5c0 -39.333 8.66699 -68.333 26 -87s39.666 -28 66.999 -28c16.667 0 34 3.5 52 10.5
s35.167 16.667 51.5 29s31.5 26.833 45.5 43.5s25 34.667 33 54c15.333 -15.333 33.333 -23 54 -23c13.333 0 26.5 3.16699 39.5 9.5s25.167 14 36.5 23s21.666 18.5 30.999 28.5l23 25c5.33301 6.66699 8 13.334 8 20.001zM241.001 151.002
c-1.33301 -23.333 -6.66797 -44.502 -16.001 -63.502s-20.666 -35.167 -33.999 -48.5s-27.5 -23.833 -42.5 -31.5s-28.5 -11.5 -40.5 -11.5c-9.33301 0 -17.833 3.83301 -25.5 11.5s-11.5 23.834 -11.5 48.501c0 16.667 2.66699 36.334 8 59.001s13.5 44.167 24.5 64.5
s25 37.666 42 51.999s37.167 21.5 60.5 21.5h9c2.66699 0 5.66699 -0.333008 9 -1c-0.666992 -2 -1 -5.33301 -1 -10c0 -10.667 1.5 -24.167 4.5 -40.5s7.5 -33.166 13.5 -50.499z" />
    <glyph glyph-name="p" unicode="p" horiz-adv-x="517" 
d="M533 152c0 7.33301 -2.50586 14.334 -7.50586 21.001s-12.167 10 -21.5 10c-8.66699 0 -15.667 -3.33301 -21 -10l-39.5 -40c-13 -13.333 -26.833 -26.333 -41.5 -39c-8.66699 -7.33301 -19 -14.666 -31 -21.999s-24.667 -13.833 -38 -19.5s-27.166 -10.667 -41.499 -15
s-28.5 -7.16602 -42.5 -8.49902c18 11.333 36.333 25.166 55 41.499s35.667 34 51 53s27.833 39.167 37.5 60.5s14.5 43 14.5 65c0 20 -5.66699 37.5 -17 52.5s-29 22.5 -53 22.5c-18 0 -36.833 -4.16699 -56.5 -12.5s-39 -18.833 -58 -31.5s-36.667 -26 -53 -40
s-30.5 -27 -42.5 -39l3 11c3.33301 11.333 7.16602 21.833 11.499 31.5s6.5 21.167 6.5 34.5c0 12 -3.16699 20.333 -9.5 25s-13.166 7 -20.499 7c-2.66699 0 -5.33398 -0.166992 -8.00098 -0.5s-5.33398 -0.5 -8.00098 -0.5c-6.66699 0 -14.334 -3.33301 -23.001 -10
s-17.167 -14.667 -25.5 -24s-16.166 -18.666 -23.499 -27.999s-13 -16.333 -17 -21c-14 -17.333 -27.167 -32.833 -39.5 -46.5s-21.833 -23.5 -28.5 -29.5s-10 -13.333 -10 -22c0 -8 2.83301 -15.167 8.5 -21.5s12.834 -9.5 21.501 -9.5s15.667 3.33301 21 10
c6.66699 7.33301 16.334 17.333 29.001 30s25.667 27.334 39 44.001c4 5.33301 7.33301 9.33301 10 12l-15.5 -52l-15.5 -51l-49.5 -70.5l-43.5 -61.5l-34.5 -49.5c-13.667 -19.667 -26.667 -40.334 -39 -62.001s-22.833 -43.5 -31.5 -65.5s-13 -41.667 -13 -59
c0 -18 4.83301 -32.667 14.5 -44s22.167 -17 37.5 -17c8.66699 0 17.167 2 25.5 6s15.833 9.33301 22.5 16c14 14 28.5 35.167 43.5 63.5s29.667 60.333 44 96s28 73 41 112l36.5 109.5c14.667 20 30.834 39.667 48.501 59s35.834 37.5 54.501 54.5s37.5 32 56.5 45
s37.833 23.5 56.5 31.5c12.667 5.33301 23.334 8 32.001 8s13 -4.66699 13 -14c0 -10.667 -3.16699 -22.834 -9.5 -36.501s-14.833 -27.834 -25.5 -42.501s-22.667 -29 -36 -43s-26.666 -26.5 -39.999 -37.5s-26.333 -19.833 -39 -26.5s-23.667 -10 -33 -10
s-16.833 2.16699 -22.5 6.5s-12.5 6.5 -20.5 6.5c-7.33301 0 -14.5 -2.5 -21.5 -7.5s-10.5 -12.833 -10.5 -23.5c0 -5.33301 1.5 -10.333 4.5 -15s6.83301 -8.66699 11.5 -12c20.667 -12.667 41.834 -21.667 63.501 -27s43.167 -8 64.5 -8c38 0 74.5 7.33301 109.5 22
s65.833 32.667 92.5 54l45 40c14.667 13.333 29 27.666 43 42.999c6 6 9 13 9 21zM-31.0059 -101.999l-20.501 -52.998c-7.66699 -19.333 -15.5 -37.5 -23.5 -54.5s-15.667 -31.833 -23 -44.5s-13.666 -20.334 -18.999 -23.001c0 14.667 3.16699 30.167 9.5 46.5
s14 32.166 23 47.499s18.333 30 28 44z" />
    <glyph glyph-name="q" unicode="q" horiz-adv-x="445" 
d="M452 142c0 8.66699 -3.00586 16.0029 -9.00586 22.0029s-13 9 -21 9c-4.66699 0 -8.66699 -1 -12 -3s-6.33301 -4.33301 -9 -7l-37 -37.5c-12.667 -12.333 -26.167 -23.833 -40.5 -34.5s-29.333 -19.834 -45 -27.501s-32.5 -12.834 -50.5 -15.501l55.5 100l53.5 96
c2.66699 4.66699 4 10 4 16c0 9.33301 -3.16699 16.666 -9.5 21.999s-13.166 8 -20.499 8c-10 0 -17.833 -3.83301 -23.5 -11.5l-16.5 -22.5c-8.66699 21.333 -21.167 38.5 -37.5 51.5s-37.166 19.5 -62.499 19.5c-24 0 -48.833 -6.66699 -74.5 -20s-49 -30.5 -70 -51.5
s-38.333 -45 -52 -72s-20.5 -53.833 -20.5 -80.5c0 -24 7.33301 -44.167 22 -60.5s37.667 -24.5 69 -24.5c18 0 39.5 7.16699 64.5 21.5s49.5 31.166 73.5 50.499l-20.5 -38.5c-7 -13.667 -14.167 -26.834 -21.5 -39.501c-3.33301 -7.33301 -10.833 -20.666 -22.5 -39.999
s-24.167 -41.333 -37.5 -66l-11 -20c-4.66699 -8.66699 -9.66699 -18.667 -15 -30l-12.5 -30c-5 -12 -9.5 -24.667 -13.5 -38s-6.83301 -26.833 -8.5 -40.5s-1 -26 2 -37s8.83301 -20 17.5 -27s21.334 -10.5 38.001 -10.5c19.333 0 36.833 5.5 52.5 16.5
s29.334 25.667 41.001 44s21.5 39 29.5 62s14.333 46.167 19 69.5s7.83398 45.833 9.50098 67.5s1.83398 40.167 0.500977 55.5c21.333 2.66699 42.5 8.66699 63.5 18s39.5 19.333 55.5 30c18 12 34.5 25.5 49.5 40.5l45.5 45.5c5.33301 6.66699 8 13.334 8 20.001z
M229.994 211.003c-15.333 -16 -31.9961 -31.832 -49.9961 -47.499s-35.5 -29.834 -52.5 -42.501s-32.833 -23 -47.5 -31s-26.334 -12 -35.001 -12c-12 0 -20.167 2.5 -24.5 7.5s-6.5 11.833 -6.5 20.5c0 16 5.16699 33.5 15.5 52.5s23.166 36.5 38.499 52.5s32 29.333 50 40
s35 16 51 16c8.66699 0 15.667 -1.33301 21 -4s9.66602 -6.33398 12.999 -11.001s6.33301 -9.66699 9 -15s5.66699 -10.666 9 -15.999c1.33301 -2 2.66602 -3.83301 3.99902 -5.5s3 -3.16699 5 -4.5zM166.998 -61.9961c-2 -18 -4.83496 -38.8301 -8.50195 -62.4971
s-8.66699 -46 -15 -67s-14.166 -38.833 -23.499 -53.5s-20.333 -22 -33 -22c-2 0 -3.66699 0.666992 -5 2s-1.66602 5.66602 -0.999023 12.999c0.666992 9.33301 3.16699 20.166 7.5 32.499s9.33301 24.833 15 37.5s11.667 25 18 37l15.5 30l15.5 28
c5 9.33301 9.83301 17.666 14.5 24.999z" />
    <glyph glyph-name="r" unicode="r" horiz-adv-x="408" 
d="M432 161c0 8 -2.83008 15.167 -8.49707 21.5s-12.834 9.5 -21.501 9.5s-15.667 -3.33301 -21 -10l-43 -46.5c-17.333 -19 -35.5 -37.167 -54.5 -54.5s-38.333 -32.333 -58 -45s-37.834 -19 -54.501 -19c-15.333 0 -23 7.33301 -23 22c0 15.333 4.5 30.666 13.5 45.999
s19 30.833 30 46.5s21 32 30 49s13.5 34.833 13.5 53.5c0 20 -4.66699 34.833 -14 44.5s-20.5 17.167 -33.5 22.5s-26.5 10.166 -40.5 14.499s-25.667 11.166 -35 20.499c-1.33301 1.33301 -1.66602 2.83301 -0.999023 4.5s1 3.16699 1 4.5
c-1.33301 10 -5.66602 18 -12.999 24s-16 9 -26 9c-8.66699 0 -18 -2.83301 -28 -8.5s-15 -15.167 -15 -28.5c0 -6.66699 1 -11.667 3 -15s5 -7.33301 9 -12c1.33301 -2.66699 2 -5 2 -7c0 -10 -0.833008 -18.667 -2.5 -26s-4.16699 -14.666 -7.5 -21.999
c-5.33301 -9.33301 -12.333 -20 -21 -32s-16.667 -22.333 -24 -31l-17 -16.5c-6 -5.66699 -9 -12.5 -9 -20.5c0 -9.33301 3.33301 -16.5 10 -21.5s13.667 -7.5 21 -7.5c3.33301 0 7.16602 0.666992 11.499 2s8.16602 4 11.499 8c8 8 16.167 17.167 24.5 27.5
s16.5 21 24.5 32s15.167 22.333 21.5 34s11.166 23.5 14.499 35.5c6 -2.66699 12.333 -5 19 -7l20 -6c8 -3.33301 15.667 -6.16602 23 -8.49902s11 -6.83301 11 -13.5c0 -12 -4.5 -25.333 -13.5 -40l-29.5 -46.5c-10.667 -16.333 -20.5 -34 -29.5 -53
s-13.5 -39.167 -13.5 -60.5c0 -24 7.83301 -42.667 23.5 -56s34.167 -20 55.5 -20c24 0 48 6.33301 72 19s47 28.334 69 47.001s42.667 38.5 62 59.5l52 56.5c6 6 9 13 9 21z" />
    <glyph glyph-name="s" unicode="s" horiz-adv-x="360" 
d="M380 156c0 7.33301 -2.50293 14.3369 -7.50293 21.0039s-12.167 10 -21.5 10c-8.66699 0 -15.667 -3.33301 -21 -10l-39.5 -42c-15 -16 -30.5 -31.667 -46.5 -47s-32.333 -29.833 -49 -43.5s-32.667 -23.834 -48 -30.501c8.66699 6 16.667 14.333 24 25
s13.333 22.334 18 35.001s8.33398 25.334 11.001 38.001s4 24 4 34c0 19.333 -3.83301 38 -11.5 56s-16 35.167 -25 51.5s-17.167 32.166 -24.5 47.499s-11 29.666 -11 42.999c0 10 -3.16699 17.667 -9.5 23s-13.166 8 -20.499 8s-14 -2.5 -20 -7.5
s-9.33301 -12.167 -10 -21.5c-0.666992 -10.667 -3 -21.834 -7 -33.501s-9.33301 -23.334 -16 -35.001s-13.834 -23 -21.501 -34s-15.5 -20.833 -23.5 -29.5l-33 -36l-30 -31c-6 -6 -9 -13 -9 -21s2.83301 -15.167 8.5 -21.5s12.834 -9.5 21.501 -9.5s16 3.33301 22 10
c22.667 23.333 44 46.333 64 69s37.667 49 53 79l13 -24.5l14 -28c4.66699 -9.66699 8.5 -19.167 11.5 -28.5s4.5 -18 4.5 -26c0 -13.333 -2.16699 -26.666 -6.5 -39.999s-10.166 -25.5 -17.499 -36.5s-15.666 -20.333 -24.999 -28s-19 -12.5 -29 -14.5
c-8.66699 4.66699 -16 9.33398 -22 14.001s-12.667 10.334 -20 17.001c-5.33301 5.33301 -12 8 -20 8c-8.66699 0 -15.834 -2.83301 -21.501 -8.5s-8.5 -12.834 -8.5 -21.501c0 -7.33301 1.83301 -15 5.5 -23s9 -15.333 16 -22s15.167 -12.334 24.5 -17.001
s20 -7.33398 32 -8.00098c10 -4.66699 20.833 -6.66699 32.5 -6s24.167 1 37.5 1c27.333 0 52.333 5.83301 75 17.5s44 26.167 64 43.5s39 36 57 56s35.667 38.667 53 56c6 7.33301 9 14.666 9 21.999z" />
    <glyph glyph-name="t" unicode="t" horiz-adv-x="257" 
d="M282 158c0 8.66699 -2.99902 15.999 -8.99902 21.999s-13 9 -21 9c-8.66699 0 -16 -3.16699 -22 -9.5l-17 -18.5l-35.5 -36c-13.667 -14 -28.334 -27.5 -44.001 -40.5s-31.667 -24 -48 -33s-31.5 -13.5 -45.5 -13.5c-6 0 -12.167 2.83301 -18.5 8.5s-9.5 16.5 -9.5 32.5
s3 33.167 9 51.5s13.167 36.5 21.5 54.5s17.333 35.333 27 52l26.5 46h117c10 0 17.5 3.16699 22.5 9.5s7.5 13.166 7.5 20.499s-2.5 14.166 -7.5 20.499s-12.5 9.5 -22.5 9.5h-83l19.5 38l21 42l19.5 40c6 12.667 11.333 23.334 16 32.001
c2.66699 4.66699 4 9.33398 4 14.001c0 8 -2.83301 15 -8.5 21s-12.834 9 -21.501 9c-12 0 -21 -5.66699 -27 -17l-19.5 -38l-24 -48.5l-25 -50l-22.5 -42.5h-75c-10 0 -17.5 -3.16699 -22.5 -9.5s-7.5 -13.166 -7.5 -20.499s2.5 -14.166 7.5 -20.499s12.5 -9.5 22.5 -9.5
h41l-28.5 -50c-9 -16 -17.167 -32.333 -24.5 -49s-13.166 -33.834 -17.499 -51.501s-6.5 -36.834 -6.5 -57.501c0 -33.333 8.5 -57.666 25.5 -72.999s36.167 -23 57.5 -23c22.667 0 44.667 5 66 15s41.833 22.5 61.5 37.5s38.167 31.167 55.5 48.5l48 49l11.5 13
c3.66699 4 5.5 9.33301 5.5 16z" />
    <glyph glyph-name="u" unicode="u" horiz-adv-x="559" 
d="M585 162c0 8.66699 -3.16895 15.833 -9.50195 21.5s-13.5 8.5 -21.5 8.5c-8.66699 0 -15.667 -3.33301 -21 -10l-36.5 -39c-15 -16 -31 -31.833 -48 -47.5s-33.833 -29.167 -50.5 -40.5s-31 -17 -43 -17c-2.66699 0 -5.16699 0.833008 -7.5 2.5s-3.5 8.16699 -3.5 19.5
c0 16 2.5 33.833 7.5 53.5s11.167 39.5 18.5 59.5s15 39.5 23 58.5s14.667 36.5 20 52.5c2 4 3 8 3 12c0 5.33301 -2 11.333 -6 18s-11 10 -21 10c-10.667 0 -19.167 -4.33301 -25.5 -13l-17.5 -24c-15.333 -23.333 -31.5 -45 -48.5 -65s-35.167 -40 -54.5 -60
c-5.33301 -5.33301 -13 -13.666 -23 -24.999s-21 -23.166 -33 -35.499l-36.5 -36c-12.333 -11.667 -23.5 -20.834 -33.5 -27.501c-7.33301 -4 -12.333 -6 -15 -6c-4 0 -6 4 -6 12c0 4.66699 0.333008 8.33398 1 11.001c2 19.333 7.33301 40.833 16 64.5
s17.667 44.167 27 61.5l13 22.5c4.66699 8.33301 9 17 13 26s7.33301 18 10 27s4 17.5 4 25.5c0 10 -3 18.5 -9 25.5s-15.333 10.5 -28 10.5c-11.333 0 -23 -3 -35 -9s-23.5 -13.333 -34.5 -22s-21 -17.667 -30 -27s-16.167 -17 -21.5 -23l-21 -25l-18 -21l-18.5 -20
l-22.5 -23c-6 -6 -9 -13 -9 -21c0 -8.66699 3 -16 9 -22s13 -9 21 -9c8.66699 0 16 3.33301 22 10l41.5 44.5c11.667 12.333 25.5 28.166 41.5 47.499c3.33301 4 7.66602 8.83301 12.999 14.5s11 11.167 17 16.5c-7.33301 -13.333 -14.666 -27.833 -21.999 -43.5
s-14 -31.834 -20 -48.501s-10.833 -33.334 -14.5 -50.001s-5.5 -33 -5.5 -49c0 -22.667 4.83301 -39.667 14.5 -51s22.834 -17 39.501 -17c14 0 28.167 3.5 42.5 10.5s26.833 14.833 37.5 23.5c7.33301 5.33301 15.833 12.5 25.5 21.5l31 30l33.5 34.5l33 35
c-3.33301 -11.333 -5.83301 -23 -7.5 -35s-2.5 -23.667 -2.5 -35c0 -26 6 -45.333 18 -58s27.667 -19 47 -19c20.667 0 42.667 6 66 18s43 25.333 59 40c18.667 16.667 36.334 34 53.001 52l51 54c3.33301 3.33301 5.5 6.83301 6.5 10.5s1.5 6.83398 1.5 9.50098z" />
    <glyph glyph-name="v" unicode="v" horiz-adv-x="467" 
d="M491 159c0 8 -2.83105 14.999 -8.49805 20.999s-12.834 9 -21.501 9c-7.33301 0 -13.833 -2.33301 -19.5 -7s-11.334 -9.83398 -17.001 -15.501s-11.834 -10.834 -18.501 -15.501s-14.667 -7 -24 -7c-2.66699 0 -6.16699 2.33301 -10.5 7s-7.5 17.334 -9.5 38.001
c5.33301 12.667 9.66602 25.834 12.999 39.501s5 28.167 5 43.5c0 21.333 -3.33301 37.5 -10 48.5s-15 16.5 -25 16.5c-7.33301 0 -13.833 -2.5 -19.5 -7.5s-10.334 -11.333 -14.001 -19s-6.5 -16.167 -8.5 -25.5s-3 -18.666 -3 -27.999v-25v-16
c0 -5.33301 0.333008 -10.666 1 -15.999c-7.33301 -13.333 -16.333 -26.5 -27 -39.5l-35 -41.5c-3.33301 -4 -9.66602 -11 -18.999 -21l-31 -32.5l-34 -33.5c-11.333 -10.667 -21 -18.667 -29 -24c-7.33301 -4.66699 -11.666 -7 -12.999 -7c-3.33301 0 -5 5.33301 -5 16
s1.66699 23.667 5 39s7.16602 31.166 11.499 47.499s8.83301 32.166 13.5 47.499l12 40c4 14 7.5 27.333 10.5 40s4.5 23.334 4.5 32.001c0 8 -2.66699 15 -8 21s-12.333 9 -21 9c-16.667 0 -33.167 -4.5 -49.5 -13.5s-32.333 -20.167 -48 -33.5
s-30.334 -27.5 -44.001 -42.5l-36.5 -39.5c-2 -2 -4.16699 -4.83301 -6.5 -8.5s-3.5 -8.16699 -3.5 -13.5c0 -7.33301 2.83301 -14.166 8.5 -20.499s12.834 -9.5 21.501 -9.5c2.66699 0 6 0.5 10 1.5s7.66699 3.16699 11 6.5l45.5 48.5c15 16.333 31.833 31.166 50.5 44.499
c-5.33301 -14.667 -10.666 -30.334 -15.999 -47.001s-10.333 -33.667 -15 -51s-8.33398 -34.5 -11.001 -51.5s-4 -33.167 -4 -48.5c0 -20 3.83301 -37.833 11.5 -53.5s22.167 -23.5 43.5 -23.5c10 0 23.833 6 41.5 18s35.667 25.833 54 41.5s35.333 31.334 51 47.001
s26.834 27.167 33.501 34.5c5.33301 6.66699 11 13.167 17 19.5s11.667 13.166 17 20.499c7.33301 -11.333 17 -20.166 29 -26.499s24.667 -9.5 38 -9.5c22 0 40.833 5.83301 56.5 17.5s29.167 24.167 40.5 37.5c2.66699 3.33301 4.83398 6.5 6.50098 9.5
s2.5 6.83301 2.5 11.5z" />
    <glyph glyph-name="w" unicode="w" horiz-adv-x="622" 
d="M646 161c0 7.33301 -2.5 14.3311 -7.5 20.998s-12.167 10 -21.5 10c-7.33301 0 -13.166 -2.33301 -17.499 -7s-9.16602 -9.33398 -14.499 -14.001c-2.66699 -2.66699 -6.33398 -6.66699 -11.001 -12s-9.5 -10.5 -14.5 -15.5s-10 -9.33301 -15 -13s-9.5 -5.5 -13.5 -5.5
c-6 0 -10.833 2.83301 -14.5 8.5s-6.5 12.334 -8.5 20.001s-3.5 15.334 -4.5 23.001s-1.83301 13.834 -2.5 18.501c2 12.667 3 25.334 3 38.001v11c0 12 -2.5 24.333 -7.5 37s-13.833 19 -26.5 19c-13.333 0 -22 -5 -26 -15s-6 -19.333 -6 -28c0 -2 0.166992 -4 0.5 -6
s0.5 -3.66699 0.5 -5v-25c0 -8 0.666992 -16 2 -24c-3.33301 -14 -9 -31.667 -17 -53s-17.667 -42 -29 -62s-23.333 -37.167 -36 -51.5s-25 -21.5 -37 -21.5c-6.66699 0 -11.667 3 -15 9s-5.83301 13.333 -7.5 22s-2.66699 17.334 -3 26.001s-0.5 15.667 -0.5 21
c0 28 4.5 57.5 13.5 88.5s19.833 58.833 32.5 83.5c1.33301 3.33301 2.33301 6.16602 3 8.49902s1 5.16602 1 8.49902c0 6.66699 -2.33301 13.167 -7 19.5s-12 9.5 -22 9.5c-14.667 0 -24.667 -7.66699 -30 -23c-3.33301 -8 -8.5 -19 -15.5 -33s-15.333 -29.167 -25 -45.5
s-20.167 -33.166 -31.5 -50.499s-22.833 -33.833 -34.5 -49.5s-23 -29.834 -34 -42.501s-20.833 -22 -29.5 -28c-6.66699 -3.33301 -10.667 -5 -12 -5c-5.33301 0 -8 6 -8 18c0 19.333 3 39.833 9 61.5s13.5 43.167 22.5 64.5s18.667 42.333 29 63l28.5 57
c3.33301 5.33301 5 11 5 17s-2.16699 12 -6.5 18s-11.166 9 -20.499 9c-8 0 -15.333 -2.66699 -22 -8c-34 -24.667 -66.667 -50.667 -98 -78s-61 -56.666 -89 -87.999c-4.66699 -4.66699 -7 -11 -7 -19s2.66699 -15 8 -21s12.666 -9 21.999 -9s17 3.33301 23 10
c11.333 13.333 23.333 26.5 36 39.5s25.667 25.5 39 37.5c-10.667 -24.667 -19.834 -50.334 -27.501 -77.001s-11.5 -52.334 -11.5 -77.001c0 -7.33301 0.833008 -15.666 2.5 -24.999s4.5 -18 8.5 -26s9.66699 -14.833 17 -20.5s16.666 -8.5 27.999 -8.5
c12.667 0 25.5 3.5 38.5 10.5s25.667 16 38 27s24 23.167 35 36.5l30.5 38c0.666992 -11.333 2.16699 -24.333 4.5 -39s6.66602 -28.667 12.999 -42s14.833 -24.666 25.5 -33.999s24.334 -14 41.001 -14c18 0 34.667 5 50 15s29.333 22.333 42 37s24 30.667 34 48
s18.333 33.333 25 48c6.66699 -9.33301 14.834 -17 24.501 -23s21.167 -9 34.5 -9c10 0 19.5 2 28.5 6s17.5 9 25.5 15s15.5 12.5 22.5 19.5l20.5 20.5l13.5 16c4.33301 5.33301 6.5 11.666 6.5 18.999z" />
    <glyph glyph-name="x" unicode="x" horiz-adv-x="444" 
d="M468 159c0 8.66699 -3 15.8311 -9 21.498s-13 8.5 -21 8.5c-8.66699 0 -16 -3.33301 -22 -10l-24 -26l-36 -38.5l-42.5 -44c-15 -15 -29.5 -28.5 -43.5 -40.5s-26.667 -22 -38 -30s-20 -12 -26 -12c-5.33301 0 -8.83301 4 -10.5 12s-2.5 17.667 -2.5 29
c0 38 2 75.667 6 113c15.333 14.667 29.5 27.5 42.5 38.5l38 32l38.5 31.5l44 36c7.33301 6 11 13.667 11 23c0 8 -2.83301 15.167 -8.5 21.5s-12.834 9.5 -21.501 9.5c-6.66699 0 -13.334 -2.66699 -20.001 -8l-30.5 -25l-26 -21.5l-25 -21l-27.5 -23.5
c0.666992 4 1 8 1 12v11c0 6.66699 -0.666992 14 -2 22s-3.66602 15.5 -6.99902 22.5s-8.33301 12.667 -15 17s-15.334 6.5 -26.001 6.5c-8.66699 0 -19 -3.16699 -31 -9.5s-24.833 -14.333 -38.5 -24s-27.5 -20.5 -41.5 -32.5s-27.167 -24 -39.5 -36l-33.5 -33.5
c-10 -10.333 -17.667 -18.833 -23 -25.5c-4.66699 -5.33301 -7 -12 -7 -20s2.83301 -15.167 8.5 -21.5s12.834 -9.5 21.501 -9.5s15.667 3.33301 21 10c8.66699 10 18.667 20.833 30 32.5l35 34.5c12 11.333 23.833 21.833 35.5 31.5l31.5 25.5
c3.33301 2.66699 6.66602 4 9.99902 4c5.33301 0 8 -5 8 -15c0 -4.66699 -0.333008 -8.66699 -1 -12c-1.33301 -7.33301 -2.66602 -15.5 -3.99902 -24.5s-3 -19.167 -5 -30.5c-31.333 -29.333 -59.666 -58 -84.999 -86l-80 -91c-4.66699 -5.33301 -7 -11.666 -7 -18.999
c0 -8.66699 3 -16 9 -22s13 -9 21 -9c9.33301 0 17 3.66699 23 11l55 64.5c16.667 19 35 38.833 55 59.5v-20c0 -49.333 4.83301 -83.333 14.5 -102s28.167 -28 55.5 -28c19.333 0 40.333 8.33301 63 25s45 35.334 67 56.001c22.667 21.333 45 43.833 67 67.5
s42 44.167 60 61.5c5.33301 6.66699 8 13.667 8 21z" />
    <glyph glyph-name="y" unicode="y" horiz-adv-x="500" 
d="M525 160c0 8.66699 -3.17285 16.0039 -9.50586 22.0039s-13.5 9 -21.5 9c-8.66699 0 -15.667 -3.33301 -21 -10l-33 -33.5c-10.667 -11 -22 -21.5 -34 -31.5l-60 -46c-20 -15.333 -40.667 -30.333 -62 -45l24 63l29 81c9.33301 27.333 17.5 52.666 24.5 75.999
s10.5 39.666 10.5 48.999s-3.33301 17 -10 23s-14.667 9 -24 9c-5.33301 0 -10.5 -1.33301 -15.5 -4s-9.16699 -6.66699 -12.5 -12c-7.33301 -12 -19 -29.167 -35 -51.5s-34 -45.333 -54 -69s-40.833 -46 -62.5 -67s-41.5 -36.833 -59.5 -47.5
c-7.33301 -4.66699 -13.666 -7 -18.999 -7c-6.66699 0 -10 3.33301 -10 10c0 25.333 3.5 48.666 10.5 69.999s16.5 43.666 28.5 66.999c2.66699 6 6.83398 14.167 12.501 24.5l17 32.5c5.66699 11.333 10.667 22.166 15 32.499s6.5 18.166 6.5 23.499
c0 9.33301 -3.16699 16.666 -9.5 21.999s-13.166 8 -20.499 8c-5.33301 0 -10.666 -1.66699 -15.999 -5s-9.33301 -8 -12 -14c-7.33301 -19.333 -18.666 -38.166 -33.999 -56.499s-32.333 -36.5 -51 -54.5c-13.333 -13.333 -25.833 -26.666 -37.5 -39.999l-36.5 -40
c-6 -6 -9 -13 -9 -21s2.83301 -15.167 8.5 -21.5s12.834 -9.5 21.501 -9.5s15.667 3.33301 21 10l15 17.5c4.66699 5.66699 9.66699 11.167 15 16.5c-1.33301 -9.33301 -2.5 -18.5 -3.5 -27.5s-1.5 -18.167 -1.5 -27.5c0 -10 1 -19.833 3 -29.5s5.33301 -18.334 10 -26.001
s10.5 -14 17.5 -19s15.5 -7.5 25.5 -7.5c16 0 33 4.66699 51 14s35.667 21.333 53 36s34.5 31 51.5 49s32.5 35.667 46.5 53l-34.5 -93l-39.5 -102l-57 -42.5c-22 -16.333 -43 -34 -63 -53s-37 -39 -51 -60s-21 -41.833 -21 -62.5c0 -17.333 5.16699 -31.833 15.5 -43.5
s24.833 -17.5 43.5 -17.5c19.333 0 37 6.33301 53 19s31.333 29.834 46 51.501s28.667 47.167 42 76.5s27 61 41 95c35.333 22.667 69.5 46.334 102.5 71.001l97.5 76c13.333 10.667 26 22 38 34l35 36c2 2 4 4.66699 6 8s3 7.33301 3 12zM144.994 -150.996
c-16.667 -34 -32 -60.332 -46 -78.999s-26 -28.334 -36 -29.001c0 8 2.5 16.667 7.5 26s11.5 18.833 19.5 28.5s16.833 19 26.5 28z" />
    <glyph glyph-name="z" unicode="z" horiz-adv-x="379" 
d="M403 160c0 9.33301 -3.33398 16.666 -10.001 21.999s-13.667 8 -21 8c-8.66699 0 -16 -3.33301 -22 -10c-13.333 -14.667 -28.833 -30.5 -46.5 -47.5s-36.167 -33.5 -55.5 -49.5c-7.33301 10 -16.333 18 -27 24s-21.667 10.667 -33 14c12 10.667 23.667 22.334 35 35.001
s21.5 25.667 30.5 39s16.333 26.666 22 39.999s8.5 26 8.5 38c0 10 -2 18.667 -6 26s-9.16699 13.5 -15.5 18.5s-13.333 8.66699 -21 11s-14.834 3.5 -21.501 3.5c-28 0 -54.5 -5.83301 -79.5 -17.5s-48.667 -26.167 -71 -43.5s-43.5 -36.333 -63.5 -57l-57 -59
c-2 -2 -4 -4.66699 -6 -8s-3 -7.33301 -3 -12c0 -8.66699 3.16699 -16 9.5 -22s13.5 -9 21.5 -9c8.66699 0 15.667 3.33301 21 10l43 45c16 16.667 32.833 32.667 50.5 48s36 28.833 55 40.5s38.5 19.167 58.5 22.5c8 2 14 3 18 3c4.66699 0 7 -1.66699 7 -5s-2 -9 -6 -17
c-5.33301 -12 -14 -25.167 -26 -39.5s-25.167 -28.166 -39.5 -41.499s-28.833 -25.5 -43.5 -36.5s-27 -18.833 -37 -23.5c-4.66699 -2 -9.33398 -5 -14.001 -9s-7 -10.333 -7 -19c0 -7.33301 2.83301 -14.166 8.5 -20.499s12.834 -9.5 21.501 -9.5s17.167 2.66699 25.5 8
s19.166 8 32.499 8c17.333 0 30.833 -2 40.5 -6s16.834 -9.66699 21.501 -17c-21.333 -15.333 -46.166 -31.166 -74.499 -47.499s-55.333 -34.166 -81 -53.499s-47.334 -41 -65.001 -65s-26.5 -51.333 -26.5 -82c0 -5.33301 1 -11.333 3 -18s5 -13 9 -19
s9.33301 -11.167 16 -15.5s15 -6.5 25 -6.5c11.333 0 21.833 1.16699 31.5 3.5s18.834 5.16602 27.501 8.49902c27.333 12 53 26.667 77 44s45 37.166 63 59.499s32.333 47.5 43 75.5s16.334 58.667 17.001 92c23.333 17.333 45.833 36.166 67.5 56.499
s42.167 41.166 61.5 62.499c5.33301 6.66699 8 13.334 8 20.001zM198.999 -26c-8 -32 -22.5 -60.167 -43.5 -84.5s-45.833 -44.833 -74.5 -61.5l-31.5 -19c-10.333 -6 -22.166 -9.66699 -35.499 -11c0 14 4.16699 27.667 12.5 41s18.833 25.833 31.5 37.5
s26.5 22.667 41.5 33s29.5 19.5 43.5 27.5l28 18c9.33301 6 18.666 12.333 27.999 19z" />
    <glyph glyph-name="braceleft" unicode="{" horiz-adv-x="499" 
d="M505 642c0 7.33301 -2.50195 14.1709 -7.50195 20.5039s-12.167 9.5 -21.5 9.5c-2 0 -5.5 -0.5 -10.5 -1.5s-10.167 -2.33301 -15.5 -4l-15.5 -5l-10.5 -3.5c-30 -10.667 -53.833 -23.334 -71.5 -38.001s-31.834 -32.667 -42.501 -54
c-11.333 -22 -19.5 -46.667 -24.5 -74s-10.167 -53 -15.5 -77c-11.333 -61.333 -35.5 -105.166 -72.5 -131.499s-88.167 -39.5 -153.5 -39.5c-9.33301 0 -17 -2.66699 -23 -8s-9 -12.333 -9 -21c0 -13.333 6 -22.333 18 -27c7.33301 -4 16.333 -7.66699 27 -11
s21 -7.5 31 -12.5s18.5 -11.167 25.5 -18.5s10.5 -16.333 10.5 -27c0 -16 -3.16699 -31.167 -9.5 -45.5s-13.166 -28.833 -20.499 -43.5c-5.33301 -10.667 -11.166 -24.167 -17.499 -40.5s-12.333 -34.166 -18 -53.499s-10.5 -39.333 -14.5 -60s-6 -40.667 -6 -60
c0 -16.667 1.83301 -32.5 5.5 -47.5s10 -28.333 19 -40s20.833 -21 35.5 -28s33 -10.5 55 -10.5c16 0 28.667 3.66699 38 11s14 16.666 14 27.999c0 7.33301 -2.5 14 -7.5 20s-11.833 9 -20.5 9c-6.66699 0 -11.5 -1.33301 -14.5 -4s-6.16699 -4 -9.5 -4
c-20.667 0 -35 6 -43 18s-12 28.667 -12 50c0 16 2 33.333 6 52s8.66699 36.667 14 54s11 33.166 17 47.499s11 25.833 15 34.5c9.33301 19.333 17.333 37.5 24 54.5s10 36.5 10 58.5c0 17.333 -3.16699 32.333 -9.5 45s-15.166 23.667 -26.499 33
c30.667 8 56.667 19.167 78 33.5s39.166 31.166 53.499 50.499s25.833 41.166 34.5 65.499s15.334 50.5 20.001 78.5c2.66699 15.333 5 29.666 7 42.999s4.66699 26.333 8 39c3.33301 10.667 7.83301 21.167 13.5 31.5s13.5 20 23.5 29s22.833 17.167 38.5 24.5
s35.167 14 58.5 20c8 2.66699 13.667 7 17 13s5 11.667 5 17z" />
    <glyph glyph-name="bar" unicode="|" horiz-adv-x="322" 
d="M318 627c0 10 -3.33301 17.5 -10 22.5s-13.667 7.5 -21 7.5c-6 0 -11.667 -1.66699 -17 -5s-9 -8.66602 -11 -15.999l-33 -104.5l-43.5 -139l-49 -157l-49 -157.5l-44 -142l-33.5 -109c-1.33301 -4 -2 -7.33301 -2 -10c0 -9.33301 3.33301 -16.5 10 -21.5
s13.667 -7.5 21 -7.5c6 0 11.667 1.66699 17 5s9 8.66602 11 15.999l33.5 110l44.5 142l49 157l48.5 156.5l43.5 139l33 104.5c1.33301 4 2 7 2 9z" />
    <glyph glyph-name="braceright" unicode="}" horiz-adv-x="499" 
d="M430 572c0 26.667 -9.33301 48.334 -28 65.001s-40.334 25 -65.001 25c-14 0 -26.333 -1 -37 -3s-22.667 -5.66699 -36 -11c-7.33301 -3.33301 -12.166 -7.5 -14.499 -12.5s-3.5 -10.167 -3.5 -15.5c0 -7.33301 2.5 -14.166 7.5 -20.499s12.167 -9.5 21.5 -9.5h5
c2.66699 0 5.33398 0.666992 8.00098 2c9.33301 4 17.333 6.66699 24 8s15 2 25 2c9.33301 0 17.166 -3 23.499 -9s9.5 -13 9.5 -21c0 -8.66699 -3 -20.167 -9 -34.5s-13.333 -29.5 -22 -45.5c-10 -18 -22.5 -38.667 -37.5 -62s-29.333 -47.333 -43 -72
s-25.5 -48.834 -35.5 -72.501s-15 -44.5 -15 -62.5c0 -11.333 2 -23 6 -35s10.333 -22.667 19 -32c-21.333 -14 -40.333 -32 -57 -54s-29.334 -44.667 -38.001 -68c-6.66699 -17.333 -13.167 -39.5 -19.5 -66.5s-14.666 -53 -24.999 -78s-23.5 -46.5 -39.5 -64.5
s-37 -27 -63 -27c-9.33301 0 -18.666 0.833008 -27.999 2.5s-18 4 -26 7s-14.833 6.33301 -20.5 10s-9.5 7.16699 -11.5 10.5c-6 10.667 -14.667 16 -26 16c-8 0 -15 -2.83301 -21 -8.5s-9 -12.834 -9 -21.501c0 -6 1.33301 -10.667 4 -14
c6.66699 -11.333 15.834 -21 27.501 -29s24 -14.5 37 -19.5s26.167 -8.5 39.5 -10.5s24.666 -3 33.999 -3c36.667 0 66.167 9.5 88.5 28.5s40.333 42.333 54 70s24.834 57.334 33.501 89.001s17.667 60.5 27 86.5c4 10 9.66699 21.167 17 33.5s15.666 23.666 24.999 33.999
s19 19 29 26s19.667 10.5 29 10.5c7.33301 0 15.666 1.83301 24.999 5.5s14 12.167 14 25.5c0 10 -3.33301 17.333 -10 22s-14.167 9 -22.5 13s-15.833 8.83301 -22.5 14.5s-10 14.5 -10 26.5c0 10.667 3 23.5 9 38.5s13.167 30.333 21.5 46s17 30.667 26 45l22.5 35.5
l30 49c10 16.667 18.833 33 26.5 49s14 31.333 19 46s7.5 28 7.5 40z" />
    <glyph glyph-name="asciitilde" unicode="~" 
d="M415 266c0 9.33301 -3.16992 16.6621 -9.50293 21.9951s-13.166 8 -20.499 8c-12 0 -20.167 -4.66699 -24.5 -14s-8.16602 -19.666 -11.499 -30.999s-8.16602 -21.666 -14.499 -30.999s-17.833 -14 -34.5 -14c-11.333 0 -21.666 2.33301 -30.999 7s-18.333 10 -27 16
l-27 20c-8.66699 6.66699 -17.667 12.5 -27 17.5s-19.333 9.16699 -30 12.5s-22.334 5 -35.001 5c-12 0 -23.333 -1.5 -34 -4.5s-21.167 -8 -31.5 -15s-21 -15.833 -32 -26.5s-23.167 -24 -36.5 -40c-4.66699 -7.33301 -7 -13.666 -7 -18.999
c0 -9.33301 3.16699 -16.666 9.5 -21.999s13.5 -8 21.5 -8c8.66699 0 16 3.66699 22 11c6 6.66699 12 13.834 18 21.501s12.5 14.667 19.5 21s14.667 11.5 23 15.5s17.5 6 27.5 6c14.667 0 28.167 -4 40.5 -12s25 -17 38 -27s27.333 -19 43 -27s34.167 -12 55.5 -12
c20 0 37.167 4.5 51.5 13.5s26.333 19.667 36 32s16.667 25.333 21 39s6.5 25.5 6.5 35.5z" />
    <glyph glyph-name="nonbreakingspace" unicode="&#xa0;" horiz-adv-x="285" 
 />
    <glyph glyph-name="exclamdown" unicode="&#xa1;" horiz-adv-x="299" 
d="M-11 -254c0 -9.33301 3.33203 -16.6699 9.99902 -22.0029s13.667 -8 21 -8c11.333 0 20 5 26 15c4 6.66699 10 21.5 18 44.5l27.5 81.5l31.5 100l29 99c8.66699 30.667 15.834 57.334 21.501 80.001s8.5 36.667 8.5 42c0 10 -3.33301 17.333 -10 22s-13.667 7 -21 7
c-6.66699 0 -12.834 -2 -18.501 -6s-9.16699 -10.333 -10.5 -19c-2 -11.333 -5.83301 -28.666 -11.5 -51.999s-12.667 -49.5 -21 -78.5l-27 -91l-28 -88.5c-9 -27.333 -17.167 -51 -24.5 -71s-12.666 -33 -15.999 -39c-3.33301 -5.33301 -5 -10.666 -5 -15.999z
M144.999 314.996c0 -8.66699 2.83105 -16.833 8.49805 -24.5s13.834 -11.5 24.501 -11.5c6.66699 0 12.334 1.66699 17.001 5s8.5 7.5 11.5 12.5s5.33301 10.333 7 16s2.5 10.5 2.5 14.5c0 11.333 -2.83301 19.666 -8.5 24.999s-12.167 8 -19.5 8
c-10 0 -19.667 -4.16699 -29 -12.5s-14 -19.166 -14 -32.499z" />
    <glyph glyph-name="cent" unicode="&#xa2;" 
d="M428 306c0 10.667 -3.49707 18.1611 -10.4971 22.4941s-13.5 6.5 -19.5 6.5c-6.66699 0 -13.334 -2.33301 -20.001 -7s-10 -12 -10 -22c0 -5.33301 -1 -9.33301 -3 -12c-4 -6 -11 -12 -21 -18s-21.667 -11.167 -35 -15.5s-27.833 -8 -43.5 -11s-31.834 -4.5 -48.501 -4.5
h-2l45.5 102l46.5 100c16 -4 27.667 -9.16699 35 -15.5s13.333 -12.833 18 -19.5l13.5 -21c4.33301 -6.66699 11.5 -10 21.5 -10c7.33301 0 14.166 2.5 20.499 7.5s9.5 12.167 9.5 21.5c0 4.66699 -0.666992 8.33398 -2 11.001c-8 21.333 -20.167 38.5 -36.5 51.5
s-34.5 22.5 -54.5 28.5l32 69.5c8.66699 18.333 14.334 29.833 17.001 34.5s4 9.66699 4 15c0 10 -3.5 17.333 -10.5 22s-13.833 7 -20.5 7c-4.66699 0 -9.16699 -1.16699 -13.5 -3.5s-8.16602 -6.16602 -11.499 -11.499c-2.66699 -4.66699 -9.5 -18.167 -20.5 -40.5
l-39.5 -83.5c-26 -0.666992 -52.5 -4.66699 -79.5 -12s-51.5 -18.333 -73.5 -33s-39.833 -33.167 -53.5 -55.5s-20.5 -48.833 -20.5 -79.5c0 -34 8.16699 -61.5 24.5 -82.5s37.166 -36.5 62.499 -46.5l-35.5 -82.5c-9.66699 -23 -15.167 -38.167 -16.5 -45.5
c-1.33301 -9.33301 0.833984 -17.666 6.50098 -24.999s13.5 -11 23.5 -11c6 0 12 1.83301 18 5.5s10 9.83398 12 18.501c0.666992 4 5.66699 17.167 15 39.5l37 85.5c5.33301 -0.666992 10.666 -1.16699 15.999 -1.5s10.666 -0.5 15.999 -0.5
c19.333 0 38.833 1.83301 58.5 5.5s38.167 8.83398 55.5 15.501s33 14.834 47 24.501s25 20.5 33 32.5c5.33301 7.33301 8.83301 14.5 10.5 21.5s2.5 14.5 2.5 22.5zM241.003 448.994l-44.001 -97l-44 -97c-15.333 6 -27.666 15 -36.999 27s-14 28 -14 48
c0 16 3.83301 30.833 11.5 44.5s18 25.667 31 36s27.833 18.833 44.5 25.5s34 11 52 13z" />
    <glyph glyph-name="sterling" unicode="&#xa3;" 
d="M443 11c0 9.33301 -3.33203 16.6641 -9.99902 21.9971s-13.667 8 -21 8c-4.66699 0 -9.16699 -1 -13.5 -3s-8.16602 -5.66699 -11.499 -11c-5.33301 -9.33301 -13.333 -17.666 -24 -24.999s-22.834 -13.666 -36.501 -18.999s-28.167 -9.5 -43.5 -12.5
s-30.333 -4.5 -45 -4.5c-19.333 0 -38 3.66699 -56 11s-35.667 15.333 -53 24c11.333 20 20.666 38.167 27.999 54.5l25 56.5c28.667 -1.33301 57.334 -2.83301 86.001 -4.5s57.667 -2.5 87 -2.5c10 0 17.5 3.16699 22.5 9.5s7.5 13.166 7.5 20.499s-2.5 14.166 -7.5 20.499
s-12.5 9.5 -22.5 9.5c-25.333 0 -50.333 0.666992 -75 2s-49.667 3 -75 5c1.33301 5.33301 3.83301 13.5 7.5 24.5s6.16699 18.833 7.5 23.5c22 -1.33301 43.333 -2.5 64 -3.5s39 -1.5 55 -1.5h21c8 0 15.667 1 23 3s13.5 5.16699 18.5 9.5s7.5 10.833 7.5 19.5
c0 6 -2.33301 12.5 -7 19.5s-11.667 10.833 -21 11.5c-5.33301 1.33301 -12.5 1 -21.5 -1s-17.167 -3 -24.5 -3c-12.667 0 -27.167 0.166992 -43.5 0.5s-33.5 1.16602 -51.5 2.49902c6 18.667 11 34.834 15 48.501l14 49.5l10.5 35.5c4.33301 14.333 9.83301 28.333 16.5 42
s14.667 25.334 24 35.001s20 14.5 32 14.5c3.33301 0 6.16602 -1.83301 8.49902 -5.5s4.16602 -7.83398 5.49902 -12.501s2.33301 -9.33398 3 -14.001s1 -8 1 -10c0 -16.667 -4.83301 -31.834 -14.5 -45.501s-22.5 -20.5 -38.5 -20.5c-10 0 -17.5 -3.16699 -22.5 -9.5
s-7.5 -13.166 -7.5 -20.499s2.5 -14.166 7.5 -20.499s12.5 -9.5 22.5 -9.5c18 0 34 3.83301 48 11.5s25.833 17.5 35.5 29.5s17 25.5 22 40.5s7.5 29.833 7.5 44.5c0 8.66699 -1.5 19 -4.5 31s-7.66699 23.167 -14 33.5s-14.5 19.166 -24.5 26.499s-21.667 11 -35 11
c-22.667 0 -42 -6.33301 -58 -19s-29.5 -28 -40.5 -46s-19.667 -36.667 -26 -56s-11.166 -36 -14.499 -50c-5.33301 -20 -10.5 -38.167 -15.5 -54.5s-11.167 -34.5 -18.5 -54.5c-30 2 -57.333 4 -82 6s-42 3 -52 3s-17.5 -3.16699 -22.5 -9.5s-7.5 -13.166 -7.5 -20.499
s2.5 -14.166 7.5 -20.499s12.5 -9.5 22.5 -9.5c12.667 0 29 -0.666992 49 -2s41.667 -3 65 -5c-2 -5.33301 -4.66699 -13.5 -8 -24.5s-6 -18.833 -8 -23.5c-21.333 1.33301 -42.333 2.33301 -63 3s-41.667 1 -63 1c-10 0 -17.5 -3.16699 -22.5 -9.5
s-7.5 -13.166 -7.5 -20.499s2.5 -14.166 7.5 -20.499s12.5 -9.5 22.5 -9.5c33.333 0 67 -1 101 -3c-7.33301 -17.333 -14.333 -32.666 -21 -45.999s-14.667 -28.333 -24 -45c-10 3.33301 -20.5 6.16602 -31.5 8.49902s-22.833 3.5 -35.5 3.5
c-5.33301 0 -13 -1.16699 -23 -3.5s-20 -6.33301 -30 -12s-18.667 -13.167 -26 -22.5s-11 -21.333 -11 -36c0 -12.667 3.83301 -23.334 11.5 -32.001s16.5 -15.667 26.5 -21s19.833 -9.16602 29.5 -11.499s16.5 -3.5 20.5 -3.5c19.333 0 36.833 5.5 52.5 16.5
s29.167 23.833 40.5 38.5c23.333 -11.333 45.833 -21.666 67.5 -30.999s46.167 -14 73.5 -14c16.667 0 34.5 1.66699 53.5 5s37.833 8.5 56.5 15.5s36 16.167 52 27.5s29 25 39 41c2.66699 5.33301 4 10.666 4 15.999zM37.001 -26.002l-15.999 -16.002
c-4.66699 -4.66699 -9.66699 -7 -15 -7c-12 0 -19.667 1.83301 -23 5.5s-5 7.83398 -5 12.501s2.83301 8.83398 8.5 12.501s11.834 5.5 18.501 5.5c5.33301 0 10.666 -1.83301 15.999 -5.5s10.666 -6.16699 15.999 -7.5z" />
    <glyph glyph-name="currency" unicode="&#xa4;" horiz-adv-x="572" 
d="M549 374c0 15.333 -2.66992 29.668 -8.00293 43.001s-12.666 25 -21.999 35s-20.666 18 -33.999 24s-28 9 -44 9c-31.333 0 -61.333 -5.16699 -90 -15.5s-55.834 -24.5 -81.501 -42.5s-49 -39.167 -70 -63.5s-39.5 -50.166 -55.5 -77.499
c-12.667 -0.666992 -25.667 -1 -39 -1h-40c-10 0 -17.5 -3.16699 -22.5 -9.5s-7.5 -13.166 -7.5 -20.499s2.5 -14.166 7.5 -20.499s12.5 -9.5 22.5 -9.5h51l-10 -21c-4 -8.66699 -6.66699 -15.667 -8 -21c-11.333 -0.666992 -22.333 -1 -33 -1h-31
c-10 0 -17.5 -3.16699 -22.5 -9.5s-7.5 -13.166 -7.5 -20.499s2.5 -14.166 7.5 -20.499s12.5 -9.5 22.5 -9.5h25c9.33301 0 18 0.333008 26 1c-0.666992 -6 -1.16699 -12 -1.5 -18s-0.5 -11.667 -0.5 -17c0 -32 5 -59.333 15 -82s23.333 -41 40 -55s35.667 -24.167 57 -30.5
s43.666 -9.5 66.999 -9.5c24.667 0 50 3.5 76 10.5s50 16.833 72 29.5s41 28 57 46s26.667 38 32 60c0 1.33301 0.166992 2.66602 0.5 3.99902s0.5 2.66602 0.5 3.99902c0 10 -3.5 17.5 -10.5 22.5s-14.167 7.5 -21.5 7.5c-6 0 -11.833 -1.83301 -17.5 -5.5
s-9.5 -9.16699 -11.5 -16.5c-3.33301 -13.333 -10.666 -26.166 -21.999 -38.499s-25.166 -23.166 -41.499 -32.499s-34.666 -16.833 -54.999 -22.5s-40.5 -8.5 -60.5 -8.5c-16 0 -31 2 -45 6s-26.333 10.5 -37 19.5s-19.167 21 -25.5 36s-9.5 33.5 -9.5 55.5c0 12 1 24 3 36
c6.66699 0.666992 14.334 1 23.001 1h22c38 0 75.333 -0.5 112 -1.5s74 -1.5 112 -1.5c10 0 17.5 3.16699 22.5 9.5s7.5 13.166 7.5 20.499s-2.5 14.166 -7.5 20.499s-12.5 9.5 -22.5 9.5c-38 0 -75.833 0.5 -113.5 1.5s-74.5 1.5 -110.5 1.5h-30
c2 5.33301 5.16699 12.5 9.5 21.5l10.5 21.5c6 0 14.833 0.333008 26.5 1s24 1.16699 37 1.5l40 1c13.667 0.333008 25.5 0.5 35.5 0.5c23.333 0 46.666 -0.5 69.999 -1.5s46.666 -1.5 69.999 -1.5c10 0 17.667 3.16699 23 9.5s8 13.166 8 20.499s-2.16699 13.833 -6.5 19.5
s-11.166 9.16699 -20.499 10.5c-16.667 1.33301 -35 2.16602 -55 2.49902s-39.667 0.5 -59 0.5h-30c-14 0 -31 -0.333008 -51 -1s-37.333 -1.33398 -52 -2.00098c28 40 61.5 72.667 100.5 98s80.167 38 123.5 38c13.333 0 24.5 -4.66699 33.5 -14s13.5 -21.666 13.5 -36.999
c0 -2.66699 -0.166992 -5.33398 -0.5 -8.00098s-0.5 -5.66699 -0.5 -9c0 -6 2 -12.5 6 -19.5s12 -10.5 24 -10.5s20.167 4.16699 24.5 12.5s6.83301 16.166 7.5 23.499v11z" />
    <glyph glyph-name="yen" unicode="&#xa5;" 
d="M514 573c0 8 -2.82715 15.0049 -8.49414 21.0049s-12.834 9 -21.501 9c-7.33301 0 -13.333 -2 -18 -6c-52 -40.667 -99.167 -82.5 -141.5 -125.5s-81.833 -91.167 -118.5 -144.5c6 36.667 9 71.334 9 104.001c0 21.333 -1.66699 41.833 -5 61.5s-8.83301 37 -16.5 52
s-18 27 -31 36s-28.833 13.5 -47.5 13.5c-22.667 0 -41.834 -4.66699 -57.501 -14l-50.5 -31c-5.33301 -3.33301 -9 -7.5 -11 -12.5s-3 -9.5 -3 -13.5c0 -8 2.83301 -15 8.5 -21s12.834 -9 21.501 -9c6 0 12.333 2.16699 19 6.5l21 14c7.33301 5 15.333 9.66699 24 14
s18 6.5 28 6.5c9.33301 0 18 -8.33301 26 -25s12 -45 12 -85c0 -20.667 -1.33301 -42.834 -4 -66.501s-6.66699 -48.5 -12 -74.5l-71 -8.5l-81 -9.5c-9.33301 -1.33301 -16 -5.16602 -20 -11.499s-6 -12.5 -6 -18.5c0 -12.667 3.83301 -20.834 11.5 -24.501
s14.5 -5.5 20.5 -5.5c3.33301 0 6.83301 0.166992 10.5 0.5s7.16699 0.833008 10.5 1.5l57.5 7.5c18.333 2.33301 36.166 4.5 53.499 6.5c-1.33301 -6 -3 -12.167 -5 -18.5s-3.66699 -12.5 -5 -18.5l-85 -12l-84 -12c-9.33301 -1.33301 -16 -5 -20 -11s-6 -12.333 -6 -19
c0 -12 3.5 -20 10.5 -24s13.833 -6 20.5 -6c4 0 7.83301 0.333008 11.5 1l10.5 2c19.333 3.33301 38.666 6.16602 57.999 8.49902s38.666 4.83301 57.999 7.5c-5.33301 -10 -12 -23.333 -20 -40l-24 -50.5c-8 -17 -14.833 -32.333 -20.5 -46s-8.5 -22.167 -8.5 -25.5
c0 -9.33301 3.16699 -16.833 9.5 -22.5s13.5 -8.5 21.5 -8.5c7.33301 0 13.166 2.16699 17.499 6.5s8.16602 9.16602 11.499 14.499l22 40.5c6.66699 12.333 12.834 24.5 18.501 36.5s11.167 24.5 16.5 37.5l17 43.5l12 24c34 4 68.167 7.33301 102.5 10s69.166 4 104.499 4
c10 0 17.5 3.16699 22.5 9.5s7.5 13.166 7.5 20.499c0 12.667 -4.33301 20.834 -13 24.501s-17 5.5 -25 5.5c-28 0 -55.5 -0.833008 -82.5 -2.5s-54.5 -4.16699 -82.5 -7.5l11.5 20l11.5 20c27.333 3.33301 55.166 5.83301 83.499 7.5s59.5 2.5 93.5 2.5
c10 0 17.5 3.16699 22.5 9.5s7.5 13.166 7.5 20.499c0 13.333 -4.16699 21.666 -12.5 24.999s-16.5 5 -24.5 5c-21.333 0 -43 -0.5 -65 -1.5s-43.667 -2.16699 -65 -3.5c32.667 48.667 70.167 93.667 112.5 135s86.5 80 132.5 116
c4.66699 3.33301 7.83398 7.16602 9.50098 11.499s2.5 8.5 2.5 12.5z" />
    <glyph glyph-name="brokenbar" unicode="&#xa6;" horiz-adv-x="322" 
d="M335 625c0 9.33301 -3.33301 16.502 -10 21.502s-13.667 7.5 -21 7.5c-12 0 -21 -6 -27 -18c-22 -52 -41.5 -105.333 -58.5 -160s-36.167 -108.667 -57.5 -162c-2 -4 -3 -8 -3 -12c0 -9.33301 3.33301 -16.5 10 -21.5s13.667 -7.5 21 -7.5c12.667 0 21.667 6 27 18
c21.333 53.333 40.5 107.166 57.5 161.499s36.833 107.5 59.5 159.5c1.33301 5.33301 2 9.66602 2 12.999zM148 98.002c0 9.33301 -3.16797 16.665 -9.50098 21.998s-13.166 8 -20.499 8c-12 0 -21 -5.33301 -27 -16c-2.66699 -5.33301 -7.66699 -16.166 -15 -32.499
l-25 -58.5l-29.5 -72.5l-28.5 -72.5c-8.66699 -22.667 -15.834 -42.667 -21.501 -60s-8.5 -28.666 -8.5 -33.999c0 -9.33301 3.33301 -16.5 10 -21.5s13.334 -7.5 20.001 -7.5c6 0 11.5 1.5 16.5 4.5s8.83301 8.16699 11.5 15.5l27.5 76l30.5 82.5l32.5 81
c11 26.333 22.167 50.166 33.5 71.499c2 4.66699 3 9.33398 3 14.001z" />
    <glyph glyph-name="section" unicode="&#xa7;" horiz-adv-x="500" 
d="M459 549c0 13.333 -2.00293 26.665 -6.00293 39.998s-10 25.166 -18 35.499s-18.333 18.833 -31 25.5s-28 10 -46 10c-20.667 0 -38.834 -5 -54.501 -15s-28.667 -22.667 -39 -38s-18.166 -31.833 -23.499 -49.5s-8 -34.5 -8 -50.5c-4.66699 -1.33301 -8.66699 -2 -12 -2
s-6.66602 -1.33301 -9.99902 -4c-46.667 -34 -83.5 -75 -110.5 -123s-40.5 -103.333 -40.5 -166c0 -16 2 -35.833 6 -59.5l12.5 -76.5c4.33301 -27.333 8.5 -55.166 12.5 -83.499s6 -55.166 6 -80.499c0 -35.333 -4.83301 -61.833 -14.5 -79.5s-25.167 -26.5 -46.5 -26.5
c-10.667 0 -19 3.33301 -25 10s-9 14.667 -9 24s-2.66699 17.666 -8 24.999s-12.666 11 -21.999 11s-16.833 -3.66699 -22.5 -11s-8.5 -15.666 -8.5 -24.999c0 -25.333 8.66699 -47.333 26 -66s40.333 -28 69 -28c24 0 43.833 4.66699 59.5 14s28 21.833 37 37.5
s15.167 33.5 18.5 53.5s5 40.667 5 62c0 6 -0.166992 12.167 -0.5 18.5s-0.5 12.833 -0.5 19.5c26.667 18.667 50 37.5 70 56.5s36.5 39.833 49.5 62.5s22.667 47.667 29 75s9.5 58.333 9.5 93c0 45.333 -3.33301 89.833 -10 133.5s-10 88.167 -10 133.5
c0 10.667 1.5 21.667 4.5 33s7.33301 21.5 13 30.5s12.5 16.5 20.5 22.5s17 9 27 9c14 0 24.333 -4.66699 31 -14s10 -21.333 10 -36c0 -14 -2 -24.667 -6 -32s-8.33301 -13.166 -13 -17.499l-13 -12.5c-4 -4 -6 -9.66699 -6 -17s2.83301 -14.166 8.5 -20.499
s12.834 -9.5 21.501 -9.5c6.66699 0 14 2.5 22 7.5s15.5 12.167 22.5 21.5s12.667 20.666 17 33.999s6.5 28.333 6.5 45zM253.997 245.999c0 -34 -3.99902 -66.166 -11.999 -96.499s-23.667 -59.166 -47 -86.499c-6.66699 -8.66699 -14 -16.334 -22 -23.001l-25 -20l-8 51.5
c-2.66699 17 -5.33398 33.167 -8.00098 48.5c-3.33301 19.333 -6.16602 36.833 -8.49902 52.5s-3.5 28.834 -3.5 39.501c0 49.333 10.167 93.166 30.5 131.499s48.833 72.166 85.5 101.499c3.33301 -34 7.16602 -67.167 11.499 -99.5s6.5 -65.5 6.5 -99.5z" />
    <glyph glyph-name="dieresis" unicode="&#xa8;" horiz-adv-x="365" 
d="M367 420c0 7.33301 -2.33301 14.832 -7 22.499s-12.667 11.5 -24 11.5c-6.66699 0 -12.667 -1.66699 -18 -5s-9.83301 -7.5 -13.5 -12.5s-6.5 -10.333 -8.5 -16s-3 -10.5 -3 -14.5c0 -8 2.83301 -15.167 8.5 -21.5s13.167 -9.5 22.5 -9.5
c11.333 0 21.333 4.83301 30 14.5s13 19.834 13 30.501zM217 436.999c0 7.33301 -2.33301 14.832 -7 22.499s-12.667 11.5 -24 11.5c-6.66699 0 -12.667 -1.66699 -18 -5s-9.83301 -7.5 -13.5 -12.5s-6.5 -10.333 -8.5 -16s-3 -10.5 -3 -14.5
c0 -8 2.83301 -15.167 8.5 -21.5s13.167 -9.5 22.5 -9.5c11.333 0 21.333 4.83301 30 14.5s13 19.834 13 30.501z" />
    <glyph glyph-name="copyright" unicode="&#xa9;" horiz-adv-x="759" 
d="M688 286c0 54.667 -8.33301 103.165 -25 145.498s-39 78 -67 107s-60 51.167 -96 66.5s-73 23 -111 23c-36 0 -70.833 -6.5 -104.5 -19.5s-65.167 -33.167 -94.5 -60.5c-3.33301 -2.66699 -5.33301 -5.16699 -6 -7.5s-1.66699 -5.16602 -3 -8.49902
c-40 -48 -69.833 -100.667 -89.5 -158s-29.5 -113.666 -29.5 -168.999c0 -54 8 -101.333 24 -142s37.333 -74.667 64 -102s57.334 -47.833 92.001 -61.5s70.667 -20.5 108 -20.5c41.333 0 82.166 8.66699 122.499 26s76.5 43 108.5 77s57.833 76.333 77.5 127
s29.5 109.667 29.5 177zM628 285.998c0 -58.667 -8.16797 -109.666 -24.501 -152.999s-37.666 -79.333 -63.999 -108s-56 -50 -89 -64s-65.833 -21 -98.5 -21c-29.333 0 -58 5.5 -86 16.5s-52.667 27.5 -74 49.5s-38.5 49.667 -51.5 83s-19.5 72.666 -19.5 117.999
c0 48 8.83301 97.167 26.5 147.5s44.834 97.5 81.501 141.5c1.33301 1.33301 2.5 3.33301 3.5 6s1.83301 5 2.5 7c24 21.333 48.833 37 74.5 47s51.167 15 76.5 15c30.667 0 60.667 -7 90 -21s55.166 -33.5 77.499 -58.5s40.333 -55 54 -90s20.5 -73.5 20.5 -115.5z
M512.999 370.999c0 38.667 -9.66992 68 -29.0029 88s-43.666 30 -72.999 30c-23.333 0 -47.666 -6.5 -72.999 -19.5s-48.333 -31.833 -69 -56.5s-37.667 -54.5 -51 -89.5s-20 -74.833 -20 -119.5c0 -56.667 12 -100 36 -130s54.333 -45 91 -45c32 0 63.667 12 95 36
s57.333 58.333 78 103c0.666992 2 1.16699 3.83301 1.5 5.5s0.5 3.5 0.5 5.5c0 8.66699 -3.16699 16 -9.5 22s-13.5 9 -21.5 9c-12 0 -21 -6 -27 -18c-15.333 -34 -34.166 -59.667 -56.499 -77s-42.833 -26 -61.5 -26c-8 0 -16 1.83301 -24 5.5s-15 10 -21 19
s-11 20.667 -15 35s-6 32.5 -6 54.5c0 36.667 5.33301 69.167 16 97.5s23.667 52 39 71s31.666 33.333 48.999 43s33 14.5 47 14.5c12 0 22.333 -4 31 -12s13 -22.667 13 -44c0 -3.33301 -0.333008 -6.83301 -1 -10.5s-1 -7.5 -1 -11.5c0 -6 1.83301 -12.833 5.5 -20.5
s11.834 -11.5 24.501 -11.5c5.33301 0 11.333 1.83301 18 5.5s10.667 9.83398 12 18.501c0.666992 4.66699 1.16699 9.16699 1.5 13.5s0.5 9.16602 0.5 14.499z" />
    <glyph glyph-name="ordfeminine" unicode="&#xaa;" horiz-adv-x="360" 
d="M369 291c0 9.33301 -3.17285 16.665 -9.50586 21.998s-13.166 8 -20.499 8c-10 0 -18 -4 -24 -12c-2.66699 -3.33301 -6.66699 -7.16602 -12 -11.499s-11.166 -8.33301 -17.499 -12s-12.166 -6.83398 -17.499 -9.50098s-9.33301 -4 -12 -4
c-0.666992 0 -2.16699 0.833008 -4.5 2.5s-3.5 6.16699 -3.5 13.5c0 18.667 3.5 35.334 10.5 50.001s16.167 29.667 27.5 45c4 6 9.83301 13.833 17.5 23.5s15.167 19.667 22.5 30s13.666 20.666 18.999 30.999s8 18.833 8 25.5c0 8 -2.83301 15 -8.5 21s-12.5 9 -20.5 9
c-13.333 0 -23.333 -7.33301 -30 -22c-2 -4 -4.5 -8.66699 -7.5 -14s-7.16699 -11.666 -12.5 -18.999c-5.33301 8.66699 -13.5 16.834 -24.5 24.501s-25.833 11.5 -44.5 11.5c-23.333 0 -47.166 -6 -71.499 -18s-46.166 -27.667 -65.499 -47
s-35.166 -41.166 -47.499 -65.499s-18.5 -48.833 -18.5 -73.5c0 -24 7.5 -44.667 22.5 -62s35.5 -26 61.5 -26c16.667 0 33.667 5.83301 51 17.5s34.666 26.167 51.999 43.5c2.66699 -15.333 9.33398 -29.333 20.001 -42s26.334 -19 47.001 -19c6 0 15.333 2.33301 28 7
s25.167 10.667 37.5 18s23.333 15.666 33 24.999s14.5 19 14.5 29zM236.994 415.999l-28.501 -35c-13 -16 -27 -32 -42 -48s-29.833 -30.167 -44.5 -42.5s-26.667 -18.5 -36 -18.5c-7.33301 0 -13.166 2.16699 -17.499 6.5s-6.5 11.5 -6.5 21.5c0 16 4.5 32.5 13.5 49.5
s20.5 32.5 34.5 46.5s29.5 25.5 46.5 34.5s33.167 13.5 48.5 13.5c9.33301 0 15 -2.33301 17 -7s5.33301 -10 10 -16c1.33301 -2 3 -3.66699 5 -5z" />
    <glyph glyph-name="guillemotleft" unicode="&#xab;" 
d="M397 268c0 7.33301 -2.67188 14.167 -8.00488 20.5s-12.666 9.5 -21.999 9.5c-4.66699 0 -9 -1 -13 -3c-31.333 -15.333 -61.5 -32.166 -90.5 -50.499s-58.833 -34.5 -89.5 -48.5c-5.33301 -2 -9.66602 -5.33301 -12.999 -10s-5 -10 -5 -16c0 -6.66699 3 -13.667 9 -21
c28 -31.333 55 -58.5 81 -81.5s50.667 -47.167 74 -72.5c6 -6.66699 13.333 -10 22 -10c8 0 15 2.83301 21 8.5s9 12.834 9 21.501c0 8 -2.66699 14.667 -8 20c-19.333 21.333 -39.666 41.666 -60.999 60.999s-43.666 40.666 -66.999 63.999l71.5 41
c23.667 14 47.834 27.333 72.501 40c11.333 5.33301 17 14.333 17 27zM210.995 300.001c0 7.33301 -2.83301 14.167 -8.5 20.5s-12.834 9.5 -21.501 9.5c-7.33301 0 -13.333 -2 -18 -6l-88 -67.5c-29.333 -21.667 -60.666 -40.834 -93.999 -57.501
c-4.66699 -2.66699 -8.83398 -6.33398 -12.501 -11.001s-5.5 -10 -5.5 -16s1.66699 -11.167 5 -15.5s7.33301 -7.83301 12 -10.5c10.667 -6 22.834 -14.167 36.501 -24.5s27.334 -21.666 41.001 -33.999s26.667 -25 39 -38s22.833 -25.167 31.5 -36.5c6 -8 14 -12 24 -12
c7.33301 0 14.166 2.83301 20.499 8.5s9.5 12.834 9.5 21.501c0 6.66699 -5.16699 16.5 -15.5 29.5s-22.5 26.333 -36.5 40s-28.333 26.834 -43 39.501l-35 30c26 15.333 51.167 32.166 75.5 50.499l71.5 55.5c8 6 12 14 12 24z" />
    <glyph glyph-name="logicalnot" unicode="&#xac;" 
d="M456 286c0 9.33301 -3 16.332 -9 20.999s-13 7 -21 7h-138c-44 0 -88.5 -1.5 -133.5 -4.5s-89.167 -6.83301 -132.5 -11.5c-8 -1.33301 -14.5 -4.66602 -19.5 -9.99902s-7.5 -11.666 -7.5 -18.999c0 -12.667 4 -21 12 -25s15.333 -6 22 -6c4 0 8.66699 0.666992 14 2
c14 2 32 4 54 6s44.833 3.5 68.5 4.5s46.667 1.83301 69 2.5s40.5 1 54.5 1h93l-18 -50.5c-6 -17 -11.333 -33.5 -16 -49.5c-1.33301 -3.33301 -2.5 -7.33301 -3.5 -12s-1.5 -9.33398 -1.5 -14.001c0 -7.33301 2 -13.833 6 -19.5s11.667 -8.5 23 -8.5
c6 0 11.667 1.83301 17 5.5s9 9.16699 11 16.5c7.33301 23.333 15.833 48.333 25.5 75l28.5 75c1.33301 2.66699 2 5 2 7v7z" />
    <glyph glyph-name="registered" unicode="&#xae;" horiz-adv-x="759" 
d="M686 208c0 69.333 -13.4951 134.668 -40.4951 196.001s-66.5 114.666 -118.5 159.999c-6.66699 5.33301 -13.334 8 -20.001 8c-4.66699 0 -9.66699 -1.33301 -15 -4c-16 12 -32.833 20.333 -50.5 25s-37.167 7 -58.5 7c-51.333 0 -100 -11.833 -146 -35.5
s-86.333 -54.5 -121 -92.5s-62.334 -81 -83.001 -129s-31 -96.333 -31 -145c0 -59.333 9 -110.5 27 -153.5s42 -78.667 72 -107s64.167 -49.333 102.5 -63s78.166 -20.5 119.499 -20.5c44 0 87.667 7.66699 131 23s82.166 38 116.499 68s62.166 67 83.499 111
s32 94.667 32 152zM626.005 208.002c0 -47.333 -8.83984 -89.1689 -26.5068 -125.502s-40.667 -67.166 -69 -92.499s-60.666 -44.5 -96.999 -57.5s-73.166 -19.5 -110.499 -19.5c-33.333 0 -65.666 5.5 -96.999 16.5s-59.166 28.167 -83.499 51.5s-43.833 53 -58.5 89
s-22 78.667 -22 128c0 41.333 8.83301 82.333 26.5 123s41.334 77.334 71.001 110.001s63.834 59 102.501 79s79 30 121 30c19.333 0 35.833 -2.5 49.5 -7.5s26.834 -14.167 39.501 -27.5c4 -3.33301 8 -5.5 12 -6.5s7.33301 -1.5 10 -1.5c5.33301 0 10 1 14 3
c38 -38 67.167 -82 87.5 -132s30.5 -103.333 30.5 -160zM505.998 328.999c0 32.667 -13.666 59.332 -40.999 79.999s-63 31 -107 31c-27.333 0 -50.166 -5 -68.499 -15s-37.833 -22.333 -58.5 -37c-4.66699 -3.33301 -7.83398 -7.16602 -9.50098 -11.499
s-2.5 -8.5 -2.5 -12.5c0 -8 2.83301 -15 8.5 -21s12.834 -9 21.501 -9c4.66699 0 9 1 13 3c-7.33301 -16 -15.333 -32 -24 -48l-25 -48l-16.5 -30.5c-7.66699 -14.333 -15.334 -29.833 -23.001 -46.5s-14.5 -32.334 -20.5 -47.001s-9 -25.334 -9 -32.001
c0 -9.33301 3.16699 -16.5 9.5 -21.5s13.166 -7.5 20.499 -7.5c5.33301 0 10.666 1.5 15.999 4.5s9.33301 8.16699 12 15.5c8.66699 26.667 19.167 52.5 31.5 77.5l38.5 74.5l38.5 74c12.333 24.667 23.166 50.334 32.499 77.001c3.33301 0.666992 8.33301 1 15 1
c32.667 0 55.334 -5.66699 68.001 -17s19 -23.333 19 -36c0 -14.667 -6.83301 -31 -20.5 -49s-35.5 -32.667 -65.5 -44l-19.5 -7c-7.66699 -2.66699 -15.167 -6 -22.5 -10s-13.666 -8.66699 -18.999 -14s-8 -11.333 -8 -18c0 -5.33301 1.33301 -9.83301 4 -13.5
s5.66699 -6.83398 9 -9.50098c14.667 -11.333 27.167 -22.5 37.5 -33.5s19.333 -22.167 27 -33.5s15 -23.666 22 -36.999l23.5 -44c6 -10.667 14.667 -16 26 -16c8 0 15 2.83301 21 8.5s9 12.834 9 21.501c0 6 -1.33301 10.667 -4 14l-21 40c-6 11.333 -12 21.833 -18 31.5
s-13 19.5 -21 29.5s-18 21.333 -30 34c44 20 76.833 43.5 98.5 70.5s32.5 54.167 32.5 81.5z" />
    <glyph glyph-name="macron" unicode="&#xaf;" horiz-adv-x="365" 
d="M419 420c0 7.33301 -2.5 14.166 -7.5 20.499s-12.5 9.5 -22.5 9.5h-279c-10 0 -17.5 -3.16699 -22.5 -9.5s-7.5 -13.166 -7.5 -20.499s2.5 -14.166 7.5 -20.499s12.5 -9.5 22.5 -9.5h279c10 0 17.5 3.16699 22.5 9.5s7.5 13.166 7.5 20.499z" />
    <glyph glyph-name="macron" unicode="&#x2c9;" horiz-adv-x="365" 
d="M419 420c0 7.33301 -2.5 14.166 -7.5 20.499s-12.5 9.5 -22.5 9.5h-279c-10 0 -17.5 -3.16699 -22.5 -9.5s-7.5 -13.166 -7.5 -20.499s2.5 -14.166 7.5 -20.499s12.5 -9.5 22.5 -9.5h279c10 0 17.5 3.16699 22.5 9.5s7.5 13.166 7.5 20.499z" />
    <glyph glyph-name="degree" unicode="&#xb0;" horiz-adv-x="234" 
d="M298 463c0 40.667 -10.501 70.502 -31.501 89.502s-45.5 28.5 -73.5 28.5c-17.333 0 -34.666 -3.33301 -51.999 -10s-33 -16 -47 -28s-25.5 -26.667 -34.5 -44s-13.5 -36.333 -13.5 -57c0 -16 2.83301 -31.333 8.5 -46s13.667 -27.834 24 -39.501s22.666 -21 36.999 -28
s30.166 -10.5 47.499 -10.5c20 0 38.333 4.16699 55 12.5s30.834 19.166 42.501 32.499s20.834 28.833 27.501 46.5s10 35.5 10 53.5zM237.999 463.002c0 -12 -1.99805 -23.165 -5.99805 -33.498s-9.5 -19.333 -16.5 -27s-15 -13.667 -24 -18s-18.5 -6.5 -28.5 -6.5
c-15.333 0 -28.666 6.16699 -39.999 18.5s-17 27.5 -17 45.5c0 10.667 2.66699 20.667 8 30s12.166 17.666 20.499 24.999s17.666 13.166 27.999 17.499s20.5 6.5 30.5 6.5c11.333 0 21.666 -4 30.999 -12s14 -23.333 14 -46z" />
    <glyph glyph-name="plusminus" unicode="&#xb1;" 
d="M485 279c0 7.33301 -2.50293 14.165 -7.50293 20.498s-12.5 9.5 -22.5 9.5h-51h-48c-15.333 0 -31.166 -0.166992 -47.499 -0.5s-33.5 -0.5 -51.5 -0.5l30.5 75.5l29.5 72.5l5.5 15c1.66699 4.66699 2.5 9.66699 2.5 15c0 8 -2.66699 14.5 -8 19.5
s-12.666 7.5 -21.999 7.5c-5.33301 0 -10.666 -1.5 -15.999 -4.5s-9.33301 -8.16699 -12 -15.5l-36 -91.5l-38 -94.5c-16.667 0 -32.334 -0.166992 -47.001 -0.5l-43 -1l-42.5 -1c-14.333 -0.333008 -29.5 -0.833008 -45.5 -1.5c-10 0 -17.5 -3.16699 -22.5 -9.5
s-7.5 -13.166 -7.5 -20.499s2.5 -14.166 7.5 -20.499s12.5 -9.5 22.5 -9.5h39c12.667 0 25 0.166992 37 0.5l37 1c12.667 0.333008 26.334 0.5 41.001 0.5c-4.66699 -12 -8.66699 -22.667 -12 -32l-10 -27c-3.33301 -8.66699 -6.5 -17.5 -9.5 -26.5
s-6.16699 -19.5 -9.5 -31.5l-4 -13.5c-1.33301 -4.33301 -2 -8.83301 -2 -13.5c0 -6.66699 2 -13.167 6 -19.5s11.667 -9.5 23 -9.5c6 0 11.667 1.83301 17 5.5s9 9.16699 11 16.5c4 14.667 8 28 12 40s8.16699 23.667 12.5 35l13.5 35.5l16 41.5
c40.667 0.666992 78 1.33398 112 2.00098s70.667 1 110 1c10 0 17.5 3.16699 22.5 9.5s7.5 13.166 7.5 20.499zM426.997 -2.00098c0 6.66699 -2.00293 12.835 -6.00293 18.502s-10 9.16699 -18 10.5c-21.333 3.33301 -48 5.83301 -80 7.5s-68.667 2.5 -110 2.5
c-56 0 -108.167 -1.33301 -156.5 -4s-88.5 -6.66699 -120.5 -12c-9.33301 -1.33301 -16 -5 -20 -11s-6 -12.333 -6 -19c0 -12 3.5 -20 10.5 -24s13.833 -6 20.5 -6c2 0 4.16699 0.166992 6.5 0.5s4.83301 0.5 7.5 0.5c16 2.66699 35.5 5 58.5 7s46.667 3.66699 71 5
s47.833 2.16602 70.5 2.49902s41.667 0.5 57 0.5c32 0 60.833 -0.5 86.5 -1.5s48.834 -2.83301 69.501 -5.5c3.33301 -0.666992 7.33301 -1.33398 12 -2.00098s9.33398 -1 14.001 -1c6.66699 0 13.834 2 21.501 6s11.5 12.333 11.5 25z" />
    <glyph glyph-name="twosuperior" unicode="&#xb2;" horiz-adv-x="333" 
d="M382 286c0 7.33301 -2.49805 14.167 -7.49805 20.5s-12.5 9.5 -22.5 9.5c-16.667 0 -33.167 1.5 -49.5 4.5s-32.5 6.5 -48.5 10.5l-48 12c-16 4 -32.333 7 -49 9c9.33301 5.33301 18.166 11.166 26.499 17.499l25.5 19.5l44 36c14.667 12 27.834 24.833 39.501 38.5
s21.167 28.667 28.5 45s11 35.5 11 57.5c0 10.667 -1.83301 21.334 -5.5 32.001s-9 20.167 -16 28.5s-15.833 15 -26.5 20s-23 7.5 -37 7.5c-18 0 -34.5 -2.5 -49.5 -7.5s-28.833 -11.667 -41.5 -20s-24.5 -17.666 -35.5 -27.999s-20.833 -20.5 -29.5 -30.5
c-5.33301 -5.33301 -8 -12 -8 -20c0 -8.66699 3 -15.834 9 -21.501s13 -8.5 21 -8.5c4.66699 0 9.5 1.5 14.5 4.5s9.83301 6.66699 14.5 11l13.5 13l11.5 11.5c9.33301 9.33301 20.5 17.666 33.5 24.999s28.5 11 46.5 11c16.667 0 25 -9.33301 25 -28
c0 -14.667 -3.5 -28.167 -10.5 -40.5s-15.667 -23.666 -26 -33.999s-21.5 -20 -33.5 -29l-33 -25.5c-26 -22 -53.5 -41.833 -82.5 -59.5s-57.5 -36.167 -85.5 -55.5c-6 -4 -11.667 -8.16699 -17 -12.5s-8 -10.833 -8 -19.5c0 -7.33301 2.66699 -14.333 8 -21
s12.666 -10 21.999 -10c6.66699 0 11.667 1.5 15 4.5s7.66602 6.16699 12.999 9.5c12 8.66699 24.667 14.334 38 17.001s28.333 4 45 4c20 0 39.667 -2 59 -6s38.833 -8.33301 58.5 -13s39.167 -9 58.5 -13s39 -6 59 -6c10 0 17.5 3.16699 22.5 9.5s7.5 13.166 7.5 20.499z
" />
    <glyph glyph-name="threesuperior" unicode="&#xb3;" horiz-adv-x="333" 
d="M360 349c0 26 -7.00391 47.166 -21.0039 63.499s-30.667 28.833 -50 37.5c17.333 11.333 32.5 25.333 45.5 42s19.5 36 19.5 58c0 32.667 -10.333 58.167 -31 76.5s-46.667 27.5 -78 27.5c-24.667 0 -46.5 -5 -65.5 -15s-36.833 -23 -53.5 -39
c-3.33301 -4 -5.5 -8 -6.5 -12s-1.5 -7.33301 -1.5 -10c0 -8 3 -15 9 -21s13 -9 21 -9c8.66699 0 16.334 2.83301 23.001 8.5l19 16.5c6.66699 5.33301 14.167 10.166 22.5 14.499s19.166 6.5 32.499 6.5c17.333 0 29.833 -4 37.5 -12s11.5 -18.667 11.5 -32
c0 -8.66699 -3.66699 -17.5 -11 -26.5s-17 -17.167 -29 -24.5s-25.667 -14 -41 -20s-31 -10.333 -47 -13c-5.33301 -1.33301 -11.166 -2.16602 -17.499 -2.49902s-12.166 -1.5 -17.499 -3.5s-9.83301 -5 -13.5 -9s-5.5 -10 -5.5 -18c0 -12.667 4.16699 -20.834 12.5 -24.501
s15.5 -5.5 21.5 -5.5c4.66699 0 9.5 0.333008 14.5 1s9.16699 1.33398 12.5 2.00098c4.66699 0.666992 9 1.16699 13 1.5s8.66699 0.5 14 0.5c30 0 54.167 -5.83301 72.5 -17.5s27.5 -25.5 27.5 -41.5c0 -10 -3.33301 -19.333 -10 -28s-15.5 -16.334 -26.5 -23.001
s-23.833 -12 -38.5 -16s-30 -6 -46 -6c-20 0 -35 2.66699 -45 8s-18 11 -24 17s-11.333 11.667 -16 17s-11 8 -19 8c-7.33301 0 -14.333 -2.66699 -21 -8s-10 -12.666 -10 -21.999c0 -3.33301 0.5 -6.16602 1.5 -8.49902s2.16699 -4.5 3.5 -6.5
c12.667 -23.333 31.334 -40 56.001 -50s50.334 -15 77.001 -15c20 0 40.5 2.83301 61.5 8.5s40.167 14 57.5 25s31.5 24.833 42.5 41.5s16.5 36 16.5 58z" />
    <glyph glyph-name="acute" unicode="&#xb4;" horiz-adv-x="365" 
d="M427 511c0 8 -2.83105 15.001 -8.49805 21.001s-12.834 9 -21.501 9c-6.66699 0 -13.334 -2.66699 -20.001 -8c-22.667 -20 -44.5 -40.333 -65.5 -61s-42.167 -44 -63.5 -70c-4.66699 -4.66699 -7 -11 -7 -19c0 -8.66699 3.16699 -15.834 9.5 -21.501
s13.166 -8.5 20.499 -8.5c9.33301 0 17 3.66699 23 11c20.667 24 40.834 45.833 60.501 65.5s40.5 39.5 62.5 59.5c6.66699 6 10 13.333 10 22z" />
    <glyph glyph-name="mu" unicode="&#xb5;" horiz-adv-x="569" 
d="M592 158c0 9.33301 -3.16797 16.6641 -9.50098 21.9971s-13.166 8 -20.499 8c-11.333 0 -19.666 -4.66699 -24.999 -14c-6.66699 -10 -15 -20.5 -25 -31.5s-20.667 -21.833 -32 -32.5s-23 -20.667 -35 -30s-23.333 -17.333 -34 -24c-11.333 -7.33301 -20 -11 -26 -11
c-7.33301 0 -12.333 4.5 -15 13.5s-4 20.833 -4 35.5c0 16.667 1.5 32.834 4.5 48.501s6.83301 31.5 11.5 47.5l7.5 23l9 29c3 10 5.5 19.5 7.5 28.5s3 16.167 3 21.5c0 9.33301 -3 16.833 -9 22.5s-12.667 8.5 -20 8.5c-14 0 -23.667 -7 -29 -21
c-9.33301 -24 -21.666 -47.667 -36.999 -71s-32 -46.166 -50 -68.499s-36.667 -43.833 -56 -64.5l-55 -59c-4 -4.66699 -7.83301 -8.5 -11.5 -11.5s-7.16699 -4.5 -10.5 -4.5c-4 0 -6 4.66699 -6 14v8c2 19.333 5.5 38.333 10.5 57s10.833 37.167 17.5 55.5l21 55
c7.33301 18.333 14 36.5 20 54.5c0.666992 2 1 5.66699 1 11c0 8.66699 -3 15.667 -9 21s-12.667 8 -20 8c-12.667 0 -22 -5.66699 -28 -17c-16.667 -32 -32.667 -65.333 -48 -100s-31.333 -68 -48 -100c-4.66699 -8.66699 -12.334 -22 -23.001 -40l-37.5 -61.5l-46 -72
l-47.5 -72l-42.5 -62.5c-13 -18.667 -23.5 -32.667 -31.5 -42c-4.66699 -5.33301 -7 -11.666 -7 -18.999c0 -8.66699 3.16699 -15.834 9.5 -21.501s13.166 -8.5 20.499 -8.5c9.33301 0 17 3.66699 23 11c10 12.667 23.667 31.334 41 56.001l55.5 81l58.5 89.5l50 80.5
c0.666992 -6 2.16699 -12.5 4.5 -19.5s5.5 -13.5 9.5 -19.5s9 -10.833 15 -14.5s13 -5.5 21 -5.5c14.667 0 27.167 3 37.5 9s20.166 13.667 29.499 23c22 22 43.5 45 64.5 69s41.167 48.333 60.5 73c-0.666992 -4 -1 -8.33301 -1 -13v-12c0 -10.667 1.16699 -23 3.5 -37
s6.16602 -27.167 11.499 -39.5s12.833 -22.833 22.5 -31.5s21.834 -13 36.501 -13c6.66699 0 16.5 3.33301 29.5 10s27.333 15.334 43 26.001s31.834 22.667 48.501 36s31.667 26.666 45 39.999s24.333 26 33 38s13 22 13 30z" />
    <glyph glyph-name="mu" unicode="&#x3bc;" horiz-adv-x="569" 
d="M592 158c0 9.33301 -3.16797 16.6641 -9.50098 21.9971s-13.166 8 -20.499 8c-11.333 0 -19.666 -4.66699 -24.999 -14c-6.66699 -10 -15 -20.5 -25 -31.5s-20.667 -21.833 -32 -32.5s-23 -20.667 -35 -30s-23.333 -17.333 -34 -24c-11.333 -7.33301 -20 -11 -26 -11
c-7.33301 0 -12.333 4.5 -15 13.5s-4 20.833 -4 35.5c0 16.667 1.5 32.834 4.5 48.501s6.83301 31.5 11.5 47.5l7.5 23l9 29c3 10 5.5 19.5 7.5 28.5s3 16.167 3 21.5c0 9.33301 -3 16.833 -9 22.5s-12.667 8.5 -20 8.5c-14 0 -23.667 -7 -29 -21
c-9.33301 -24 -21.666 -47.667 -36.999 -71s-32 -46.166 -50 -68.499s-36.667 -43.833 -56 -64.5l-55 -59c-4 -4.66699 -7.83301 -8.5 -11.5 -11.5s-7.16699 -4.5 -10.5 -4.5c-4 0 -6 4.66699 -6 14v8c2 19.333 5.5 38.333 10.5 57s10.833 37.167 17.5 55.5l21 55
c7.33301 18.333 14 36.5 20 54.5c0.666992 2 1 5.66699 1 11c0 8.66699 -3 15.667 -9 21s-12.667 8 -20 8c-12.667 0 -22 -5.66699 -28 -17c-16.667 -32 -32.667 -65.333 -48 -100s-31.333 -68 -48 -100c-4.66699 -8.66699 -12.334 -22 -23.001 -40l-37.5 -61.5l-46 -72
l-47.5 -72l-42.5 -62.5c-13 -18.667 -23.5 -32.667 -31.5 -42c-4.66699 -5.33301 -7 -11.666 -7 -18.999c0 -8.66699 3.16699 -15.834 9.5 -21.501s13.166 -8.5 20.499 -8.5c9.33301 0 17 3.66699 23 11c10 12.667 23.667 31.334 41 56.001l55.5 81l58.5 89.5l50 80.5
c0.666992 -6 2.16699 -12.5 4.5 -19.5s5.5 -13.5 9.5 -19.5s9 -10.833 15 -14.5s13 -5.5 21 -5.5c14.667 0 27.167 3 37.5 9s20.166 13.667 29.499 23c22 22 43.5 45 64.5 69s41.167 48.333 60.5 73c-0.666992 -4 -1 -8.33301 -1 -13v-12c0 -10.667 1.16699 -23 3.5 -37
s6.16602 -27.167 11.499 -39.5s12.833 -22.833 22.5 -31.5s21.834 -13 36.501 -13c6.66699 0 16.5 3.33301 29.5 10s27.333 15.334 43 26.001s31.834 22.667 48.501 36s31.667 26.666 45 39.999s24.333 26 33 38s13 22 13 30z" />
    <glyph glyph-name="paragraph" unicode="&#xb6;" horiz-adv-x="500" 
d="M552 542c0 7.33301 -2.50684 14.1631 -7.50684 20.4961s-12.5 9.5 -22.5 9.5c-25.333 0 -50.333 1 -75 3c-4.66699 2.66699 -9.66699 4 -15 4c-2 0 -3.83301 -0.166992 -5.5 -0.5s-3.5 -0.833008 -5.5 -1.5c-20.667 1.33301 -41.334 2.83301 -62.001 4.5
s-41.334 2.5 -62.001 2.5c-36.667 0 -73.167 -5.5 -109.5 -16.5s-69 -27.167 -98 -48.5s-52.5 -47.666 -70.5 -78.999s-27 -67.333 -27 -108c0 -21.333 2.33301 -39.666 7 -54.999s11.334 -29 20.001 -41s18.667 -23.333 30 -34l38 -35c5.33301 -5.33301 12 -8 20 -8
c8.66699 0 15.834 3 21.501 9s8.5 13 8.5 21c0 8.66699 -3.33301 16 -10 22l-28.5 25.5c-9 7.66699 -17 16 -24 25s-12.5 19 -16.5 30s-6 24.5 -6 40.5c0 26 5.66699 50.167 17 72.5s26.833 41.833 46.5 58.5s42.5 30.167 68.5 40.5s53.667 16.833 83 19.5l-25 -87
l-33 -108.5l-37.5 -117.5l-38 -115c-12.333 -36.667 -24.166 -70.167 -35.499 -100.5s-21 -55.166 -29 -74.499l-9.5 -25.5c-4.33301 -11.667 -8.66602 -24 -12.999 -37s-8.16602 -25.5 -11.499 -37.5s-5 -21 -5 -27c0 -6.66699 2.5 -13.834 7.5 -21.501
s12.5 -11.5 22.5 -11.5c6 0 11.333 2.33301 16 7s8.83398 10 12.501 16s6.33398 12 8.00098 18s2.5 10.667 2.5 14c0 2.66699 -0.333008 4.66699 -1 6c4 13.333 8.16699 25.833 12.5 37.5l14.5 37.5c8.66699 20 18.834 46.333 30.501 79l37.5 107.5l40 122l38.5 123
l33.5 110.5c10 34 18 62.333 24 85c11.333 -0.666992 22.5 -1.16699 33.5 -1.5s22.167 -1.16602 33.5 -2.49902c-6 -28 -14.667 -62.667 -26 -104l-38 -133.5l-44.5 -147l-46 -145l-42 -127.5c-13 -38.667 -24.167 -69.667 -33.5 -93c-1.33301 -5.33301 -2 -9.33301 -2 -12
c0 -9.33301 3.33301 -16.5 10 -21.5s13.334 -7.5 20.001 -7.5c6 0 11.5 1.5 16.5 4.5s8.83301 7.83301 11.5 14.5c9.33301 24.667 20.833 56.834 34.5 96.501l43.5 131l47 149.5l45.5 151c14.333 48.667 27 93.834 38 135.501s19.5 76.167 25.5 103.5
c11.333 -0.666992 22.333 -1.16699 33 -1.5s21.667 -0.5 33 -0.5c10 0 17.5 3.16699 22.5 9.5s7.5 13.166 7.5 20.499z" />
    <glyph glyph-name="periodcentered" unicode="&#xb7;" horiz-adv-x="240" 
d="M140 160c0 7.33301 -2.33301 15 -7 23s-12.667 12 -24 12c-6.66699 0 -12.667 -1.66699 -18 -5s-9.83301 -7.5 -13.5 -12.5s-6.5 -10.333 -8.5 -16s-3 -10.5 -3 -14.5c0 -8.66699 2.83301 -16 8.5 -22s13.167 -9 22.5 -9c11.333 0 21.333 4.83301 30 14.5
s13 19.5 13 29.5z" />
    <glyph glyph-name="cedilla" unicode="&#xb8;" horiz-adv-x="365" 
d="M126 -115c0 15.333 -4.5 29.999 -13.5 43.999s-23.167 24.333 -42.5 31c6.66699 4 12.834 8.33301 18.501 13s8.5 11.667 8.5 21c0 7.33301 -2.83301 14.166 -8.5 20.499s-12.834 9.5 -21.501 9.5c-7.33301 0 -13.333 -2 -18 -6c-6 -4.66699 -13.167 -9.66699 -21.5 -15
s-16.5 -11 -24.5 -17s-14.833 -12.667 -20.5 -20s-8.5 -15.333 -8.5 -24c0 -11.333 4.16699 -19.833 12.5 -25.5s17.833 -8.5 28.5 -8.5c18.667 0 32.167 -2.66699 40.5 -8s12.5 -10.666 12.5 -15.999c0 -8.66699 -7 -13 -21 -13c-12 0 -21.5 -3.5 -28.5 -10.5
s-10.5 -14.5 -10.5 -22.5c0 -7.33301 3 -13.666 9 -18.999s15.667 -8 29 -8c26.667 0 46.667 7.5 60 22.5s20 32.167 20 51.5z" />
    <glyph glyph-name="onesuperior" unicode="&#xb9;" horiz-adv-x="333" 
d="M404 657c0 8.66699 -3.16895 15.832 -9.50195 21.499s-13.166 8.5 -20.499 8.5c-10 0 -18.333 -4.33301 -25 -13c-15.333 -20 -33.166 -36.833 -53.499 -50.5s-39.833 -28.834 -58.5 -45.501c-15.333 -13.333 -32.666 -27 -51.999 -41s-37 -27.667 -53 -41
c-7.33301 -5.33301 -11 -13 -11 -23c0 -7.33301 2.83301 -14.166 8.5 -20.499s12.834 -9.5 21.501 -9.5c7.33301 0 13.666 2.33301 18.999 7l63 51l-58.5 -87.5l-67.5 -99.5c-3.33301 -5.33301 -5 -11 -5 -17c0 -9.33301 3.16699 -16.666 9.5 -21.999s13.166 -8 20.499 -8
c10.667 0 19 4.33301 25 13l64.5 95l56 84l56 84l64.5 96c4 6 6 12 6 18z" />
    <glyph glyph-name="ordmasculine" unicode="&#xba;" horiz-adv-x="296" 
d="M255 401c0 14.667 -2.16699 28.332 -6.5 40.999s-11 23.667 -20 33s-20.5 16.833 -34.5 22.5s-30.667 8.5 -50 8.5c-26.667 0 -49.834 -6.33301 -69.501 -19s-36 -28.667 -49 -48s-22.833 -40.166 -29.5 -62.499s-10 -42.833 -10 -61.5c0 -14 2 -28 6 -42
s10 -26.667 18 -38s18.333 -20.666 31 -27.999s28 -11 46 -11c22.667 0 44.334 6.66699 65.001 20s38.5 30.166 53.5 50.499s27 42.5 36 66.5s13.5 46.667 13.5 68zM188 396.998c0 -15.333 -3 -31.332 -9 -47.999s-13.833 -31.834 -23.5 -45.501s-20.5 -25 -32.5 -34
s-24 -13.5 -36 -13.5c-11.333 0 -21 4.83301 -29 14.5s-12 24.5 -12 44.5c0 16 2.5 31.833 7.5 47.5s12 29.667 21 42s19.333 22.333 31 30s24.5 11.5 38.5 11.5c16 0 27.333 -4.33301 34 -13s10 -20.667 10 -36z" />
    <glyph glyph-name="guillemotright" unicode="&#xbb;" 
d="M513 178c0 5.33301 -1.33496 10 -4.00195 14s-5.66699 7.66699 -9 11c-3.33301 2 -10.166 6.83301 -20.499 14.5l-37.5 27l-46.5 32.5l-46 31.5l-37 25c-10.333 7 -16.833 10.833 -19.5 11.5c-5.33301 1.33301 -9 2 -11 2c-9.33301 0 -16.666 -3.33301 -21.999 -10
s-8 -13.334 -8 -20.001c0 -13.333 6.66699 -22.666 20 -27.999l23 -16l55 -38l72 -51c-17.333 -10 -33.666 -21 -48.999 -33l-45.5 -37l-45 -38.5c-15 -13 -30.5 -24.833 -46.5 -35.5c-8.66699 -6.66699 -13 -15 -13 -25c0 -7.33301 2.66699 -14.166 8 -20.499
s12.666 -9.5 21.999 -9.5c6 0 11.667 1.66699 17 5c18 12 35.833 25.833 53.5 41.5l53.5 46.5c18 15.333 36.5 29.5 55.5 42.5s38.5 23.167 58.5 30.5c6 2 11.167 5.16699 15.5 9.5s6.5 10.166 6.5 17.499zM315.998 190c0 6 -1.66797 11.0039 -5.00098 15.0039
s-7.33301 7.33301 -12 10c-15.333 7.33301 -29.666 16.166 -42.999 26.499l-41 32.5c-4.66699 4 -11.667 9.66699 -21 17l-29 22c-10 7.33301 -19.833 13.666 -29.5 18.999s-17.5 8 -23.5 8c-9.33301 0 -16.666 -3.16699 -21.999 -9.5s-8 -13.166 -8 -20.499
c0 -12 5.66699 -21 17 -27c24 -12.667 46.167 -28 66.5 -46s41.5 -34.667 63.5 -50c-32 -16.667 -63.333 -34.334 -94 -53.001s-60 -40.334 -88 -65.001c-6.66699 -6.66699 -10 -14 -10 -22s3 -15 9 -21s13 -9 21 -9s14.667 2.66699 20 8c28 24.667 58.167 46.5 90.5 65.5
s65.5 36.833 99.5 53.5c2.66699 1.33301 6.16699 3.66602 10.5 6.99902s8.66602 7.16602 12.999 11.499s8 8.83301 11 13.5s4.5 9.33398 4.5 14.001z" />
    <glyph glyph-name="onequarter" unicode="&#xbc;" horiz-adv-x="586" 
d="M320 646c0 9.33301 -3.16797 16.499 -9.50098 21.499s-13.166 7.5 -20.499 7.5c-9.33301 0 -17.666 -3.66699 -24.999 -11c-21.333 -27.333 -44.833 -52 -70.5 -74s-52.5 -43.333 -80.5 -64c-4.66699 -3.33301 -7.83398 -7.16602 -9.50098 -11.499s-2.5 -8.5 -2.5 -12.5
c0 -8 2.83301 -15 8.5 -21s12.834 -9 21.501 -9c6 0 12 2 18 6c5.33301 3.33301 10.333 7 15 11s9.66699 8 15 12l-36 -82.5l-34 -82.5c-1.33301 -2.66699 -2 -5.33398 -2 -8.00098v-5c0 -9.33301 3.16699 -16.5 9.5 -21.5s13.166 -7.5 20.499 -7.5
c5.33301 0 10.5 1.33301 15.5 4s9.16699 7.33398 12.5 14.001l67 161c22.667 53.333 50 105 82 155c3.33301 6.66699 5 12.667 5 18zM609.999 635.999c0 8 -3.00293 14.999 -9.00293 20.999s-13 9 -21 9c-8.66699 0 -16 -3.33301 -22 -10
c-55.333 -60 -108.666 -121.167 -159.999 -183.5s-104.666 -123.833 -159.999 -184.5l-78.5 -86l-70.5 -78c-22 -24.667 -42 -46.167 -60 -64.5s-33 -32.166 -45 -41.499c-8 -7.33301 -12 -15.333 -12 -24c0 -8 2.83301 -15 8.5 -21s12.834 -9 21.501 -9
c2.66699 0 5.5 0.333008 8.5 1s6.16699 2.33398 9.5 5.00098c24.667 19.333 48 40.166 70 62.499s43.5 45.333 64.5 69l61.5 71.5l61 71l162 186.5c52.667 63 107 124.833 163 185.5c5.33301 5.33301 8 12 8 20zM609.996 25.998c0 7.33301 -2.66992 14.167 -8.00293 20.5
s-12.666 9.5 -21.999 9.5c-3.33301 0 -8 -0.666992 -14 -2s-14 -2 -24 -2c-20 0 -39.333 1 -58 3l21.5 60l29 83.5c9.66699 29 18.167 56.333 25.5 82s10.666 43.834 9.99902 54.501c-0.666992 8 -3.16699 15.333 -7.5 22s-11.166 10 -20.499 10
c-5.33301 0 -10.5 -1.33301 -15.5 -4s-9.16699 -6.66699 -12.5 -12c-10 -17.333 -22.333 -33 -37 -47s-28.667 -28.333 -42 -43c-36 -39.333 -74 -76.333 -114 -111l-121 -105c-8 -6.66699 -12 -14.667 -12 -24c0 -8.66699 3.16699 -15.5 9.5 -20.5s13.166 -7.5 20.499 -7.5
c2 0 7 0.666992 15 2s17.833 2.83301 29.5 4.5s24.334 3.16699 38.001 4.5s27.5 2 41.5 2c20 0 39.667 -1 59 -3l-11 -29c-4.66699 -12 -9.16699 -24.333 -13.5 -37s-8 -24.834 -11 -36.501s-4.5 -20.834 -4.5 -27.501c0 -10 3.33301 -17.333 10 -22s13.334 -7 20.001 -7
c6 0 12 1.83301 18 5.5s10 9.83398 12 18.501c4.66699 22.667 10.834 44.5 18.501 65.5l23.5 63.5c13.333 -1.33301 26.5 -2.5 39.5 -3.5s26.167 -1.5 39.5 -1.5c10 0 17.333 0.333008 22 1l20 3c9.33301 1.33301 16 5 20 11s6 12.333 6 19zM478.993 220.999
c-8.66699 -27.333 -17.833 -54.333 -27.5 -81l-28.5 -79c-13.333 1.33301 -26.833 2.5 -40.5 3.5s-27.167 1.5 -40.5 1.5h-26l82.5 76z" />
    <glyph glyph-name="onehalf" unicode="&#xbd;" horiz-adv-x="586" 
d="M350 636c0 9.33301 -3.33301 16.6631 -10 21.9961s-13.667 8 -21 8c-10.667 0 -19 -4.33301 -25 -13c-20.667 -29.333 -47.167 -56.166 -79.5 -80.499s-64.5 -44.5 -96.5 -60.5c-6 -3.33301 -10.167 -7.16602 -12.5 -11.499s-3.5 -9.16602 -3.5 -14.499
c0 -8 2.83301 -15 8.5 -21s12.834 -9 21.501 -9c4 0 9.66699 1.83301 17 5.5s12.666 6.16699 15.999 7.5l-38.5 -64.5l-38.5 -64.5c-2.66699 -5.33301 -4 -10.666 -4 -15.999c0 -8.66699 3 -15.834 9 -21.501s13 -8.5 21 -8.5c4 0 8.5 1 13.5 3s9.16699 5.66699 12.5 11
l93.5 159c31 52.667 66.833 102.334 107.5 149.001c2 2 4 4.66699 6 8s3 7.33301 3 12zM634 635.997c0 8 -2.83301 15 -8.5 21s-12.834 9 -21.501 9c-2 0 -4.33301 -0.166992 -7 -0.5s-5.66699 -1.5 -9 -3.5c-12 -8 -29.167 -22.667 -51.5 -44s-47 -46.333 -74 -75l-85 -92
l-84 -94.5l-70.5 -81.5l-45 -53l-89.5 -107c-31.667 -36.667 -63.5 -70.667 -95.5 -102c-3.33301 -4 -5.5 -8 -6.5 -12s-1.5 -7.33301 -1.5 -10c0 -8 3 -15 9 -21s13 -9 21 -9c2.66699 0 6 0.5 10 1.5s8 3.16699 12 6.5c32.667 33.333 64.834 68.833 96.501 106.5
l92.5 110.5l44 52l68.5 79l81.5 91.5l82 89c26 27.667 49.5 51.667 70.5 72s36.833 33.833 47.5 40.5c5.33301 3.33301 9 7.5 11 12.5s3 9.5 3 13.5zM562 -68.0029c0 8.66699 -4.00098 16.6689 -12.001 24.002c-11.333 8.66699 -24.666 16 -39.999 22s-31.5 10.667 -48.5 14
s-34.333 6 -52 8s-33.834 3.33301 -48.501 4c18 11.333 37.833 24.666 59.5 39.999s42.167 32 61.5 50s35.5 36.833 48.5 56.5s19.5 39.5 19.5 59.5c0 27.333 -8.66699 49.5 -26 66.5s-41.333 25.5 -72 25.5c-19.333 0 -37 -3.33301 -53 -10s-30.833 -15 -44.5 -25
s-25.834 -21.167 -36.501 -33.5s-20.334 -24.166 -29.001 -35.499c-4 -4.66699 -6 -10.667 -6 -18c0 -8.66699 3 -15.834 9 -21.501s13 -8.5 21 -8.5c4 0 8.16699 0.833008 12.5 2.5s8.16602 4.83398 11.499 9.50098c17.333 22.667 35.333 41.667 54 57s39 23 61 23
c14.667 0 24.667 -3 30 -9s8 -13.667 8 -23c0 -15.333 -8.66699 -32.166 -26 -50.499s-37.5 -36.333 -60.5 -54s-46.167 -33.667 -69.5 -48l-53 -32.5c-6 -4 -14.167 -8.66699 -24.5 -14s-20.666 -11.166 -30.999 -17.499s-19.166 -13.333 -26.499 -21s-11 -15.5 -11 -23.5
s3 -15 9 -21s13 -9 21 -9c4.66699 0 8.66699 1 12 3s6.33301 4 9 6c4 3.33301 8.5 6.16602 13.5 8.49902s11 4 18 5s15.5 1.66699 25.5 2s22.333 0.5 37 0.5c15.333 0 31.833 -0.666992 49.5 -2s34.834 -3.33301 51.501 -6s32.167 -6.33398 46.5 -11.001
s25.5 -10.334 33.5 -17.001c3.33301 -2.66699 6.5 -4.33398 9.5 -5.00098s5.83301 -1 8.5 -1c8.66699 0 15.834 3 21.501 9s8.5 13 8.5 21z" />
    <glyph glyph-name="threequarters" unicode="&#xbe;" horiz-adv-x="586" 
d="M354 588c0 14.667 -3.16309 27.1631 -9.49609 37.4961s-14.333 18.833 -24 25.5s-20 11.5 -31 14.5s-21.5 4.5 -31.5 4.5c-28 0 -53.833 -5.83301 -77.5 -17.5s-44.167 -23.5 -61.5 -35.5c-9.33301 -5.33301 -14 -13.333 -14 -24c0 -8 2.83301 -15 8.5 -21
s12.834 -9 21.501 -9c5.33301 0 10.666 2 15.999 6c17.333 11.333 35.166 21 53.499 29s36.166 12 53.499 12c13.333 0 22.666 -2.66699 27.999 -8s8 -10 8 -14c0 -8 -2.66699 -15.333 -8 -22s-12 -12.667 -20 -18s-16.333 -9.83301 -25 -13.5s-16.334 -6.5 -23.001 -8.5
c-13.333 -5.33301 -26.666 -9.83301 -39.999 -13.5s-26 -9.16699 -38 -16.5c-11.333 -6 -17 -15 -17 -27c0 -9.33301 3.33301 -16.5 10 -21.5s13.334 -7.5 20.001 -7.5c6 0 10.333 0.666992 13 2c7.33301 3.33301 12.833 5.5 16.5 6.5s9.5 1.5 17.5 1.5
c28 0 47.333 -4.5 58 -13.5s16 -21.5 16 -37.5c0 -10.667 -2.83301 -21.167 -8.5 -31.5s-13.667 -19.5 -24 -27.5s-23 -14.333 -38 -19s-31.5 -7 -49.5 -7c-15.333 0 -28.666 4.16699 -39.999 12.5s-21.333 19.833 -30 34.5c-3.33301 5.33301 -7.5 9 -12.5 11
s-9.5 3 -13.5 3c-8 0 -15 -2.83301 -21 -8.5s-9 -12.834 -9 -21.501c0 -5.33301 1.33301 -10.666 4 -15.999c11.333 -19.333 27.166 -36.666 47.499 -51.999s45.166 -23 74.499 -23c24.667 0 48 3.5 70 10.5s41.167 17 57.5 30s29.166 28.333 38.499 46s14 37.167 14 58.5
c0 22.667 -4.5 41.334 -13.5 56.001s-20.833 26.334 -35.5 35.001c18 10.667 34 23.834 48 39.501s21 35.167 21 58.5zM691.004 589.996c0 8 -3.00098 15 -9.00098 21s-13 9 -21 9c-8.66699 0 -16 -3.33301 -22 -10l-91.5 -99.5l-109 -117l-117.5 -124.5l-117.5 -122
l-109.5 -109.5c-34.667 -33.667 -65.334 -62.167 -92.001 -85.5c-6.66699 -6 -10 -13.333 -10 -22c0 -8 2.83301 -15 8.5 -21s12.834 -9 21.501 -9c6.66699 0 13.334 2.66699 20.001 8c27.333 24 58.5 52.833 93.5 86.5l110 109.5l118.5 123l118.5 125.5l109 117.5l91.5 100
c5.33301 5.33301 8 12 8 20zM634.003 1.99609c0 7.33301 -2.66797 14.1689 -8.00098 20.502s-12.666 9.5 -21.999 9.5c-1.33301 0 -4.83301 -0.333008 -10.5 -1s-13 -1.16699 -22 -1.5s-19 -0.833008 -30 -1.5s-22.167 -1 -33.5 -1h-29l18 41.5c6 14.333 12 29.5 18 45.5
l34 88c11.333 28.667 22.333 58 33 88c1.33301 2.66699 2 5 2 7v6c0 7.33301 -2.33301 14.5 -7 21.5s-11.667 10.5 -21 10.5s-17.333 -4.33301 -24 -13l-36 -43l-54.5 -62l-65 -70l-66 -67c-21 -20.667 -40.167 -38.334 -57.5 -53.001s-31 -24.334 -41 -29.001
c-12.667 -6.66699 -19 -16 -19 -28c0 -9.33301 3.33301 -16.666 10 -21.999s13.667 -8 21 -8c2.66699 0 6.66699 0.666992 12 2c20.667 9.33301 43.167 15.666 67.5 18.999s49.833 5.33301 76.5 6l-22.5 -40.5l-31.5 -58c-10.667 -20.333 -20 -39.333 -28 -57
s-12 -30.167 -12 -37.5c0 -9.33301 3.16699 -16.5 9.5 -21.5s13.166 -7.5 20.499 -7.5c5.33301 0 10.5 1.33301 15.5 4s9.16699 7.33398 12.5 14.001c17.333 42 34.666 78.833 51.999 110.5l52 95.5c11.333 0 22.5 -0.166992 33.5 -0.5s21.833 -0.5 32.5 -0.5
c16.667 0 32.834 0.333008 48.501 1s30.834 1.66699 45.501 3c9.33301 1.33301 16 5.16602 20 11.499s6 12.5 6 18.5zM464.002 147.999l-24.501 -60.5c-8.33301 -19.667 -17.5 -39.5 -27.5 -59.5c-13.333 -0.666992 -25.666 -1 -36.999 -1
c-10.667 0 -20.667 -0.333008 -30 -1c18.667 17.333 38.167 36.5 58.5 57.5z" />
    <glyph glyph-name="questiondown" unicode="&#xbf;" horiz-adv-x="411" 
d="M-58 -143c0 -23.333 4.16406 -43.667 12.4971 -61s19.166 -31.666 32.499 -42.999s28.833 -19.833 46.5 -25.5s35.5 -8.5 53.5 -8.5c20 0 40.333 3.33301 61 10s39.334 16.834 56.001 30.501s30.167 30.5 40.5 50.5s15.5 43.333 15.5 70c0 8.66699 -1.16699 18 -3.5 28
s-5.5 19.333 -9.5 28s-9 15.834 -15 21.501s-13 8.5 -21 8.5c-7.33301 0 -14.166 -2.66699 -20.499 -8s-9.5 -12.666 -9.5 -21.999c0 -4.66699 1 -8.83398 3 -12.501l6.5 -12c2.33301 -4.33301 4.5 -9 6.5 -14s3 -11.167 3 -18.5c0 -15.333 -3.33301 -29.166 -10 -41.499
s-15.334 -22.833 -26.001 -31.5s-22.834 -15.334 -36.501 -20.001s-27.5 -7 -41.5 -7c-23.333 0 -43.166 6.33301 -59.499 19s-24.5 32.334 -24.5 59.001c0 23.333 6 42.666 18 57.999s26.833 28.833 44.5 40.5s36.834 22.5 57.501 32.5s39.834 21.167 57.501 33.5
s32.5 26.666 44.5 42.999s18 36.833 18 61.5c0 17.333 -3.33301 32.666 -10 45.999s-14 25.666 -22 36.999c-6 8 -14 12 -24 12c-7.33301 0 -14.166 -2.83301 -20.499 -8.5s-9.5 -12.834 -9.5 -21.501c0 -5.33301 1.33301 -10.166 4 -14.499l9 -14
c3.33301 -5 6.33301 -10.333 9 -16s4 -12.5 4 -20.5c0 -18.667 -10.667 -36 -32 -52c-12 -9.33301 -25 -17.5 -39 -24.5l-41 -21.5c-15.333 -8 -30.5 -17 -45.5 -27s-28.667 -21.667 -41 -35s-22.333 -28.833 -30 -46.5s-11.5 -38.5 -11.5 -62.5zM210.997 314.999
c0 -14.667 4.66797 -26.166 14.001 -34.499s19 -12.5 29 -12.5c7.33301 0 14.166 2.66699 20.499 8s9.5 13 9.5 23c0 13.333 -4.5 24.666 -13.5 33.999s-19.167 14 -30.5 14c-8.66699 0 -15.667 -3 -21 -9s-8 -13.667 -8 -23z" />
    <glyph glyph-name="Agrave" unicode="&#xc0;" horiz-adv-x="672" 
d="M692 154c0 8.66699 -3.33203 15.833 -9.99902 21.5s-13.667 8.5 -21 8.5c-8.66699 0 -16 -3.33301 -22 -10l-15.5 -16l-15.5 -16l-16 -16.5l-27 -29l-31.5 -33.5l-28.5 -29c-4.66699 -5.33301 -8.66699 -8 -12 -8c-4.66699 0 -7 4.33301 -7 13
c1.33301 30 5.66602 59.833 12.999 89.5l22 89.5c4.66699 -0.666992 9.66699 -1 15 -1h13c10 0 17.5 3.16699 22.5 9.5s7.5 13.166 7.5 20.499s-2.5 14.166 -7.5 20.499s-12.5 9.5 -22.5 9.5h-14l17 62.5c6 23 11.667 46.167 17 69.5c6.66699 27.333 12.5 52.833 17.5 76.5
s7.5 41.5 7.5 53.5c0 17.333 -2.5 31 -7.5 41s-12.833 15 -23.5 15c-18 0 -40.833 -8 -68.5 -24s-62.5 -39.333 -104.5 -70c-34 -25.333 -72.5 -56.166 -115.5 -92.499s-85.5 -76.5 -127.5 -120.5c-37.333 -2 -68.833 -5.16699 -94.5 -9.5s-46.5 -10.166 -62.5 -17.499
s-27.5 -16 -34.5 -26s-10.5 -21.333 -10.5 -34c0 -9.33301 1.83301 -19 5.5 -29s12.167 -15 25.5 -15c8 0 15 2.83301 21 8.5s9 12.834 9 21.501c0 2 -0.166992 4.16699 -0.5 6.5s-0.5 4.83301 -0.5 7.5c0 3.33301 5.16699 6.83301 15.5 10.5s31.833 6.16699 64.5 7.5
c-18 -21.333 -35.5 -44.166 -52.5 -68.499s-32.167 -49.666 -45.5 -75.999s-24.166 -53.333 -32.499 -81s-12.5 -55.5 -12.5 -83.5c0 -10 3.16699 -17.5 9.5 -22.5s13.166 -7.5 20.499 -7.5s14.166 2.5 20.499 7.5s9.5 12.5 9.5 22.5c0 27.333 5.16699 55.333 15.5 84
s23.666 56.834 39.999 84.501s34.833 54.5 55.5 80.5s41.334 49.667 62.001 71c9.33301 1.33301 18.666 2 27.999 2h29c38 0 76 -1.33301 114 -4l114 -8l-23 -98c-7.33301 -32.667 -11 -66 -11 -100c0 -6 1 -12.833 3 -20.5s5.33301 -14.834 10 -21.501
s10.834 -12.334 18.501 -17.001s16.834 -7 27.501 -7c6 0 13.5 2.5 22.5 7.5s18 11.167 27 18.5s17.5 14.666 25.5 21.999s14.333 13.666 19 18.999l51.5 55.5c17 19 34.5 37.167 52.5 54.5c2 2.66699 4 5.66699 6 9s3 7.33301 3 12zM533.001 524.999
c-1.33301 -12 -4.16699 -27.499 -8.5 -46.499l-14.5 -61.5l-18.5 -73.5c-6.33301 -24.333 -12.166 -45.5 -17.499 -63.5c-38.667 2 -78.5 4.5 -119.5 7.5s-80.167 4.5 -117.5 4.5l66 59.5l80.5 68l81 62.5c26.333 19.333 49.166 33.666 68.499 42.999zM689 619
c0 6 -2.33398 12 -7.00098 18l-51.5 71c-17 24 -32.5 49 -46.5 75c-5.33301 10.667 -14 16 -26 16c-7.33301 0 -14.166 -2.66699 -20.499 -8s-9.5 -12.666 -9.5 -21.999c0 -6.66699 4.5 -17.834 13.5 -33.501s19.5 -32.334 31.5 -50.001l35.5 -50.5
c11.667 -16 20.167 -27.333 25.5 -34c6 -8 14 -12 24 -12c7.33301 0 14.333 2.83301 21 8.5s10 12.834 10 21.501z" />
    <glyph glyph-name="Aacute" unicode="&#xc1;" horiz-adv-x="672" 
d="M692 154c0 8.66699 -3.33203 15.833 -9.99902 21.5s-13.667 8.5 -21 8.5c-8.66699 0 -16 -3.33301 -22 -10l-15.5 -16l-15.5 -16l-16 -16.5l-27 -29l-31.5 -33.5l-28.5 -29c-4.66699 -5.33301 -8.66699 -8 -12 -8c-4.66699 0 -7 4.33301 -7 13
c1.33301 30 5.66602 59.833 12.999 89.5l22 89.5c4.66699 -0.666992 9.66699 -1 15 -1h13c10 0 17.5 3.16699 22.5 9.5s7.5 13.166 7.5 20.499s-2.5 14.166 -7.5 20.499s-12.5 9.5 -22.5 9.5h-14l17 62.5c6 23 11.667 46.167 17 69.5c6.66699 27.333 12.5 52.833 17.5 76.5
s7.5 41.5 7.5 53.5c0 17.333 -2.5 31 -7.5 41s-12.833 15 -23.5 15c-18 0 -40.833 -8 -68.5 -24s-62.5 -39.333 -104.5 -70c-34 -25.333 -72.5 -56.166 -115.5 -92.499s-85.5 -76.5 -127.5 -120.5c-37.333 -2 -68.833 -5.16699 -94.5 -9.5s-46.5 -10.166 -62.5 -17.499
s-27.5 -16 -34.5 -26s-10.5 -21.333 -10.5 -34c0 -9.33301 1.83301 -19 5.5 -29s12.167 -15 25.5 -15c8 0 15 2.83301 21 8.5s9 12.834 9 21.501c0 2 -0.166992 4.16699 -0.5 6.5s-0.5 4.83301 -0.5 7.5c0 3.33301 5.16699 6.83301 15.5 10.5s31.833 6.16699 64.5 7.5
c-18 -21.333 -35.5 -44.166 -52.5 -68.499s-32.167 -49.666 -45.5 -75.999s-24.166 -53.333 -32.499 -81s-12.5 -55.5 -12.5 -83.5c0 -10 3.16699 -17.5 9.5 -22.5s13.166 -7.5 20.499 -7.5s14.166 2.5 20.499 7.5s9.5 12.5 9.5 22.5c0 27.333 5.16699 55.333 15.5 84
s23.666 56.834 39.999 84.501s34.833 54.5 55.5 80.5s41.334 49.667 62.001 71c9.33301 1.33301 18.666 2 27.999 2h29c38 0 76 -1.33301 114 -4l114 -8l-23 -98c-7.33301 -32.667 -11 -66 -11 -100c0 -6 1 -12.833 3 -20.5s5.33301 -14.834 10 -21.501
s10.834 -12.334 18.501 -17.001s16.834 -7 27.501 -7c6 0 13.5 2.5 22.5 7.5s18 11.167 27 18.5s17.5 14.666 25.5 21.999s14.333 13.666 19 18.999l51.5 55.5c17 19 34.5 37.167 52.5 54.5c2 2.66699 4 5.66699 6 9s3 7.33301 3 12zM533.001 524.999
c-1.33301 -12 -4.16699 -27.499 -8.5 -46.499l-14.5 -61.5l-18.5 -73.5c-6.33301 -24.333 -12.166 -45.5 -17.499 -63.5c-38.667 2 -78.5 4.5 -119.5 7.5s-80.167 4.5 -117.5 4.5l66 59.5l80.5 68l81 62.5c26.333 19.333 49.166 33.666 68.499 42.999zM745 772
c0 8 -2.83105 15.001 -8.49805 21.001s-12.834 9 -21.501 9c-6.66699 0 -13.334 -2.66699 -20.001 -8c-22.667 -20 -44.5 -40.333 -65.5 -61s-42.167 -44 -63.5 -70c-4.66699 -4.66699 -7 -11 -7 -19c0 -8.66699 3.16699 -15.834 9.5 -21.501s13.166 -8.5 20.499 -8.5
c9.33301 0 17 3.66699 23 11c20.667 24 40.834 45.833 60.501 65.5s40.5 39.5 62.5 59.5c6.66699 6 10 13.333 10 22z" />
    <glyph glyph-name="Acircumflex" unicode="&#xc2;" horiz-adv-x="672" 
d="M692 154c0 8.66699 -3.33203 15.833 -9.99902 21.5s-13.667 8.5 -21 8.5c-8.66699 0 -16 -3.33301 -22 -10l-15.5 -16l-15.5 -16l-16 -16.5l-27 -29l-31.5 -33.5l-28.5 -29c-4.66699 -5.33301 -8.66699 -8 -12 -8c-4.66699 0 -7 4.33301 -7 13
c1.33301 30 5.66602 59.833 12.999 89.5l22 89.5c4.66699 -0.666992 9.66699 -1 15 -1h13c10 0 17.5 3.16699 22.5 9.5s7.5 13.166 7.5 20.499s-2.5 14.166 -7.5 20.499s-12.5 9.5 -22.5 9.5h-14l17 62.5c6 23 11.667 46.167 17 69.5c6.66699 27.333 12.5 52.833 17.5 76.5
s7.5 41.5 7.5 53.5c0 17.333 -2.5 31 -7.5 41s-12.833 15 -23.5 15c-18 0 -40.833 -8 -68.5 -24s-62.5 -39.333 -104.5 -70c-34 -25.333 -72.5 -56.166 -115.5 -92.499s-85.5 -76.5 -127.5 -120.5c-37.333 -2 -68.833 -5.16699 -94.5 -9.5s-46.5 -10.166 -62.5 -17.499
s-27.5 -16 -34.5 -26s-10.5 -21.333 -10.5 -34c0 -9.33301 1.83301 -19 5.5 -29s12.167 -15 25.5 -15c8 0 15 2.83301 21 8.5s9 12.834 9 21.501c0 2 -0.166992 4.16699 -0.5 6.5s-0.5 4.83301 -0.5 7.5c0 3.33301 5.16699 6.83301 15.5 10.5s31.833 6.16699 64.5 7.5
c-18 -21.333 -35.5 -44.166 -52.5 -68.499s-32.167 -49.666 -45.5 -75.999s-24.166 -53.333 -32.499 -81s-12.5 -55.5 -12.5 -83.5c0 -10 3.16699 -17.5 9.5 -22.5s13.166 -7.5 20.499 -7.5s14.166 2.5 20.499 7.5s9.5 12.5 9.5 22.5c0 27.333 5.16699 55.333 15.5 84
s23.666 56.834 39.999 84.501s34.833 54.5 55.5 80.5s41.334 49.667 62.001 71c9.33301 1.33301 18.666 2 27.999 2h29c38 0 76 -1.33301 114 -4l114 -8l-23 -98c-7.33301 -32.667 -11 -66 -11 -100c0 -6 1 -12.833 3 -20.5s5.33301 -14.834 10 -21.501
s10.834 -12.334 18.501 -17.001s16.834 -7 27.501 -7c6 0 13.5 2.5 22.5 7.5s18 11.167 27 18.5s17.5 14.666 25.5 21.999s14.333 13.666 19 18.999l51.5 55.5c17 19 34.5 37.167 52.5 54.5c2 2.66699 4 5.66699 6 9s3 7.33301 3 12zM533.001 524.999
c-1.33301 -12 -4.16699 -27.499 -8.5 -46.499l-14.5 -61.5l-18.5 -73.5c-6.33301 -24.333 -12.166 -45.5 -17.499 -63.5c-38.667 2 -78.5 4.5 -119.5 7.5s-80.167 4.5 -117.5 4.5l66 59.5l80.5 68l81 62.5c26.333 19.333 49.166 33.666 68.499 42.999zM700 620
c0 6.66699 -3.83398 17.666 -11.501 32.999s-16.5 31.333 -26.5 48s-19.833 31.834 -29.5 45.501s-16.5 22.5 -20.5 26.5c-6.66699 6.66699 -14 10 -22 10c-11.333 0 -19.666 -5 -24.999 -15c-7.33301 -12 -16.333 -23.167 -27 -33.5s-21.834 -20.166 -33.501 -29.499
l-35 -28c-11.667 -9.33301 -22.167 -19.333 -31.5 -30c-5.33301 -6.66699 -8 -13.334 -8 -20.001c0 -8.66699 3 -15.834 9 -21.501s13 -8.5 21 -8.5c8.66699 0 16 3.33301 22 10c16.667 18 34.667 34 54 48s37.333 30 54 48c10 -15.333 20 -32.166 30 -50.499
s17.667 -33.166 23 -44.499c2.66699 -6 6.33398 -10.5 11.001 -13.5s9.66699 -4.5 15 -4.5c7.33301 0 14.333 2.66699 21 8s10 12.666 10 21.999z" />
    <glyph glyph-name="Atilde" unicode="&#xc3;" horiz-adv-x="672" 
d="M692 154c0 8.66699 -3.33203 15.833 -9.99902 21.5s-13.667 8.5 -21 8.5c-8.66699 0 -16 -3.33301 -22 -10l-15.5 -16l-15.5 -16l-16 -16.5l-27 -29l-31.5 -33.5l-28.5 -29c-4.66699 -5.33301 -8.66699 -8 -12 -8c-4.66699 0 -7 4.33301 -7 13
c1.33301 30 5.66602 59.833 12.999 89.5l22 89.5c4.66699 -0.666992 9.66699 -1 15 -1h13c10 0 17.5 3.16699 22.5 9.5s7.5 13.166 7.5 20.499s-2.5 14.166 -7.5 20.499s-12.5 9.5 -22.5 9.5h-14l17 62.5c6 23 11.667 46.167 17 69.5c6.66699 27.333 12.5 52.833 17.5 76.5
s7.5 41.5 7.5 53.5c0 17.333 -2.5 31 -7.5 41s-12.833 15 -23.5 15c-18 0 -40.833 -8 -68.5 -24s-62.5 -39.333 -104.5 -70c-34 -25.333 -72.5 -56.166 -115.5 -92.499s-85.5 -76.5 -127.5 -120.5c-37.333 -2 -68.833 -5.16699 -94.5 -9.5s-46.5 -10.166 -62.5 -17.499
s-27.5 -16 -34.5 -26s-10.5 -21.333 -10.5 -34c0 -9.33301 1.83301 -19 5.5 -29s12.167 -15 25.5 -15c8 0 15 2.83301 21 8.5s9 12.834 9 21.501c0 2 -0.166992 4.16699 -0.5 6.5s-0.5 4.83301 -0.5 7.5c0 3.33301 5.16699 6.83301 15.5 10.5s31.833 6.16699 64.5 7.5
c-18 -21.333 -35.5 -44.166 -52.5 -68.499s-32.167 -49.666 -45.5 -75.999s-24.166 -53.333 -32.499 -81s-12.5 -55.5 -12.5 -83.5c0 -10 3.16699 -17.5 9.5 -22.5s13.166 -7.5 20.499 -7.5s14.166 2.5 20.499 7.5s9.5 12.5 9.5 22.5c0 27.333 5.16699 55.333 15.5 84
s23.666 56.834 39.999 84.501s34.833 54.5 55.5 80.5s41.334 49.667 62.001 71c9.33301 1.33301 18.666 2 27.999 2h29c38 0 76 -1.33301 114 -4l114 -8l-23 -98c-7.33301 -32.667 -11 -66 -11 -100c0 -6 1 -12.833 3 -20.5s5.33301 -14.834 10 -21.501
s10.834 -12.334 18.501 -17.001s16.834 -7 27.501 -7c6 0 13.5 2.5 22.5 7.5s18 11.167 27 18.5s17.5 14.666 25.5 21.999s14.333 13.666 19 18.999l51.5 55.5c17 19 34.5 37.167 52.5 54.5c2 2.66699 4 5.66699 6 9s3 7.33301 3 12zM533.001 524.999
c-1.33301 -12 -4.16699 -27.499 -8.5 -46.499l-14.5 -61.5l-18.5 -73.5c-6.33301 -24.333 -12.166 -45.5 -17.499 -63.5c-38.667 2 -78.5 4.5 -119.5 7.5s-80.167 4.5 -117.5 4.5l66 59.5l80.5 68l81 62.5c26.333 19.333 49.166 33.666 68.499 42.999zM774 718
c0 9.33301 -3.33496 16.499 -10.002 21.499s-13.334 7.5 -20.001 7.5c-11.333 0 -19.166 -4.16699 -23.499 -12.5s-8.33301 -17.5 -12 -27.5s-8.5 -19.167 -14.5 -27.5s-16 -12.5 -30 -12.5c-9.33301 0 -18.333 3.5 -27 10.5l-29 22.5c-10.667 8 -22.5 15.5 -35.5 22.5
s-28.167 10.5 -45.5 10.5c-14 0 -25.667 -3 -35 -9s-17 -13.667 -23 -23c-2 -2.66699 -4.5 -6.66699 -7.5 -12s-6 -11.333 -9 -18s-5.5 -13 -7.5 -19s-3 -11 -3 -15c0 -9.33301 3.33301 -16.5 10 -21.5s13.334 -7.5 20.001 -7.5c6 0 11.5 1.5 16.5 4.5
s8.83301 7.83301 11.5 14.5c0.666992 2.66699 2 6.5 4 11.5s4.16699 10 6.5 15s4.83301 9.5 7.5 13.5s5.66699 6 9 6c10.667 0 20.834 -3.5 30.501 -10.5l30 -22.5c10.333 -8 21.5 -15.5 33.5 -22.5s26.333 -10.5 43 -10.5c18 0 33 3.16699 45 9.5s22 14.333 30 24
s14.5 20.334 19.5 32.001s9.5 23.167 13.5 34.5c1.33301 2 2 5.66699 2 11z" />
    <glyph glyph-name="Adieresis" unicode="&#xc4;" horiz-adv-x="672" 
d="M692 154c0 8.66699 -3.33203 15.833 -9.99902 21.5s-13.667 8.5 -21 8.5c-8.66699 0 -16 -3.33301 -22 -10l-15.5 -16l-15.5 -16l-16 -16.5l-27 -29l-31.5 -33.5l-28.5 -29c-4.66699 -5.33301 -8.66699 -8 -12 -8c-4.66699 0 -7 4.33301 -7 13
c1.33301 30 5.66602 59.833 12.999 89.5l22 89.5c4.66699 -0.666992 9.66699 -1 15 -1h13c10 0 17.5 3.16699 22.5 9.5s7.5 13.166 7.5 20.499s-2.5 14.166 -7.5 20.499s-12.5 9.5 -22.5 9.5h-14l17 62.5c6 23 11.667 46.167 17 69.5c6.66699 27.333 12.5 52.833 17.5 76.5
s7.5 41.5 7.5 53.5c0 17.333 -2.5 31 -7.5 41s-12.833 15 -23.5 15c-18 0 -40.833 -8 -68.5 -24s-62.5 -39.333 -104.5 -70c-34 -25.333 -72.5 -56.166 -115.5 -92.499s-85.5 -76.5 -127.5 -120.5c-37.333 -2 -68.833 -5.16699 -94.5 -9.5s-46.5 -10.166 -62.5 -17.499
s-27.5 -16 -34.5 -26s-10.5 -21.333 -10.5 -34c0 -9.33301 1.83301 -19 5.5 -29s12.167 -15 25.5 -15c8 0 15 2.83301 21 8.5s9 12.834 9 21.501c0 2 -0.166992 4.16699 -0.5 6.5s-0.5 4.83301 -0.5 7.5c0 3.33301 5.16699 6.83301 15.5 10.5s31.833 6.16699 64.5 7.5
c-18 -21.333 -35.5 -44.166 -52.5 -68.499s-32.167 -49.666 -45.5 -75.999s-24.166 -53.333 -32.499 -81s-12.5 -55.5 -12.5 -83.5c0 -10 3.16699 -17.5 9.5 -22.5s13.166 -7.5 20.499 -7.5s14.166 2.5 20.499 7.5s9.5 12.5 9.5 22.5c0 27.333 5.16699 55.333 15.5 84
s23.666 56.834 39.999 84.501s34.833 54.5 55.5 80.5s41.334 49.667 62.001 71c9.33301 1.33301 18.666 2 27.999 2h29c38 0 76 -1.33301 114 -4l114 -8l-23 -98c-7.33301 -32.667 -11 -66 -11 -100c0 -6 1 -12.833 3 -20.5s5.33301 -14.834 10 -21.501
s10.834 -12.334 18.501 -17.001s16.834 -7 27.501 -7c6 0 13.5 2.5 22.5 7.5s18 11.167 27 18.5s17.5 14.666 25.5 21.999s14.333 13.666 19 18.999l51.5 55.5c17 19 34.5 37.167 52.5 54.5c2 2.66699 4 5.66699 6 9s3 7.33301 3 12zM533.001 524.999
c-1.33301 -12 -4.16699 -27.499 -8.5 -46.499l-14.5 -61.5l-18.5 -73.5c-6.33301 -24.333 -12.166 -45.5 -17.499 -63.5c-38.667 2 -78.5 4.5 -119.5 7.5s-80.167 4.5 -117.5 4.5l66 59.5l80.5 68l81 62.5c26.333 19.333 49.166 33.666 68.499 42.999zM683 645
c0 7.33301 -2.33301 14.832 -7 22.499s-12.667 11.5 -24 11.5c-6.66699 0 -12.667 -1.66699 -18 -5s-9.83301 -7.5 -13.5 -12.5s-6.5 -10.333 -8.5 -16s-3 -10.5 -3 -14.5c0 -8 2.83301 -15.167 8.5 -21.5s13.167 -9.5 22.5 -9.5c11.333 0 21.333 4.83301 30 14.5
s13 19.834 13 30.501zM533 661.999c0 7.33301 -2.33301 14.832 -7 22.499s-12.667 11.5 -24 11.5c-6.66699 0 -12.667 -1.66699 -18 -5s-9.83301 -7.5 -13.5 -12.5s-6.5 -10.333 -8.5 -16s-3 -10.5 -3 -14.5c0 -8 2.83301 -15.167 8.5 -21.5s13.167 -9.5 22.5 -9.5
c11.333 0 21.333 4.83301 30 14.5s13 19.834 13 30.501z" />
    <glyph glyph-name="Aring" unicode="&#xc5;" horiz-adv-x="672" 
d="M692 154c0 8.66699 -3.33203 15.833 -9.99902 21.5s-13.667 8.5 -21 8.5c-8.66699 0 -16 -3.33301 -22 -10l-15.5 -16l-15.5 -16l-16 -16.5l-27 -29l-31.5 -33.5l-28.5 -29c-4.66699 -5.33301 -8.66699 -8 -12 -8c-4.66699 0 -7 4.33301 -7 13
c1.33301 30 5.66602 59.833 12.999 89.5l22 89.5c4.66699 -0.666992 9.66699 -1 15 -1h13c10 0 17.5 3.16699 22.5 9.5s7.5 13.166 7.5 20.499s-2.5 14.166 -7.5 20.499s-12.5 9.5 -22.5 9.5h-14l17 62.5c6 23 11.667 46.167 17 69.5c6.66699 27.333 12.5 52.833 17.5 76.5
s7.5 41.5 7.5 53.5c0 17.333 -2.5 31 -7.5 41s-12.833 15 -23.5 15c-18 0 -40.833 -8 -68.5 -24s-62.5 -39.333 -104.5 -70c-34 -25.333 -72.5 -56.166 -115.5 -92.499s-85.5 -76.5 -127.5 -120.5c-37.333 -2 -68.833 -5.16699 -94.5 -9.5s-46.5 -10.166 -62.5 -17.499
s-27.5 -16 -34.5 -26s-10.5 -21.333 -10.5 -34c0 -9.33301 1.83301 -19 5.5 -29s12.167 -15 25.5 -15c8 0 15 2.83301 21 8.5s9 12.834 9 21.501c0 2 -0.166992 4.16699 -0.5 6.5s-0.5 4.83301 -0.5 7.5c0 3.33301 5.16699 6.83301 15.5 10.5s31.833 6.16699 64.5 7.5
c-18 -21.333 -35.5 -44.166 -52.5 -68.499s-32.167 -49.666 -45.5 -75.999s-24.166 -53.333 -32.499 -81s-12.5 -55.5 -12.5 -83.5c0 -10 3.16699 -17.5 9.5 -22.5s13.166 -7.5 20.499 -7.5s14.166 2.5 20.499 7.5s9.5 12.5 9.5 22.5c0 27.333 5.16699 55.333 15.5 84
s23.666 56.834 39.999 84.501s34.833 54.5 55.5 80.5s41.334 49.667 62.001 71c9.33301 1.33301 18.666 2 27.999 2h29c38 0 76 -1.33301 114 -4l114 -8l-23 -98c-7.33301 -32.667 -11 -66 -11 -100c0 -6 1 -12.833 3 -20.5s5.33301 -14.834 10 -21.501
s10.834 -12.334 18.501 -17.001s16.834 -7 27.501 -7c6 0 13.5 2.5 22.5 7.5s18 11.167 27 18.5s17.5 14.666 25.5 21.999s14.333 13.666 19 18.999l51.5 55.5c17 19 34.5 37.167 52.5 54.5c2 2.66699 4 5.66699 6 9s3 7.33301 3 12zM533.001 524.999
c-1.33301 -12 -4.16699 -27.499 -8.5 -46.499l-14.5 -61.5l-18.5 -73.5c-6.33301 -24.333 -12.166 -45.5 -17.499 -63.5c-38.667 2 -78.5 4.5 -119.5 7.5s-80.167 4.5 -117.5 4.5l66 59.5l80.5 68l81 62.5c26.333 19.333 49.166 33.666 68.499 42.999zM685 704
c0 19.333 -4.33301 35.167 -13 47.5s-20 21.5 -34 27.5c-3.33301 4.66699 -7.83301 7.5 -13.5 8.5s-10.5 1.5 -14.5 1.5c-9.33301 0 -20.333 -2.33301 -33 -7s-24.667 -11.5 -36 -20.5s-20.833 -19.833 -28.5 -32.5s-11.5 -27 -11.5 -43c0 -13.333 3.5 -24.833 10.5 -34.5
s15.333 -17.5 25 -23.5s19.5 -10.5 29.5 -13.5s17.667 -4.5 23 -4.5c14 0 27 2.83301 39 8.5s22.167 13 30.5 22s14.833 19 19.5 30s7 22.167 7 33.5zM632 705.001c0 -8.66699 -3.99902 -17.668 -11.999 -27.001s-18.667 -14 -32 -14c-4.66699 0 -9.83398 1.66699 -15.501 5
s-10 6.33301 -13 9s-4.83301 4.33398 -5.5 5.00098c0 10 4.5 19.667 13.5 29s20.5 16 34.5 20c12 0 20 -2 24 -6s6 -11 6 -21z" />
    </font>
</defs>
</svg>
